<svg width="500" height="500" padding='0' viewBox="0 0 500 500" fill="none" xmlns="http://www.w3.org/2000/svg">
<path d="M250 480.414C374.027 480.414 474.57 422.363 474.57 350.754C474.57 279.145 374.027 221.094 250 221.094C125.973 221.094 25.4299 279.145 25.4299 350.754C25.4299 422.363 125.973 480.414 250 480.414Z" fill="#F5F5F5"/>
<path d="M98.66 330.049L89.51 335.369C89.51 335.369 94.13 320.629 91.57 305.809C90.95 302.337 89.6885 299.01 87.85 295.999C87.13 294.499 81.62 285.259 86.47 280.999C91.32 276.739 102.72 285.209 102.2 307.999C101.954 315.469 100.764 322.878 98.66 330.049Z" fill="black"/>
<path opacity="0.3" d="M98.66 330.049L89.51 335.369C89.51 335.369 94.13 320.629 91.57 305.809C90.95 302.337 89.6885 299.01 87.85 295.999C87.13 294.499 81.62 285.259 86.47 280.999C91.32 276.739 102.72 285.209 102.2 307.999C101.954 315.469 100.764 322.878 98.66 330.049Z" fill="black"/>
<path d="M94.41 332.998H94.26C94.208 332.979 94.1604 332.95 94.1197 332.913C94.079 332.875 94.0461 332.83 94.0229 332.78C93.9996 332.73 93.9865 332.675 93.9843 332.62C93.9821 332.565 93.9908 332.51 94.01 332.458C94.01 332.358 97.45 322.888 97.27 307.648C97.09 292.408 89.19 284.478 89.11 284.398C89.0318 284.318 88.988 284.21 88.988 284.098C88.988 283.986 89.0318 283.878 89.11 283.798C89.1491 283.758 89.1958 283.726 89.2473 283.705C89.2988 283.683 89.3541 283.672 89.41 283.672C89.4659 283.672 89.5212 283.683 89.5727 283.705C89.6242 283.726 89.6709 283.758 89.71 283.798C89.79 283.878 97.94 292.138 98.12 307.638C98.3 323.138 94.84 332.638 94.81 332.748C94.7739 332.823 94.7171 332.887 94.6463 332.931C94.5755 332.975 94.4935 332.999 94.41 332.998Z" fill="white"/>
<path d="M91.57 334.202L76.46 343.092C76.46 343.092 69.54 342.092 70.06 335.562C70.58 329.032 73.4 327.512 69.9 324.652C66.4 321.792 65.49 321.652 65.66 318.792C65.83 315.932 67.66 314.792 68.6 313.652C69.54 312.512 71.96 310.212 70.22 306.832C68.48 303.452 66.12 300.182 69.63 298.632C71.72 297.702 75.23 298.862 77.57 301.342C79.91 303.822 81.82 305.592 84.03 306.162C86.24 306.732 90.84 306.792 90.69 310.592C90.54 314.392 89.54 315.712 90.47 317.402C92.21 320.582 99.63 322.302 91.57 334.202Z" fill="black"/>
<path d="M85.4101 338.253C85.3549 338.249 85.301 338.234 85.2514 338.21C85.2019 338.185 85.1578 338.151 85.1215 338.109C85.0853 338.067 85.0577 338.019 85.0403 337.966C85.0228 337.914 85.016 337.858 85.0201 337.803C85.0201 337.583 86.6501 315.443 71.2901 300.923C71.2504 300.885 71.2189 300.839 71.1974 300.788C71.1759 300.737 71.1648 300.683 71.1648 300.628C71.1648 300.573 71.1759 300.518 71.1974 300.468C71.2189 300.417 71.2504 300.371 71.2901 300.333C71.3704 300.255 71.478 300.211 71.5901 300.211C71.7021 300.211 71.8098 300.255 71.8901 300.333C87.5501 315.133 85.8901 337.663 85.8901 337.893C85.8727 338.004 85.8129 338.103 85.7232 338.17C85.6336 338.238 85.5212 338.267 85.4101 338.253Z" fill="white"/>
<path d="M82.71 318.94C82.5977 318.93 82.4938 318.876 82.4209 318.79C82.3479 318.704 82.3117 318.593 82.32 318.48C82.4362 316.626 82.9351 314.815 83.7853 313.163C84.6355 311.511 85.8186 310.053 87.26 308.88C87.3521 308.817 87.4652 308.792 87.5753 308.811C87.6854 308.829 87.7839 308.89 87.85 308.98C87.8831 309.025 87.907 309.075 87.9204 309.129C87.9338 309.183 87.9364 309.239 87.928 309.294C87.9197 309.349 87.9005 309.401 87.8717 309.449C87.8428 309.496 87.8049 309.538 87.76 309.57C86.4226 310.679 85.3256 312.049 84.5364 313.597C83.7471 315.144 83.2821 316.837 83.17 318.57C83.1551 318.679 83.0991 318.778 83.0136 318.847C82.928 318.915 82.8194 318.949 82.71 318.94Z" fill="white"/>
<path d="M83.8199 322.778C83.761 322.78 83.7026 322.768 83.6489 322.744C83.5952 322.719 83.5477 322.683 83.5099 322.638C83.5099 322.638 79.6699 318.538 71.0299 319.718C70.9745 319.728 70.9177 319.726 70.8629 319.713C70.8081 319.7 70.7566 319.676 70.7116 319.643C70.6666 319.609 70.629 319.566 70.6012 319.517C70.5734 319.468 70.5559 319.414 70.5499 319.358C70.5356 319.247 70.5651 319.135 70.6324 319.045C70.6996 318.955 70.7992 318.895 70.9099 318.878C80.0199 317.628 83.9699 321.878 84.1399 322.078C84.1796 322.116 84.2111 322.162 84.2326 322.213C84.2541 322.264 84.2652 322.318 84.2652 322.373C84.2652 322.428 84.2541 322.483 84.2326 322.533C84.2111 322.584 84.1796 322.63 84.1399 322.668C84.0987 322.71 84.0484 322.742 83.9929 322.761C83.9373 322.78 83.8781 322.786 83.8199 322.778Z" fill="white"/>
<path d="M436.11 371.999L285.2 284.909C282.507 283.356 279.454 282.539 276.345 282.539C273.237 282.539 270.183 283.356 267.49 284.909L214.15 315.709C213.274 316.217 212.547 316.946 212.042 317.824C211.536 318.701 211.27 319.696 211.27 320.709C211.27 321.721 211.536 322.716 212.042 323.594C212.547 324.471 213.274 325.201 214.15 325.709L365.06 412.839C367.753 414.391 370.807 415.208 373.915 415.208C377.024 415.208 380.077 414.391 382.77 412.839L436.11 382.039C436.996 381.533 437.732 380.803 438.244 379.921C438.756 379.04 439.025 378.038 439.025 377.019C439.025 375.999 438.756 374.998 438.244 374.116C437.732 373.235 436.996 372.504 436.11 371.999Z" fill="#E0E0E0"/>
<path d="M147.76 412.039C174.303 412.039 195.82 399.615 195.82 384.289C195.82 368.963 174.303 356.539 147.76 356.539C121.217 356.539 99.7002 368.963 99.7002 384.289C99.7002 399.615 121.217 412.039 147.76 412.039Z" fill="#E0E0E0"/>
<path d="M369.92 403.585L248.2 333.315C239.62 328.365 232.65 315.055 232.65 303.605V43.0045C232.65 31.5545 239.65 26.2945 248.2 31.2445L369.92 101.505C378.5 106.505 385.46 119.755 385.46 131.205V391.835C385.46 403.285 378.5 408.545 369.92 403.585Z" fill="#455A64"/>
<path d="M383.93 93.3309L262.22 23.0609C258.55 20.9409 255.17 20.6909 252.51 21.9909C252.182 22.1547 251.865 22.3384 251.56 22.5409L237.93 30.4709C240.67 28.8309 244.26 28.9509 248.2 31.2209L369.92 101.501C378.5 106.501 385.46 119.751 385.46 131.201V391.831C385.46 397.881 383.52 402.211 380.46 404.201L393.92 396.361C397.35 394.541 399.53 390.071 399.53 383.661V123.001C399.48 111.591 392.52 98.2809 383.93 93.3309Z" fill="#37474F"/>
<path d="M385.46 131.2V391.83C385.46 397.88 383.52 402.21 380.46 404.2L393.92 396.36C397.35 394.54 399.53 390.07 399.53 383.66V123L385.53 131.14L385.46 131.2Z" fill="#263238"/>
<path d="M399.48 143.273L385.46 151.363V157.683L399.48 149.593V143.273Z" fill="#37474F"/>
<path d="M393.34 185.321C392.09 186.041 391.07 185.321 391.07 183.601V170.001C391.083 169.15 391.296 168.315 391.69 167.561C392.084 166.808 392.649 166.157 393.34 165.661C394.59 164.941 395.61 165.711 395.61 167.381V181.001C395.592 181.847 395.378 182.678 394.984 183.428C394.59 184.178 394.027 184.826 393.34 185.321Z" fill="#37474F"/>
<path d="M391.07 183.598V169.998C391.084 169.148 391.296 168.312 391.69 167.559C392.084 166.805 392.649 166.154 393.34 165.658C393.547 165.516 393.788 165.429 394.038 165.407C394.289 165.384 394.541 165.426 394.77 165.528L393.08 164.648C392.847 164.529 392.586 164.477 392.325 164.496C392.064 164.516 391.813 164.606 391.6 164.758C390.909 165.254 390.344 165.905 389.95 166.659C389.556 167.412 389.344 168.248 389.33 169.098V182.698C389.293 183.042 389.345 183.389 389.482 183.706C389.618 184.023 389.835 184.299 390.11 184.508L391.89 185.438C391.603 185.231 391.376 184.952 391.232 184.629C391.087 184.306 391.032 183.95 391.07 183.598Z" fill="#455A64"/>
<path d="M393.34 218.225C392.09 218.945 391.07 218.225 391.07 216.505V202.915C391.084 202.064 391.297 201.229 391.691 200.476C392.085 199.722 392.65 199.071 393.34 198.575C394.59 197.855 395.61 198.625 395.61 200.295V213.885C395.596 214.735 395.384 215.57 394.99 216.324C394.596 217.078 394.031 217.728 393.34 218.225Z" fill="#37474F"/>
<path d="M391.07 216.502V202.912C391.084 202.062 391.297 201.227 391.691 200.473C392.085 199.72 392.65 199.069 393.34 198.572C393.547 198.43 393.788 198.343 394.038 198.321C394.289 198.298 394.541 198.34 394.77 198.442L393.08 197.562C392.846 197.448 392.585 197.399 392.325 197.418C392.065 197.437 391.815 197.525 391.6 197.672C390.91 198.169 390.345 198.82 389.951 199.573C389.557 200.327 389.344 201.162 389.33 202.012V215.602C389.293 215.945 389.345 216.293 389.482 216.61C389.618 216.927 389.835 217.203 390.11 217.412L391.89 218.342C391.603 218.135 391.376 217.856 391.232 217.533C391.087 217.21 391.032 216.854 391.07 216.502Z" fill="#455A64"/>
<path d="M365.68 108.825L246.07 39.7546C245.568 39.4649 244.999 39.3124 244.42 39.3125C243.84 39.3126 243.271 39.4653 242.769 39.7551C242.267 40.045 241.851 40.4619 241.561 40.9639C241.272 41.4658 241.12 42.0352 241.12 42.6146V303.615C241.12 312.335 247.29 323.035 254.84 327.385L371.55 394.775C372.103 395.095 372.73 395.263 373.368 395.264C374.007 395.264 374.634 395.096 375.187 394.777C375.739 394.457 376.198 393.998 376.517 393.444C376.835 392.891 377.002 392.263 377 391.625V128.435C377 121.245 371.91 112.425 365.68 108.825Z" fill="black"/>
<path opacity="0.5" d="M365.68 108.825L246.07 39.7546C245.568 39.4649 244.999 39.3124 244.42 39.3125C243.84 39.3126 243.271 39.4653 242.769 39.7551C242.267 40.045 241.851 40.4619 241.561 40.9639C241.272 41.4658 241.12 42.0352 241.12 42.6146V303.615C241.12 312.335 247.29 323.035 254.84 327.385L371.55 394.775C372.103 395.095 372.73 395.263 373.368 395.264C374.007 395.264 374.634 395.096 375.187 394.777C375.739 394.457 376.198 393.998 376.517 393.444C376.835 392.891 377.002 392.263 377 391.625V128.435C377 121.245 371.91 112.425 365.68 108.825Z" fill="white"/>
<path d="M281.83 57.7812L283.69 65.5912L323.33 88.4512L330.18 84.8013L281.83 57.7812Z" fill="#455A64"/>
<path d="M293.48 65.3193C293.48 66.6193 292.58 67.1393 291.48 66.4993C290.893 66.1113 290.406 65.5903 290.059 64.9787C289.711 64.367 289.513 63.682 289.48 62.9793C289.48 61.6893 290.38 61.1593 291.48 61.8093C292.065 62.1968 292.551 62.7164 292.898 63.326C293.245 63.9357 293.445 64.6185 293.48 65.3193Z" fill="#263238"/>
<path d="M320.2 81.828C319.983 81.8294 319.769 81.7742 319.58 81.668L299.33 70.358C299.184 70.2766 299.056 70.1672 298.953 70.0362C298.849 69.9052 298.772 69.7551 298.727 69.5945C298.681 69.4338 298.668 69.2658 298.687 69.1C298.707 68.9341 298.759 68.7737 298.84 68.628C298.922 68.4822 299.031 68.3539 299.162 68.2504C299.293 68.1469 299.443 68.0702 299.604 68.0247C299.764 67.9792 299.932 67.9658 300.098 67.9852C300.264 68.0046 300.424 68.0566 300.57 68.138L320.82 79.458C321.069 79.5917 321.266 79.8054 321.379 80.0646C321.492 80.3238 321.515 80.6135 321.443 80.8871C321.372 81.1607 321.21 81.4022 320.985 81.5729C320.759 81.7436 320.483 81.8334 320.2 81.828Z" fill="#263238"/>
<path d="M349 147.913V421.693C349 426.693 347.17 430.023 344.37 431.113H344.3L332.43 437.623L332.49 427.053L333.81 143.123L346.35 136.703C348.028 140.206 348.931 144.03 349 147.913Z" fill="#E0E0E0"/>
<path d="M331.81 438.682L331.89 427.082L333.21 142.782L346.64 135.922L346.9 136.482C348.613 140.054 349.541 143.951 349.62 147.912V421.692C349.62 426.692 347.75 430.442 344.62 431.692L331.81 438.682ZM334.41 143.532L333.1 427.092L333.04 436.632L344.13 430.562C346.83 429.512 348.41 426.202 348.41 421.692V147.912C348.338 144.341 347.538 140.823 346.06 137.572L334.41 143.532Z" fill="#E0E0E0"/>
<path d="M346.35 136.744L333.81 143.164L199.57 65.0637L190.57 59.8537L202.96 52.8537L203.31 52.6437C205.31 51.4537 207.87 51.5337 210.72 53.1837L337.78 126.544C341.24 128.524 344.3 132.324 346.35 136.744Z" fill="#E0E0E0"/>
<path d="M333.79 143.843L333.51 143.683L189.39 59.8432L203 52.1332C205.24 50.7832 208.09 50.9732 211 52.6632L338.12 126.003C341.52 128.003 344.72 131.773 346.9 136.463L347.15 136.983L333.79 143.843ZM191.79 59.8432L333.79 142.453L345.51 136.453C343.45 132.223 340.51 128.823 337.51 127.053L210.46 53.7132C208.01 52.3032 205.68 52.0732 203.86 53.0532L203.31 53.3932L191.79 59.8432Z" fill="#E0E0E0"/>
<path d="M336.71 154.82V428.41C336.71 432.72 335.34 435.82 333.14 437.27L332.43 437.66C330.52 438.56 328.13 438.36 325.53 436.86L264.11 401.4L235.41 384.83L198.46 363.5C192.28 359.93 187.27 350.35 187.27 342.12V68.5501C187.27 64.3801 188.55 61.3601 190.61 59.8501C190.96 59.5869 191.343 59.3717 191.75 59.2101C193.62 58.4101 195.94 58.6501 198.46 60.1001L325.53 133.46C328.82 135.35 331.77 138.96 333.81 143.16C335.633 146.782 336.624 150.766 336.71 154.82Z" fill="#FAFAFA"/>
<path d="M198.46 361.897C224.61 377.497 292.63 418.087 326.3 438.367C327.303 438.966 328.447 439.289 329.615 439.302C330.783 439.315 331.934 439.019 332.95 438.442C333.967 437.866 334.812 437.031 335.401 436.022C335.989 435.012 336.299 433.865 336.3 432.697V151.377C336.299 148.177 335.462 145.032 333.871 142.255C332.28 139.479 329.991 137.166 327.23 135.547L197.85 59.7168C196.844 59.1159 195.697 58.7931 194.525 58.7816C193.354 58.77 192.2 59.0701 191.182 59.6511C190.165 60.2321 189.32 61.0731 188.735 62.088C188.149 63.1029 187.844 64.2551 187.85 65.4268V343.277C187.855 347.034 188.835 350.725 190.695 353.989C192.555 357.253 195.231 359.978 198.46 361.897Z" fill="#FAFAFA"/>
<path d="M198 362.76C218.987 375.28 239.987 387.813 261 400.36C273.26 407.693 285.517 415.026 297.77 422.36L314.2 432.21L321.51 436.61C323.74 437.95 326.11 439.89 328.75 440.24C329.828 440.371 330.921 440.272 331.958 439.952C332.995 439.631 333.953 439.095 334.769 438.378C335.584 437.662 336.24 436.781 336.691 435.794C337.143 434.807 337.381 433.735 337.39 432.65C337.39 432.16 337.39 431.65 337.39 431.18V172C337.39 165.24 337.39 158.49 337.39 151.74C337.41 148.244 336.507 144.806 334.773 141.772C333.038 138.737 330.532 136.215 327.51 134.46C324.56 132.71 321.59 130.99 318.63 129.25L276.25 104.42L225.9 74.9995C216.82 69.6795 207.8 64.2595 198.67 58.9995C197.482 58.2681 196.119 57.8717 194.724 57.8523C193.33 57.8329 191.956 58.1913 190.748 58.8894C189.54 59.5875 188.544 60.5993 187.865 61.8176C187.186 63.0359 186.849 64.4153 186.89 65.8095C186.89 68.0295 186.89 70.2595 186.89 72.4795V320.43C186.89 327.803 186.89 335.166 186.89 342.52C186.822 346.568 187.811 350.564 189.759 354.114C191.707 357.663 194.548 360.643 198 362.76C199.1 363.43 200.1 361.7 199 361.03C192.21 356.86 188.92 349.82 188.92 342.03V87.0295C188.92 80.0295 188.92 73.0295 188.92 66.0295C188.867 65.1183 189.019 64.2068 189.365 63.3622C189.712 62.5176 190.243 61.7615 190.92 61.1495C193.16 59.2495 195.85 59.6395 198.18 60.9995L208.18 66.8695L251 91.9995L300.15 120.8C308.93 125.95 317.73 131.05 326.48 136.23C329.229 137.843 331.497 140.161 333.051 142.943C334.605 145.726 335.388 148.873 335.32 152.06V430.71C335.32 431.31 335.32 431.92 335.32 432.52C335.326 433.552 335.052 434.566 334.526 435.455C334 436.343 333.243 437.072 332.336 437.564C331.428 438.056 330.404 438.292 329.373 438.247C328.341 438.202 327.342 437.878 326.48 437.31C316.15 431.22 305.92 424.95 295.64 418.79C271.88 404.543 248.077 390.316 224.23 376.11L199 361C198.767 360.867 198.49 360.832 198.231 360.904C197.973 360.975 197.753 361.146 197.62 361.38C197.487 361.613 197.453 361.889 197.524 362.148C197.596 362.407 197.767 362.627 198 362.76Z" fill="#EBEBEB"/>
<path d="M205.26 100.605C205.26 102.735 203.76 103.605 201.92 102.535C200.95 101.9 200.142 101.047 199.562 100.043C198.982 99.0388 198.646 97.9128 198.58 96.7552C198.58 94.6252 200.08 93.7552 201.92 94.8252C202.892 95.4584 203.701 96.3117 204.281 97.316C204.861 98.3202 205.197 99.4471 205.26 100.605Z" fill="black"/>
<path d="M201.92 102.533C199.2 100.953 196.99 102.623 196.99 106.263V107.383L206.85 113.083V112.003C206.85 108.323 204.64 104.103 201.92 102.533Z" fill="black"/>
<path d="M327.25 135.547L197.85 59.7168C196.844 59.1159 195.697 58.7931 194.525 58.7816C193.354 58.77 192.2 59.0701 191.182 59.6511C190.165 60.2321 189.32 61.0731 188.735 62.088C188.149 63.1029 187.844 64.2551 187.85 65.4268V77.6268L336.24 163.297V151.377C336.247 148.184 335.422 145.045 333.845 142.269C332.269 139.493 329.996 137.176 327.25 135.547Z" fill="#EBEBEB"/>
<path d="M262.11 262.386C280.921 262.386 296.17 235.976 296.17 203.396C296.17 170.817 280.921 144.406 262.11 144.406C243.299 144.406 228.05 170.817 228.05 203.396C228.05 235.976 243.299 262.386 262.11 262.386Z" fill="#455A64"/>
<path d="M243.62 181.556C243.62 181.556 240.9 182.926 243.1 189.306C245.3 195.686 240.33 198.876 239.03 196.366C239.03 196.366 239.12 200.366 244.03 200.366C245.315 200.461 246.592 200.109 247.646 199.369C248.7 198.629 249.465 197.546 249.81 196.306C249.81 196.306 251.58 198.236 251.58 203.676C251.58 209.116 246.38 229.566 264.58 229.566C282.78 229.566 282.41 214.076 282.41 214.076C282.41 214.076 287.07 214.166 287.07 207.196C287.07 207.196 279.99 211.596 279.99 201.766C279.99 191.936 281.61 179.506 274.11 179.506C274.11 179.506 276.69 174.166 271.56 170.756C266.43 167.346 251 172.006 251 172.006C251 172.006 246.37 169.226 243.05 172.506C239 176.526 243.62 181.556 243.62 181.556Z" fill="#263238"/>
<path d="M252.44 210.175L251.81 221.095L250.57 242.595L250.43 242.905C246.85 239.621 243.549 236.045 240.56 232.215C239.334 230.635 238.144 229.018 236.99 227.365C237.99 223.365 238.9 219.785 239.63 217.365C241.49 211.265 248.11 210.305 251.04 210.185C251.9 210.145 252.44 210.175 252.44 210.175Z" fill="#FFA8A7"/>
<path d="M279.39 257.217C278.114 257.16 276.845 257.013 275.59 256.777C270.832 255.818 266.273 254.052 262.11 251.557C257.914 249.106 253.998 246.205 250.43 242.907C246.85 239.623 243.548 236.047 240.56 232.217C240.405 231.106 240.405 229.978 240.56 228.867C241.36 223.047 247.92 215.157 250.92 211.797C251.84 210.797 252.42 210.177 252.42 210.177L257.42 210.047L268.65 210.667L273.81 212.077C274.11 212.166 274.375 212.346 274.57 212.591C274.765 212.836 274.88 213.134 274.9 213.447L275.81 226.637L276.19 232.067L275.59 234.167L273.27 242.367C273.017 243.284 272.976 244.246 273.149 245.182C273.323 246.117 273.706 247.001 274.27 247.767C274.67 248.317 275.13 248.967 275.59 249.707C277.12 252.068 278.394 254.586 279.39 257.217Z" fill="black"/>
<path d="M268.66 210.654L254.35 219.924C254.229 220.015 254.08 220.063 253.929 220.059C253.777 220.055 253.632 220 253.515 219.902C253.399 219.805 253.32 219.671 253.29 219.522C253.26 219.373 253.281 219.219 253.35 219.084L257.41 210.084V195.164H268.64L268.66 210.654Z" fill="#FFA8A7"/>
<path d="M257.43 208.744C259.725 207.896 261.823 206.588 263.596 204.901C265.369 203.215 266.779 201.184 267.74 198.934V195.164H257.43V208.744Z" fill="#F28F8F"/>
<path d="M254.82 176.753C254.82 176.753 244.55 177.363 245.82 194.913C246.4 203.033 248.31 207.233 254.56 206.913C261.64 206.563 271.69 201.703 271.03 187.813C270.37 173.923 254.82 176.753 254.82 176.753Z" fill="#FFA8A7"/>
<path d="M268.66 195.161C268.66 195.161 265.84 195.901 265.84 191.871C265.84 191.871 253.34 191.021 250.57 178.611C250.57 178.611 251.81 174.891 259.62 174.891C267.43 174.891 274 181.801 272 191.291L268.66 195.161Z" fill="#263238"/>
<path d="M253.34 191.391V197.421L249.81 196.341L253.34 191.391Z" fill="#F28F8F"/>
<path d="M258.66 192.003C258.66 192.247 258.588 192.485 258.453 192.687C258.318 192.889 258.126 193.047 257.901 193.14C257.676 193.233 257.429 193.257 257.19 193.21C256.952 193.162 256.732 193.045 256.56 192.873C256.388 192.701 256.271 192.482 256.224 192.243C256.176 192.005 256.201 191.757 256.294 191.533C256.387 191.308 256.545 191.116 256.747 190.981C256.949 190.846 257.187 190.773 257.43 190.773C257.592 190.773 257.752 190.805 257.901 190.867C258.05 190.929 258.186 191.019 258.3 191.134C258.414 191.248 258.505 191.383 258.567 191.533C258.628 191.682 258.66 191.842 258.66 192.003Z" fill="#263238"/>
<path d="M250.57 191.175C250.57 191.419 250.498 191.656 250.363 191.859C250.227 192.061 250.035 192.219 249.811 192.312C249.586 192.405 249.338 192.429 249.1 192.382C248.861 192.334 248.642 192.217 248.47 192.045C248.298 191.873 248.181 191.654 248.133 191.415C248.086 191.177 248.11 190.929 248.203 190.705C248.297 190.48 248.454 190.288 248.657 190.153C248.859 190.017 249.097 189.945 249.34 189.945C249.666 189.945 249.979 190.075 250.21 190.306C250.44 190.536 250.57 190.849 250.57 191.175Z" fill="#263238"/>
<path d="M247.85 188.614L250.25 187.184C250.25 187.184 249.33 186.184 248.41 186.804C248.144 187.014 247.949 187.299 247.849 187.622C247.749 187.945 247.749 188.291 247.85 188.614Z" fill="#263238"/>
<path d="M253.65 199.419C255.065 199.526 256.474 199.153 257.65 198.359C257.65 198.359 257.92 200.449 256.17 200.849C255.649 200.942 255.112 200.85 254.652 200.589C254.192 200.328 253.837 199.914 253.65 199.419Z" fill="#F28F8F"/>
<path d="M267.66 195.612C267.614 194.582 267.806 193.556 268.22 192.612C268.421 192.024 268.793 191.509 269.289 191.134C269.784 190.758 270.379 190.538 271 190.502C274.15 190.412 274.58 193.452 274.53 194.502C274.42 197.342 272.12 200.402 267.85 200.502L267.66 195.612Z" fill="#FFA8A7"/>
<path d="M288.92 255.784C285.883 256.94 282.632 257.428 279.39 257.214C278.114 257.158 276.844 257.011 275.59 256.774V249.774V234.234C274.53 232.322 273.656 230.313 272.98 228.234C269.71 218.044 273.81 212.234 273.81 212.234C276.802 212.969 279.649 214.203 282.23 215.884C284.107 217.127 285.591 218.879 286.51 220.934C289.41 227.464 289.59 237.004 288.92 255.784Z" fill="#FFA8A7"/>
<path opacity="0.2" d="M268 236.297C266.531 238.087 264.543 239.377 262.31 239.992C260.077 240.606 257.709 240.513 255.53 239.727C255.53 239.727 263.31 245.397 268 236.297Z" fill="black"/>
<path d="M322.09 167.095C322.09 167.975 321.48 168.335 320.71 167.895C320.308 167.632 319.973 167.277 319.733 166.86C319.493 166.443 319.355 165.976 319.33 165.495C319.33 164.615 319.95 164.265 320.71 164.705C321.115 164.964 321.451 165.316 321.691 165.732C321.931 166.148 322.068 166.616 322.09 167.095Z" fill="black"/>
<path d="M322.09 173.342C322.09 174.222 321.48 174.582 320.71 174.142C320.308 173.878 319.974 173.523 319.734 173.106C319.494 172.69 319.356 172.222 319.33 171.742C319.33 170.862 319.95 170.502 320.71 170.952C321.115 171.211 321.451 171.563 321.691 171.979C321.931 172.395 322.068 172.862 322.09 173.342Z" fill="black"/>
<path d="M322.09 179.592C322.09 180.472 321.48 180.832 320.71 180.392C320.308 180.128 319.974 179.773 319.734 179.356C319.494 178.94 319.356 178.472 319.33 177.992C319.33 177.112 319.95 176.752 320.71 177.202C321.115 177.461 321.451 177.813 321.691 178.229C321.931 178.645 322.068 179.112 322.09 179.592Z" fill="black"/>
<path d="M325.9 386.771C325.813 386.77 325.728 386.75 325.65 386.711L198.06 313.001C198.003 312.969 197.953 312.925 197.913 312.874C197.873 312.822 197.843 312.762 197.826 312.699C197.81 312.635 197.806 312.569 197.815 312.504C197.824 312.439 197.846 312.377 197.88 312.321C197.947 312.208 198.055 312.125 198.182 312.089C198.309 312.054 198.444 312.069 198.56 312.131L326.15 385.801C326.264 385.868 326.347 385.976 326.382 386.103C326.417 386.229 326.402 386.365 326.34 386.481C326.299 386.564 326.237 386.635 326.16 386.686C326.082 386.737 325.993 386.766 325.9 386.771Z" fill="black"/>
<path d="M325.9 373.842C325.812 373.843 325.725 373.818 325.65 373.772L198.06 300.112C197.946 300.043 197.863 299.933 197.83 299.804C197.796 299.675 197.814 299.538 197.88 299.422C197.912 299.365 197.956 299.315 198.007 299.274C198.059 299.234 198.119 299.205 198.182 299.188C198.245 299.171 198.312 299.168 198.377 299.177C198.442 299.186 198.504 299.208 198.56 299.242L326.15 372.912C326.265 372.977 326.35 373.085 326.386 373.213C326.421 373.34 326.405 373.477 326.34 373.592C326.294 373.668 326.23 373.73 326.153 373.774C326.076 373.818 325.989 373.841 325.9 373.842Z" fill="black"/>
<path d="M325.9 360.91C325.812 360.906 325.727 360.882 325.65 360.84L198.06 287.17C197.96 287.097 197.89 286.99 197.865 286.869C197.839 286.748 197.86 286.621 197.922 286.514C197.984 286.407 198.084 286.327 198.202 286.289C198.319 286.252 198.447 286.259 198.56 286.31L326.15 360C326.264 360.069 326.347 360.179 326.383 360.307C326.418 360.436 326.403 360.573 326.34 360.69C326.29 360.76 326.224 360.817 326.148 360.855C326.071 360.894 325.986 360.913 325.9 360.91Z" fill="black"/>
<path d="M246.389 131.979V124.404L249.231 126.038C249.819 126.376 250.326 126.779 250.751 127.247C251.176 127.708 251.505 128.21 251.736 128.754C251.968 129.299 252.083 129.856 252.083 130.426C252.083 130.988 251.968 131.409 251.736 131.687C251.505 131.965 251.176 132.094 250.751 132.073C250.326 132.045 249.819 131.862 249.231 131.524L247.233 130.376L247.908 129.974V132.852L246.389 131.979ZM247.908 130.169L247.233 128.947L249.147 130.047C249.616 130.317 249.966 130.403 250.198 130.305C250.429 130.207 250.545 129.952 250.545 129.541C250.545 129.123 250.429 128.732 250.198 128.368C249.966 128.004 249.616 127.687 249.147 127.418L247.233 126.318L247.908 125.873V130.169ZM253.056 135.811V129.989L254.454 130.792V132.437L254.257 131.848C254.407 131.523 254.648 131.351 254.979 131.332C255.311 131.307 255.714 131.43 256.19 131.703V133.262C256.127 133.218 256.071 133.182 256.021 133.154C255.971 133.118 255.918 133.084 255.861 133.051C255.461 132.821 255.136 132.768 254.886 132.891C254.642 133.01 254.52 133.348 254.52 133.903V136.652L253.056 135.811ZM262.15 141.123C261.613 140.815 261.135 140.411 260.717 139.911C260.305 139.415 259.977 138.874 259.734 138.287C259.496 137.697 259.378 137.114 259.378 136.538C259.378 135.955 259.496 135.508 259.734 135.198C259.977 134.884 260.305 134.72 260.717 134.704C261.135 134.685 261.613 134.83 262.15 135.139C262.681 135.444 263.155 135.846 263.574 136.346C263.992 136.838 264.32 137.376 264.557 137.959C264.794 138.542 264.913 139.129 264.913 139.719C264.913 140.295 264.794 140.742 264.557 141.059C264.32 141.369 263.992 141.534 263.574 141.553C263.155 141.572 262.681 141.428 262.15 141.123ZM262.15 139.741C262.393 139.881 262.612 139.941 262.806 139.923C262.999 139.905 263.152 139.809 263.264 139.636C263.377 139.456 263.433 139.2 263.433 138.869C263.433 138.53 263.377 138.21 263.264 137.908C263.152 137.605 262.999 137.334 262.806 137.093C262.612 136.852 262.393 136.662 262.15 136.522C261.906 136.382 261.688 136.321 261.494 136.339C261.301 136.358 261.145 136.452 261.026 136.621C260.914 136.794 260.857 137.05 260.857 137.388C260.857 137.72 260.914 138.04 261.026 138.349C261.145 138.655 261.301 138.929 261.494 139.17C261.688 139.41 261.906 139.601 262.15 139.741ZM266.067 143.288V137.347C266.067 136.692 266.236 136.267 266.573 136.072C266.91 135.869 267.391 135.947 268.015 136.306C268.228 136.428 268.431 136.57 268.624 136.732C268.824 136.897 268.993 137.073 269.13 137.26L268.746 138.26C268.665 138.149 268.574 138.046 268.474 137.953C268.374 137.859 268.268 137.78 268.156 137.716C267.944 137.594 267.778 137.571 267.66 137.646C267.547 137.719 267.491 137.895 267.491 138.176V138.716L267.528 139.462V144.128L266.067 143.288ZM265.29 138.456V137.16L268.783 139.167V140.464L265.29 138.456ZM269.608 145.323V139.511L271.069 140.351V146.163L269.608 145.323ZM270.338 139.121C270.07 138.967 269.851 138.751 269.683 138.474C269.514 138.197 269.43 137.926 269.43 137.659C269.43 137.393 269.514 137.218 269.683 137.135C269.851 137.052 270.07 137.087 270.338 137.241C270.607 137.396 270.825 137.608 270.994 137.878C271.162 138.14 271.247 138.405 271.247 138.671C271.247 138.952 271.162 139.137 270.994 139.228C270.831 139.315 270.613 139.279 270.338 139.121ZM272.42 146.939V138.924L273.881 139.764V147.779L272.42 146.939ZM277.738 150.082C277.163 149.752 276.657 149.331 276.22 148.821C275.789 148.314 275.455 147.769 275.218 147.186C274.981 146.596 274.862 146.013 274.862 145.437C274.862 144.854 274.978 144.405 275.209 144.092C275.446 143.774 275.768 143.606 276.173 143.587C276.579 143.561 277.038 143.695 277.55 143.99C278.043 144.273 278.487 144.65 278.88 145.121C279.28 145.589 279.595 146.116 279.826 146.702C280.057 147.281 280.173 147.884 280.173 148.511C280.173 148.576 280.17 148.649 280.163 148.732C280.157 148.808 280.151 148.88 280.145 148.948L276.052 146.596V145.613L279.377 147.524L278.815 147.493C278.815 147.19 278.762 146.897 278.655 146.612C278.549 146.328 278.403 146.071 278.215 145.841C278.028 145.604 277.809 145.413 277.56 145.27C277.31 145.126 277.088 145.064 276.895 145.082C276.707 145.097 276.561 145.189 276.454 145.358C276.348 145.521 276.295 145.757 276.295 146.066V146.326C276.295 146.642 276.355 146.957 276.473 147.27C276.598 147.58 276.77 147.862 276.988 148.117C277.213 148.369 277.475 148.581 277.775 148.753C278.043 148.907 278.278 148.995 278.477 149.016C278.683 149.041 278.871 149.008 279.039 148.918L279.817 150.337C279.586 150.507 279.295 150.574 278.946 150.539C278.596 150.496 278.193 150.344 277.738 150.082Z" fill="#455A64"/>
<path d="M239.576 261.338V258.263L239.92 259.515L237.05 252.361L238.653 253.282L240.852 258.771L239.93 258.241L242.139 255.286L243.621 256.137L240.75 259.991L241.085 259.131V262.205L239.576 261.338ZM246.531 265.421C245.997 265.114 245.523 264.712 245.107 264.216C244.698 263.723 244.372 263.186 244.13 262.603C243.894 262.017 243.776 261.437 243.776 260.865C243.776 260.286 243.894 259.842 244.13 259.534C244.372 259.222 244.698 259.059 245.107 259.043C245.523 259.025 245.997 259.169 246.531 259.475C247.058 259.778 247.529 260.178 247.945 260.674C248.36 261.164 248.686 261.698 248.922 262.277C249.157 262.856 249.275 263.439 249.275 264.025C249.275 264.598 249.157 265.042 248.922 265.357C248.686 265.665 248.36 265.828 247.945 265.847C247.529 265.866 247.058 265.724 246.531 265.421ZM246.531 264.047C246.772 264.186 246.99 264.246 247.182 264.228C247.374 264.21 247.526 264.115 247.638 263.943C247.749 263.764 247.805 263.51 247.805 263.181C247.805 262.844 247.749 262.526 247.638 262.226C247.526 261.925 247.374 261.656 247.182 261.416C246.99 261.177 246.772 260.988 246.531 260.849C246.289 260.71 246.072 260.65 245.879 260.668C245.687 260.686 245.532 260.779 245.414 260.948C245.302 261.12 245.247 261.374 245.247 261.71C245.247 262.039 245.302 262.357 245.414 262.665C245.532 262.969 245.687 263.24 245.879 263.479C246.072 263.719 246.289 263.908 246.531 264.047ZM252.358 268.769C251.942 268.531 251.57 268.224 251.241 267.849C250.919 267.477 250.667 267.05 250.487 266.568C250.308 266.078 250.218 265.536 250.218 264.943V261.68L251.669 262.514V265.53C251.669 266.009 251.756 266.413 251.93 266.742C252.11 267.067 252.361 267.322 252.683 267.508C252.907 267.636 253.105 267.697 253.279 267.689C253.452 267.674 253.589 267.581 253.688 267.409C253.787 267.23 253.837 266.965 253.837 266.615V263.76L255.289 264.594V270.368L253.911 269.577V267.988L254.163 268.594C253.995 268.899 253.747 269.06 253.418 269.079C253.096 269.094 252.742 268.99 252.358 268.769ZM256.633 271.141V265.367L258.02 266.164V267.795L257.824 267.211C257.973 266.889 258.212 266.718 258.541 266.7C258.869 266.674 259.269 266.797 259.741 267.067V268.613C259.679 268.57 259.623 268.534 259.573 268.506C259.524 268.47 259.471 268.436 259.415 268.404C259.018 268.176 258.696 268.123 258.448 268.245C258.206 268.364 258.085 268.698 258.085 269.249V271.975L256.633 271.141ZM263.656 269.317C264.053 269.545 264.406 269.842 264.716 270.206C265.033 270.567 265.281 270.988 265.461 271.471C265.64 271.946 265.73 272.477 265.73 273.064V276.369L264.279 275.535V272.487C264.279 272.022 264.189 271.627 264.009 271.302C263.835 270.98 263.587 270.727 263.265 270.541C263.035 270.41 262.827 270.347 262.641 270.355C262.461 270.359 262.319 270.445 262.213 270.613C262.114 270.785 262.064 271.05 262.064 271.408V274.262L260.613 273.428V267.655L261.999 268.451V270.05L261.739 269.418C261.919 269.135 262.176 268.986 262.511 268.971C262.846 268.956 263.228 269.071 263.656 269.317ZM270.117 278.89V277.763L270.024 277.463V275.445C270.024 275.088 269.927 274.753 269.735 274.442C269.549 274.135 269.261 273.869 268.87 273.645C268.603 273.491 268.339 273.39 268.079 273.34C267.825 273.287 267.607 273.291 267.428 273.352L266.907 271.883C267.179 271.818 267.508 271.836 267.893 271.935C268.277 272.034 268.668 272.198 269.065 272.426C269.828 272.865 270.421 273.413 270.842 274.07C271.264 274.727 271.475 275.496 271.475 276.376V279.671L270.117 278.89ZM268.591 278.099C268.2 277.874 267.865 277.607 267.586 277.296C267.307 276.978 267.093 276.644 266.944 276.294C266.795 275.944 266.72 275.604 266.72 275.275C266.72 274.931 266.792 274.672 266.934 274.496C267.083 274.324 267.316 274.258 267.632 274.296C267.949 274.328 268.361 274.49 268.87 274.782L270.2 275.547V276.523L269.028 275.85C268.687 275.654 268.451 275.583 268.321 275.636C268.197 275.694 268.135 275.819 268.135 276.012C268.135 276.227 268.206 276.44 268.349 276.651C268.498 276.858 268.699 277.034 268.954 277.181C269.195 277.32 269.413 277.38 269.605 277.362C269.797 277.336 269.937 277.22 270.024 277.012L270.247 277.913C270.141 278.224 269.949 278.397 269.67 278.429C269.391 278.462 269.031 278.352 268.591 278.099ZM279.199 278.25C279.596 278.479 279.947 278.773 280.251 279.134C280.561 279.491 280.803 279.909 280.977 280.388C281.156 280.863 281.246 281.394 281.246 281.981V285.286L279.795 284.452V281.404C279.795 280.939 279.711 280.548 279.544 280.23C279.376 279.912 279.14 279.665 278.837 279.491C278.626 279.369 278.436 279.318 278.269 279.336C278.101 279.347 277.971 279.437 277.878 279.605C277.785 279.774 277.739 280.029 277.739 280.373V283.27L276.287 282.436V279.388C276.287 278.923 276.203 278.532 276.036 278.214C275.875 277.899 275.642 277.655 275.338 277.48C275.127 277.359 274.938 277.307 274.77 277.326C274.603 277.337 274.473 277.426 274.38 277.595C274.287 277.763 274.24 278.019 274.24 278.362V281.26L272.789 280.426V274.652L274.175 275.449V277.026L273.914 276.415C274.088 276.121 274.333 275.965 274.65 275.947C274.972 275.925 275.338 276.031 275.747 276.267C276.206 276.53 276.607 276.896 276.948 277.364C277.295 277.829 277.525 278.368 277.636 278.983L277.125 278.528C277.292 278.174 277.559 277.969 277.925 277.915C278.297 277.864 278.722 277.976 279.199 278.25ZM285.068 287.569C284.497 287.241 283.995 286.823 283.561 286.316C283.133 285.812 282.801 285.271 282.565 284.692C282.329 284.106 282.212 283.527 282.212 282.954C282.212 282.375 282.326 281.929 282.556 281.617C282.791 281.302 283.111 281.135 283.514 281.117C283.917 281.091 284.373 281.224 284.882 281.516C285.372 281.798 285.812 282.173 286.203 282.64C286.6 283.105 286.913 283.628 287.143 284.211C287.372 284.786 287.487 285.385 287.487 286.008C287.487 286.072 287.484 286.145 287.478 286.228C287.472 286.303 287.465 286.374 287.459 286.442L283.393 284.106V283.129L286.696 285.027L286.138 284.996C286.138 284.696 286.085 284.404 285.98 284.122C285.874 283.84 285.729 283.584 285.542 283.355C285.356 283.12 285.139 282.931 284.891 282.788C284.643 282.645 284.423 282.583 284.231 282.601C284.044 282.616 283.899 282.708 283.793 282.876C283.688 283.037 283.635 283.272 283.635 283.579V283.837C283.635 284.152 283.694 284.464 283.812 284.775C283.936 285.083 284.107 285.363 284.324 285.617C284.547 285.867 284.807 286.077 285.105 286.248C285.372 286.402 285.605 286.489 285.803 286.51C286.008 286.535 286.194 286.502 286.361 286.412L287.134 287.822C286.904 287.991 286.616 288.057 286.268 288.022C285.921 287.98 285.521 287.829 285.068 287.569Z" fill="#455A64"/>
<path d="M267.686 378.002C267.165 377.703 266.712 377.317 266.327 376.845C265.947 376.376 265.654 375.841 265.447 375.241C265.241 374.64 265.138 373.986 265.138 373.279C265.138 372.521 265.26 371.95 265.504 371.564C265.754 371.182 266.096 370.978 266.53 370.952C266.97 370.929 267.475 371.081 268.045 371.409C268.349 371.584 268.639 371.788 268.916 372.022C269.193 372.256 269.431 372.506 269.632 372.772L269.144 373.609C268.986 373.393 268.818 373.212 268.639 373.065C268.46 372.912 268.273 372.779 268.077 372.667C267.583 372.383 267.192 372.331 266.905 372.51C266.617 372.689 266.473 373.116 266.473 373.793C266.473 373.905 266.473 374.03 266.473 374.168C266.479 374.309 266.495 374.456 266.522 374.609L266.156 374.004C266.259 373.82 266.392 373.693 266.555 373.623C266.717 373.548 266.91 373.533 267.133 373.58C267.361 373.623 267.61 373.723 267.882 373.879C268.251 374.091 268.582 374.366 268.875 374.703C269.168 375.041 269.402 375.413 269.575 375.82C269.754 376.229 269.844 376.641 269.844 377.054C269.844 377.498 269.746 377.83 269.551 378.05C269.361 378.266 269.103 378.372 268.777 378.366C268.457 378.357 268.093 378.236 267.686 378.002ZM267.613 376.824C267.798 376.93 267.96 376.986 268.102 376.992C268.248 376.995 268.362 376.944 268.444 376.841C268.525 376.737 268.566 376.589 268.566 376.394C268.566 376.094 268.476 375.805 268.297 375.526C268.123 375.245 267.89 375.02 267.597 374.852C267.401 374.739 267.23 374.685 267.084 374.688C266.937 374.685 266.821 374.734 266.734 374.834C266.652 374.932 266.612 375.077 266.612 375.271C266.612 375.459 266.652 375.652 266.734 375.849C266.815 376.039 266.929 376.221 267.076 376.393C267.222 376.558 267.401 376.702 267.613 376.824ZM272.765 380.921C272.298 380.652 271.88 380.281 271.511 379.806C271.142 379.324 270.851 378.769 270.64 378.14C270.428 377.512 270.322 376.837 270.322 376.117C270.322 375.397 270.428 374.845 270.64 374.459C270.851 374.074 271.142 373.856 271.511 373.805C271.88 373.748 272.298 373.853 272.765 374.122C273.237 374.393 273.655 374.768 274.019 375.246C274.388 375.721 274.678 376.273 274.89 376.902C275.102 377.531 275.207 378.205 275.207 378.925C275.207 379.645 275.102 380.198 274.89 380.583C274.678 380.969 274.388 381.19 274.019 381.247C273.655 381.301 273.237 381.192 272.765 380.921ZM272.765 379.634C272.987 379.762 273.18 379.801 273.343 379.75C273.511 379.703 273.641 379.549 273.734 379.289C273.831 379.033 273.88 378.657 273.88 378.162C273.88 377.668 273.831 377.236 273.734 376.867C273.641 376.5 273.511 376.197 273.343 375.956C273.18 375.719 272.987 375.536 272.765 375.408C272.548 375.283 272.355 375.245 272.187 375.292C272.024 375.342 271.894 375.496 271.796 375.753C271.704 376.013 271.657 376.39 271.657 376.885C271.657 377.379 271.704 377.81 271.796 378.176C271.894 378.545 272.024 378.848 272.187 379.086C272.355 379.327 272.548 379.509 272.765 379.634ZM278.291 384.097C277.824 383.828 277.406 383.457 277.037 382.982C276.668 382.5 276.377 381.945 276.166 381.316C275.954 380.688 275.848 380.013 275.848 379.293C275.848 378.573 275.954 378.021 276.166 377.635C276.377 377.25 276.668 377.032 277.037 376.981C277.406 376.924 277.824 377.029 278.291 377.298C278.763 377.569 279.181 377.944 279.545 378.422C279.914 378.897 280.204 379.449 280.416 380.078C280.628 380.707 280.734 381.381 280.734 382.101C280.734 382.821 280.628 383.374 280.416 383.759C280.204 384.144 279.914 384.366 279.545 384.423C279.181 384.477 278.763 384.368 278.291 384.097ZM278.291 382.81C278.513 382.938 278.706 382.977 278.869 382.926C279.037 382.879 279.168 382.725 279.26 382.465C279.358 382.208 279.406 381.833 279.406 381.338C279.406 380.844 279.358 380.412 279.26 380.042C279.168 379.676 279.037 379.373 278.869 379.132C278.706 378.895 278.513 378.712 278.291 378.584C278.074 378.459 277.881 378.421 277.713 378.468C277.55 378.518 277.42 378.672 277.322 378.929C277.23 379.189 277.184 379.566 277.184 380.061C277.184 380.555 277.23 380.986 277.322 381.352C277.42 381.721 277.55 382.024 277.713 382.262C277.881 382.502 278.074 382.685 278.291 382.81Z" fill="#BA68C8"/>
<path d="M287.559 385.701L290.29 387.27V388.489L287.559 386.92V385.701ZM287.656 389.366L286.339 388.609V382.047L290.639 384.518V385.737L287.656 384.022V389.366ZM293.419 392.753C292.953 392.485 292.538 392.134 292.175 391.701C291.817 391.27 291.533 390.801 291.322 390.292C291.116 389.78 291.013 389.273 291.013 388.773C291.013 388.267 291.116 387.88 291.322 387.61C291.533 387.338 291.817 387.195 292.175 387.182C292.538 387.166 292.953 387.292 293.419 387.559C293.879 387.824 294.291 388.173 294.654 388.607C295.017 389.034 295.302 389.501 295.508 390.007C295.714 390.513 295.817 391.022 295.817 391.534C295.817 392.034 295.714 392.422 295.508 392.697C295.302 392.966 295.017 393.109 294.654 393.126C294.291 393.142 293.879 393.018 293.419 392.753ZM293.419 391.553C293.63 391.675 293.82 391.727 293.988 391.711C294.156 391.695 294.288 391.612 294.386 391.462C294.483 391.306 294.532 391.084 294.532 390.796C294.532 390.502 294.483 390.224 294.386 389.962C294.288 389.7 294.156 389.464 293.988 389.255C293.82 389.046 293.63 388.881 293.419 388.759C293.207 388.638 293.018 388.585 292.85 388.601C292.682 388.617 292.546 388.699 292.443 388.846C292.346 388.996 292.297 389.218 292.297 389.512C292.297 389.799 292.346 390.077 292.443 390.346C292.546 390.611 292.682 390.848 292.85 391.057C293.018 391.266 293.207 391.432 293.419 391.553ZM296.664 394.543V387.587L297.932 388.316V395.272L296.664 394.543ZM299.109 395.948V388.992L300.377 389.721V396.677L299.109 395.948ZM303.634 398.624C303.168 398.356 302.754 398.006 302.391 397.572C302.033 397.141 301.749 396.672 301.537 396.163C301.331 395.651 301.229 395.145 301.229 394.645C301.229 394.138 301.331 393.751 301.537 393.482C301.749 393.209 302.033 393.066 302.391 393.053C302.754 393.037 303.168 393.163 303.634 393.43C304.095 393.695 304.507 394.044 304.87 394.478C305.233 394.905 305.517 395.372 305.723 395.878C305.929 396.384 306.032 396.893 306.032 397.405C306.032 397.905 305.929 398.293 305.723 398.568C305.517 398.838 305.233 398.98 304.87 398.997C304.507 399.013 304.095 398.889 303.634 398.624ZM303.634 397.424C303.846 397.546 304.035 397.598 304.203 397.582C304.371 397.566 304.504 397.483 304.602 397.333C304.699 397.177 304.748 396.955 304.748 396.667C304.748 396.374 304.699 396.096 304.602 395.833C304.504 395.571 304.371 395.335 304.203 395.126C304.035 394.917 303.846 394.752 303.634 394.63C303.423 394.509 303.233 394.456 303.065 394.472C302.897 394.488 302.762 394.57 302.659 394.717C302.562 394.867 302.513 395.089 302.513 395.383C302.513 395.67 302.562 395.948 302.659 396.217C302.762 396.482 302.897 396.719 303.065 396.928C303.233 397.137 303.423 397.303 303.634 397.424ZM307.76 400.92L306.184 394.971L307.378 395.657L308.687 400.75L308.118 400.423L309.484 396.867L310.557 397.484L311.881 402.586L311.312 402.259L312.662 398.694L313.783 399.338L312.198 403.471L310.971 402.766L309.809 398.376L310.183 398.591L308.98 401.621L307.76 400.92ZM316.424 405.975C315.926 405.688 315.487 405.323 315.107 404.88C314.733 404.44 314.444 403.968 314.238 403.462C314.032 402.95 313.929 402.444 313.929 401.944C313.929 401.437 314.029 401.048 314.229 400.776C314.435 400.5 314.714 400.355 315.067 400.338C315.419 400.316 315.817 400.432 316.262 400.687C316.69 400.933 317.074 401.261 317.416 401.669C317.763 402.075 318.036 402.532 318.237 403.041C318.437 403.544 318.537 404.067 318.537 404.611C318.537 404.667 318.535 404.731 318.529 404.803C318.524 404.869 318.518 404.931 318.513 404.991L314.961 402.949V402.096L317.846 403.755L317.359 403.727C317.359 403.465 317.313 403.21 317.221 402.964C317.129 402.717 317.001 402.494 316.839 402.294C316.676 402.088 316.486 401.923 316.27 401.798C316.053 401.674 315.861 401.619 315.693 401.635C315.53 401.648 315.403 401.728 315.311 401.875C315.218 402.016 315.172 402.221 315.172 402.49V402.715C315.172 402.99 315.224 403.263 315.327 403.535C315.435 403.803 315.584 404.048 315.774 404.27C315.969 404.488 316.196 404.672 316.457 404.821C316.69 404.955 316.893 405.031 317.066 405.05C317.245 405.071 317.408 405.043 317.554 404.964L318.229 406.196C318.028 406.343 317.776 406.402 317.473 406.371C317.169 406.334 316.82 406.202 316.424 405.975ZM319.382 407.599V402.556L320.593 403.252V404.677L320.422 404.166C320.552 403.884 320.761 403.736 321.048 403.719C321.335 403.697 321.685 403.804 322.096 404.041V405.391C322.042 405.353 321.993 405.322 321.95 405.297C321.907 405.266 321.861 405.237 321.812 405.209C321.465 405.009 321.183 404.963 320.967 405.07C320.755 405.173 320.65 405.466 320.65 405.947V408.328L319.382 407.599ZM324.353 410.532C323.979 410.317 323.619 410.06 323.272 409.76C322.931 409.458 322.66 409.171 322.459 408.899L322.882 408.092C323.083 408.351 323.318 408.605 323.589 408.855C323.866 409.101 324.137 409.301 324.402 409.453C324.695 409.621 324.901 409.699 325.02 409.686C325.144 409.677 325.207 409.6 325.207 409.456C325.207 409.338 325.158 409.222 325.06 409.11C324.968 408.994 324.844 408.876 324.687 408.754C324.529 408.633 324.356 408.502 324.166 408.362C323.982 408.224 323.795 408.076 323.605 407.917C323.416 407.752 323.242 407.571 323.085 407.375C322.928 407.178 322.801 406.961 322.703 406.724C322.611 406.49 322.565 406.229 322.565 405.941C322.565 405.623 322.644 405.387 322.801 405.233C322.963 405.083 323.196 405.026 323.5 405.063C323.803 405.094 324.166 405.23 324.589 405.473C324.887 405.645 325.19 405.856 325.499 406.109C325.808 406.362 326.066 406.619 326.272 406.881L325.849 407.679C325.638 407.413 325.423 407.194 325.207 407.019C324.995 406.841 324.789 406.695 324.589 406.58C324.307 406.418 324.101 406.343 323.971 406.356C323.841 406.369 323.776 406.444 323.776 406.581C323.776 406.706 323.822 406.826 323.914 406.942C324.012 407.06 324.139 407.184 324.296 407.311C324.454 407.439 324.624 407.572 324.808 407.709C324.998 407.843 325.188 407.992 325.377 408.158C325.567 408.323 325.738 408.502 325.889 408.696C326.047 408.886 326.174 409.1 326.272 409.337C326.369 409.568 326.418 409.827 326.418 410.115C326.418 410.427 326.337 410.659 326.174 410.809C326.011 410.953 325.776 411.005 325.467 410.965C325.163 410.928 324.792 410.784 324.353 410.532Z" fill="#455A64"/>
<path d="M200.306 339.034C199.909 338.806 199.516 338.521 199.125 338.177C198.74 337.83 198.409 337.465 198.132 337.08L198.653 336.215C198.87 336.522 199.12 336.809 199.402 337.078C199.69 337.349 199.98 337.57 200.273 337.738C200.604 337.928 200.865 338.003 201.055 337.962C201.245 337.921 201.34 337.766 201.34 337.496C201.34 337.327 201.302 337.155 201.226 336.98C201.15 336.805 201.014 336.627 200.819 336.446C200.629 336.268 200.36 336.079 200.013 335.879L198.555 335.041L198.848 331.51L202.325 333.508V334.729L199.32 333.002L200.004 332.7L199.801 335.222L199.117 334.134L200.322 334.827C200.886 335.151 201.34 335.502 201.682 335.88C202.029 336.255 202.281 336.642 202.439 337.039C202.596 337.436 202.675 337.829 202.675 338.217C202.675 338.605 202.591 338.917 202.423 339.152C202.254 339.381 201.994 339.497 201.641 339.501C201.294 339.501 200.848 339.346 200.306 339.034ZM205.653 342.107C205.186 341.839 204.768 341.467 204.399 340.992C204.03 340.511 203.739 339.956 203.528 339.327C203.316 338.698 203.21 338.024 203.21 337.304C203.21 336.584 203.316 336.031 203.528 335.645C203.739 335.26 204.03 335.042 204.399 334.991C204.768 334.934 205.186 335.04 205.653 335.308C206.125 335.579 206.543 335.954 206.907 336.432C207.276 336.907 207.566 337.459 207.778 338.088C207.99 338.717 208.095 339.391 208.095 340.111C208.095 340.831 207.99 341.384 207.778 341.769C207.566 342.155 207.276 342.376 206.907 342.433C206.543 342.487 206.125 342.378 205.653 342.107ZM205.653 340.82C205.875 340.948 206.068 340.987 206.231 340.937C206.399 340.889 206.529 340.736 206.622 340.476C206.719 340.219 206.768 339.843 206.768 339.348C206.768 338.854 206.719 338.422 206.622 338.053C206.529 337.687 206.399 337.383 206.231 337.143C206.068 336.905 205.875 336.722 205.653 336.594C205.436 336.47 205.243 336.431 205.075 336.478C204.912 336.529 204.782 336.682 204.684 336.939C204.592 337.199 204.545 337.576 204.545 338.071C204.545 338.566 204.592 338.996 204.684 339.362C204.782 339.731 204.912 340.035 205.075 340.272C205.243 340.513 205.436 340.696 205.653 340.82ZM211.179 345.283C210.712 345.015 210.294 344.643 209.925 344.168C209.556 343.687 209.266 343.131 209.054 342.503C208.842 341.874 208.736 341.2 208.736 340.48C208.736 339.76 208.842 339.207 209.054 338.821C209.266 338.436 209.556 338.218 209.925 338.167C210.294 338.11 210.712 338.216 211.179 338.484C211.651 338.755 212.069 339.13 212.433 339.608C212.802 340.083 213.092 340.635 213.304 341.264C213.516 341.893 213.622 342.567 213.622 343.287C213.622 344.007 213.516 344.56 213.304 344.945C213.092 345.331 212.802 345.552 212.433 345.609C212.069 345.663 211.651 345.554 211.179 345.283ZM211.179 343.996C211.402 344.124 211.594 344.163 211.757 344.113C211.925 344.065 212.056 343.912 212.148 343.652C212.246 343.395 212.294 343.019 212.294 342.524C212.294 342.03 212.246 341.598 212.148 341.229C212.056 340.863 211.925 340.559 211.757 340.319C211.594 340.081 211.402 339.898 211.179 339.77C210.962 339.646 210.769 339.607 210.601 339.654C210.438 339.705 210.308 339.858 210.21 340.115C210.118 340.375 210.072 340.752 210.072 341.247C210.072 341.742 210.118 342.172 210.21 342.538C210.308 342.907 210.438 343.211 210.601 343.448C210.769 343.689 210.962 343.872 211.179 343.996Z" fill="#BA68C8"/>
<path d="M220.447 346.887L223.178 348.457V349.675L220.447 348.106V346.887ZM220.544 350.552L219.227 349.796V343.233L223.527 345.704V346.923L220.544 345.209V350.552ZM226.307 353.939C225.841 353.672 225.426 353.321 225.063 352.887C224.706 352.457 224.421 351.987 224.21 351.478C224.004 350.966 223.901 350.46 223.901 349.96C223.901 349.454 224.004 349.066 224.21 348.797C224.421 348.524 224.706 348.382 225.063 348.368C225.426 348.352 225.841 348.478 226.307 348.746C226.767 349.01 227.179 349.36 227.542 349.793C227.905 350.221 228.19 350.687 228.396 351.193C228.602 351.699 228.705 352.208 228.705 352.721C228.705 353.221 228.602 353.608 228.396 353.884C228.19 354.153 227.905 354.296 227.542 354.312C227.179 354.328 226.767 354.204 226.307 353.939ZM226.307 352.739C226.518 352.861 226.708 352.914 226.876 352.898C227.044 352.882 227.176 352.799 227.274 352.648C227.372 352.492 227.42 352.27 227.42 351.982C227.42 351.689 227.372 351.411 227.274 351.148C227.176 350.886 227.044 350.65 226.876 350.441C226.708 350.232 226.518 350.067 226.307 349.946C226.095 349.824 225.906 349.771 225.738 349.787C225.57 349.803 225.434 349.885 225.331 350.032C225.234 350.182 225.185 350.404 225.185 350.698C225.185 350.985 225.234 351.263 225.331 351.532C225.434 351.797 225.57 352.035 225.738 352.244C225.906 352.453 226.095 352.618 226.307 352.739ZM229.552 355.73V348.773L230.82 349.502V356.458L229.552 355.73ZM231.997 357.135V350.178L233.265 350.907V357.863L231.997 357.135ZM236.523 359.81C236.057 359.543 235.642 359.192 235.279 358.758C234.921 358.328 234.637 357.858 234.425 357.349C234.22 356.837 234.117 356.331 234.117 355.831C234.117 355.325 234.22 354.937 234.425 354.668C234.637 354.396 234.921 354.253 235.279 354.24C235.642 354.223 236.057 354.349 236.523 354.617C236.983 354.882 237.395 355.231 237.758 355.664C238.121 356.092 238.406 356.558 238.611 357.064C238.817 357.57 238.92 358.079 238.92 358.592C238.92 359.092 238.817 359.479 238.611 359.755C238.406 360.024 238.121 360.167 237.758 360.183C237.395 360.199 236.983 360.075 236.523 359.81ZM236.523 358.61C236.734 358.732 236.924 358.785 237.091 358.769C237.259 358.753 237.392 358.67 237.49 358.52C237.587 358.363 237.636 358.141 237.636 357.854C237.636 357.56 237.587 357.282 237.49 357.02C237.392 356.757 237.259 356.522 237.091 356.313C236.924 356.103 236.734 355.938 236.523 355.817C236.311 355.695 236.122 355.643 235.954 355.659C235.786 355.674 235.65 355.756 235.547 355.903C235.45 356.053 235.401 356.275 235.401 356.569C235.401 356.856 235.45 357.135 235.547 357.403C235.65 357.668 235.786 357.906 235.954 358.115C236.122 358.324 236.311 358.489 236.523 358.61ZM240.649 362.107L239.072 356.157L240.267 356.844L241.575 361.936L241.006 361.609L242.372 358.053L243.445 358.67L244.77 363.772L244.201 363.445L245.55 359.88L246.672 360.525L245.087 364.657L243.859 363.952L242.697 359.562L243.071 359.777L241.868 362.807L240.649 362.107ZM247.261 365.907V360.863L248.529 361.592V366.636L247.261 365.907ZM247.895 360.525C247.662 360.391 247.472 360.204 247.326 359.963C247.18 359.723 247.107 359.487 247.107 359.256C247.107 359.025 247.18 358.873 247.326 358.801C247.472 358.729 247.662 358.759 247.895 358.893C248.128 359.027 248.318 359.211 248.464 359.445C248.61 359.673 248.683 359.903 248.683 360.134C248.683 360.378 248.61 360.539 248.464 360.617C248.323 360.692 248.133 360.662 247.895 360.525ZM252.364 363.721C252.71 363.92 253.019 364.179 253.29 364.497C253.567 364.812 253.783 365.181 253.941 365.602C254.098 366.017 254.176 366.481 254.176 366.994V369.881L252.908 369.153V366.49C252.908 366.084 252.83 365.739 252.673 365.455C252.521 365.174 252.304 364.952 252.022 364.79C251.822 364.675 251.64 364.621 251.478 364.627C251.321 364.631 251.196 364.706 251.104 364.853C251.017 365.003 250.974 365.235 250.974 365.547V368.041L249.706 367.312V362.268L250.917 362.964V364.361L250.689 363.809C250.846 363.561 251.071 363.431 251.364 363.418C251.657 363.405 251.99 363.506 252.364 363.721ZM257.414 373.636C257.002 373.399 256.604 373.111 256.219 372.771C255.84 372.44 255.523 372.086 255.268 371.709L255.772 370.948C255.956 371.229 256.189 371.501 256.471 371.763C256.758 372.034 257.04 372.249 257.316 372.408C257.766 372.666 258.091 372.737 258.292 372.621C258.498 372.509 258.601 372.224 258.601 371.768V371.008L258.682 369.789L258.666 368.505V367.418L259.869 368.109V372.309C259.869 373.246 259.657 373.816 259.235 374.016C258.812 374.217 258.205 374.09 257.414 373.636ZM257.219 371.386C256.812 371.153 256.444 370.841 256.113 370.451C255.788 370.058 255.525 369.622 255.325 369.145C255.13 368.664 255.032 368.18 255.032 367.692C255.032 367.198 255.13 366.826 255.325 366.576C255.525 366.322 255.788 366.189 256.113 366.176C256.444 366.166 256.812 366.278 257.219 366.511C257.587 366.723 257.912 366.997 258.194 367.334C258.476 367.665 258.695 368.057 258.852 368.509C259.01 368.956 259.088 369.461 259.088 370.023C259.088 370.579 259.01 370.994 258.852 371.266C258.695 371.532 258.476 371.671 258.194 371.684C257.912 371.697 257.587 371.598 257.219 371.386ZM257.471 370.331C257.693 370.459 257.891 370.522 258.064 370.522C258.237 370.515 258.373 370.446 258.47 370.315C258.568 370.183 258.617 369.996 258.617 369.752C258.617 369.502 258.568 369.258 258.47 369.021C258.373 368.778 258.237 368.556 258.064 368.356C257.891 368.15 257.693 367.984 257.471 367.856C257.249 367.728 257.051 367.668 256.877 367.674C256.704 367.675 256.566 367.739 256.463 367.867C256.365 367.993 256.317 368.18 256.317 368.43C256.317 368.674 256.365 368.918 256.463 369.161C256.566 369.408 256.704 369.634 256.877 369.84C257.051 370.04 257.249 370.203 257.471 370.331Z" fill="#455A64"/>
<path d="M237.619 275.896C236.973 275.525 236.383 275.064 235.849 274.513C235.314 273.962 234.854 273.358 234.469 272.699C234.084 272.041 233.786 271.353 233.574 270.637C233.363 269.914 233.257 269.197 233.257 268.488C233.257 267.778 233.363 267.187 233.574 266.713C233.786 266.24 234.084 265.895 234.469 265.679C234.861 265.467 235.327 265.398 235.867 265.472C236.408 265.547 237.004 265.771 237.657 266.146C238.297 266.514 238.881 266.964 239.409 267.497C239.937 268.03 240.394 268.619 240.779 269.263C241.17 269.903 241.472 270.575 241.683 271.277C241.894 271.971 242 272.666 242 273.361C242 273.971 241.935 274.456 241.804 274.819C241.674 275.181 241.484 275.412 241.236 275.513C240.993 275.61 240.695 275.557 240.341 275.354C239.993 275.154 239.713 274.871 239.502 274.506C239.297 274.144 239.195 273.738 239.195 273.286V272.555L239.241 271.926L239.157 270.642V269.212L239.968 269.678V273.548C239.968 273.835 240.018 274.064 240.117 274.236C240.223 274.411 240.35 274.542 240.499 274.628C240.68 274.731 240.835 274.738 240.965 274.648C241.102 274.562 241.202 274.379 241.264 274.099C241.332 273.816 241.366 273.452 241.366 273.008C241.366 272.406 241.276 271.81 241.096 271.219C240.922 270.624 240.667 270.051 240.332 269.5C240.002 268.953 239.611 268.455 239.157 268.008C238.71 267.558 238.21 267.173 237.657 266.856C237.104 266.538 236.597 266.351 236.137 266.294C235.684 266.234 235.292 266.296 234.963 266.479C234.634 266.656 234.379 266.946 234.199 267.352C234.025 267.76 233.938 268.269 233.938 268.879C233.938 269.495 234.025 270.111 234.199 270.727C234.373 271.336 234.621 271.916 234.944 272.467C235.274 273.029 235.662 273.539 236.109 273.997C236.563 274.465 237.066 274.858 237.619 275.176C237.905 275.34 238.207 275.474 238.523 275.577C238.84 275.688 239.139 275.741 239.418 275.737L239.623 276.543C239.337 276.543 239.014 276.483 238.654 276.362C238.294 276.241 237.949 276.086 237.619 275.896ZM237.452 273.693C237.01 273.439 236.619 273.096 236.277 272.663C235.935 272.223 235.665 271.738 235.466 271.208C235.268 270.678 235.168 270.148 235.168 269.618C235.168 269.08 235.268 268.665 235.466 268.37C235.665 268.069 235.935 267.902 236.277 267.869C236.619 267.829 237.01 267.935 237.452 268.189C237.88 268.435 238.256 268.759 238.579 269.16C238.902 269.553 239.154 270.006 239.334 270.518C239.521 271.034 239.614 271.585 239.614 272.173C239.614 272.761 239.524 273.207 239.344 273.512C239.163 273.817 238.912 273.988 238.589 274.024C238.266 274.053 237.887 273.943 237.452 273.693ZM237.582 272.929C237.887 273.104 238.157 273.185 238.393 273.17C238.635 273.151 238.825 273.038 238.962 272.83C239.104 272.618 239.176 272.315 239.176 271.921C239.176 271.52 239.104 271.135 238.962 270.766C238.825 270.401 238.635 270.073 238.393 269.784C238.157 269.497 237.887 269.267 237.582 269.092C237.271 268.913 236.995 268.833 236.753 268.852C236.516 268.866 236.33 268.978 236.193 269.186C236.063 269.398 235.998 269.7 235.998 270.095C235.998 270.482 236.063 270.856 236.193 271.218C236.33 271.583 236.516 271.916 236.753 272.216C236.995 272.513 237.271 272.751 237.582 272.929ZM245.376 278.247C244.953 278.004 244.58 277.7 244.257 277.335C243.94 276.974 243.692 276.559 243.512 276.09C243.338 275.617 243.251 275.101 243.251 274.542V271.264L244.145 271.778V274.938C244.145 275.497 244.26 275.983 244.49 276.394C244.726 276.81 245.056 277.139 245.478 277.381C245.789 277.56 246.059 277.644 246.289 277.632C246.519 277.614 246.696 277.501 246.82 277.293C246.945 277.078 247.007 276.769 247.007 276.368V273.422L247.901 273.937V279.634L247.053 279.147V277.609L247.193 278.098C247.032 278.385 246.789 278.54 246.466 278.562C246.143 278.584 245.779 278.479 245.376 278.247ZM251.022 281.492C250.611 281.256 250.22 280.967 249.847 280.623C249.481 280.284 249.192 279.96 248.98 279.652L249.353 279.049C249.564 279.336 249.825 279.625 250.136 279.919C250.447 280.212 250.764 280.451 251.087 280.637C251.503 280.876 251.801 280.98 251.982 280.947C252.168 280.918 252.261 280.782 252.261 280.538C252.261 280.359 252.205 280.187 252.093 280.022C251.982 279.858 251.832 279.697 251.646 279.539C251.466 279.386 251.264 279.227 251.04 279.062C250.816 278.891 250.593 278.712 250.369 278.526C250.145 278.333 249.94 278.129 249.754 277.915C249.568 277.693 249.418 277.453 249.307 277.195C249.195 276.93 249.139 276.633 249.139 276.303C249.139 275.959 249.223 275.706 249.39 275.545C249.558 275.383 249.794 275.322 250.099 275.361C250.409 275.396 250.776 275.535 251.199 275.778C251.522 275.964 251.848 276.198 252.177 276.48C252.513 276.759 252.786 277.041 252.997 277.328L252.615 277.925C252.392 277.624 252.159 277.372 251.916 277.169C251.674 276.965 251.432 276.793 251.189 276.654C250.798 276.429 250.506 276.336 250.313 276.376C250.121 276.409 250.024 276.54 250.024 276.769C250.024 276.963 250.08 277.145 250.192 277.317C250.31 277.485 250.459 277.65 250.639 277.811C250.826 277.975 251.031 278.143 251.255 278.315C251.478 278.479 251.702 278.658 251.926 278.851C252.149 279.037 252.351 279.235 252.531 279.446C252.718 279.661 252.867 279.897 252.979 280.155C253.097 280.416 253.156 280.708 253.156 281.031C253.156 281.375 253.069 281.622 252.895 281.773C252.721 281.924 252.475 281.98 252.159 281.941C251.842 281.895 251.463 281.745 251.022 281.492ZM256.474 284.625C255.946 284.322 255.48 283.928 255.076 283.446C254.678 282.966 254.367 282.444 254.144 281.878C253.926 281.316 253.817 280.752 253.817 280.185C253.817 279.619 253.923 279.178 254.134 278.863C254.352 278.55 254.647 278.38 255.02 278.35C255.399 278.317 255.824 278.436 256.297 278.708C256.775 278.983 257.198 279.347 257.564 279.802C257.931 280.256 258.217 280.764 258.422 281.327C258.633 281.885 258.739 282.458 258.739 283.046C258.739 283.089 258.735 283.137 258.729 283.191C258.729 283.248 258.726 283.3 258.72 283.347L254.516 280.931V280.189L258.254 282.337L257.89 282.386C257.897 282.025 257.831 281.661 257.695 281.296C257.558 280.93 257.368 280.599 257.126 280.302C256.89 280.002 256.614 279.761 256.297 279.578C255.986 279.4 255.709 279.323 255.467 279.349C255.225 279.367 255.035 279.484 254.899 279.699C254.762 279.908 254.694 280.198 254.694 280.571V280.743C254.694 281.122 254.768 281.506 254.917 281.892C255.073 282.276 255.287 282.628 255.56 282.95C255.834 283.272 256.148 283.535 256.502 283.738C256.794 283.906 257.058 284.001 257.294 284.022C257.536 284.046 257.748 283.996 257.928 283.87L258.422 284.82C258.198 284.993 257.918 285.061 257.583 285.026C257.254 284.995 256.884 284.861 256.474 284.625ZM259.981 286.576V280.879L260.838 281.372V282.92L260.755 282.485C260.891 282.169 261.121 282 261.444 281.978C261.767 281.956 262.165 282.08 262.637 282.352V283.352C262.6 283.323 262.563 283.298 262.525 283.277C262.494 283.259 262.463 283.241 262.432 283.223C261.954 282.948 261.575 282.895 261.295 283.064C261.016 283.233 260.876 283.629 260.876 284.253V287.091L259.981 286.576ZM266.378 284.501C266.782 284.734 267.136 285.027 267.44 285.381C267.751 285.739 267.993 286.15 268.167 286.616C268.341 287.081 268.428 287.593 268.428 288.152V291.431L267.534 290.917V287.756C267.534 287.205 267.415 286.721 267.179 286.306C266.949 285.894 266.623 285.567 266.201 285.324C265.884 285.142 265.607 285.055 265.371 285.062C265.135 285.07 264.952 285.176 264.821 285.381C264.697 285.589 264.635 285.901 264.635 286.316V289.251L263.74 288.737V283.039L264.598 283.532V285.069L264.458 284.581C264.619 284.301 264.868 284.153 265.203 284.138C265.539 284.123 265.93 284.244 266.378 284.501ZM273.151 294.145V292.941L273.104 292.689V290.635C273.104 290.198 272.992 289.797 272.768 289.432C272.551 289.063 272.222 288.752 271.78 288.499C271.488 288.331 271.203 288.224 270.923 288.178C270.643 288.125 270.407 288.136 270.215 288.212L269.842 287.223C270.097 287.133 270.401 287.129 270.755 287.211C271.116 287.289 271.492 287.44 271.883 287.665C272.56 288.055 273.082 288.545 273.449 289.135C273.815 289.726 273.999 290.411 273.999 291.193V294.633L273.151 294.145ZM271.529 293.278C271.162 293.067 270.839 292.81 270.56 292.506C270.286 292.205 270.075 291.887 269.926 291.55C269.777 291.206 269.702 290.873 269.702 290.551C269.702 290.243 269.764 289.999 269.888 289.819C270.019 289.644 270.227 289.562 270.513 289.576C270.805 289.594 271.196 289.743 271.687 290.025L273.253 290.925V291.667L271.725 290.789C271.277 290.531 270.976 290.444 270.82 290.527C270.665 290.61 270.587 290.773 270.587 291.017C270.587 291.296 270.684 291.577 270.876 291.86C271.069 292.135 271.336 292.371 271.678 292.568C272.013 292.761 272.306 292.842 272.554 292.813C272.809 292.788 272.992 292.642 273.104 292.377L273.281 293.188C273.163 293.457 272.955 293.606 272.657 293.635C272.358 293.658 271.982 293.538 271.529 293.278ZM281.834 293.384C282.232 293.613 282.583 293.904 282.887 294.258C283.192 294.613 283.428 295.021 283.596 295.482C283.77 295.948 283.856 296.46 283.856 297.019V300.298L282.962 299.784V296.623C282.962 296.071 282.85 295.591 282.626 295.183C282.403 294.775 282.089 294.455 281.685 294.223C281.387 294.052 281.126 293.973 280.902 293.988C280.678 294.003 280.504 294.114 280.38 294.322C280.262 294.534 280.203 294.848 280.203 295.263V298.198L279.308 297.684V294.523C279.308 293.972 279.196 293.492 278.973 293.084C278.755 292.679 278.441 292.359 278.031 292.123C277.739 291.956 277.481 291.879 277.258 291.894C277.034 291.909 276.86 292.02 276.736 292.228C276.611 292.436 276.549 292.748 276.549 293.164V296.098L275.655 295.584V289.887L276.512 290.38V291.895L276.372 291.428C276.528 291.145 276.767 290.992 277.09 290.97C277.413 290.947 277.789 291.06 278.218 291.306C278.69 291.577 279.097 291.947 279.439 292.416C279.78 292.878 280.004 293.411 280.11 294.017L279.746 293.636C279.895 293.284 280.156 293.083 280.529 293.032C280.902 292.981 281.337 293.099 281.834 293.384ZM287.702 302.573C287.174 302.269 286.708 301.876 286.304 301.393C285.907 300.914 285.596 300.391 285.372 299.825C285.155 299.263 285.046 298.699 285.046 298.133C285.046 297.567 285.152 297.126 285.363 296.81C285.581 296.498 285.876 296.327 286.248 296.298C286.628 296.265 287.053 296.384 287.525 296.655C288.004 296.93 288.426 297.295 288.793 297.749C289.16 298.204 289.445 298.712 289.65 299.274C289.862 299.833 289.967 300.406 289.967 300.993C289.967 301.036 289.964 301.085 289.958 301.139C289.958 301.196 289.955 301.248 289.949 301.294L285.745 298.879V298.137L289.483 300.285L289.119 300.334C289.125 299.972 289.06 299.608 288.923 299.243C288.787 298.878 288.597 298.547 288.355 298.25C288.119 297.949 287.842 297.708 287.525 297.526C287.215 297.347 286.938 297.271 286.696 297.297C286.454 297.315 286.264 297.432 286.127 297.647C285.991 297.855 285.922 298.146 285.922 298.518V298.69C285.922 299.07 285.997 299.453 286.146 299.84C286.301 300.223 286.516 300.576 286.789 300.898C287.062 301.22 287.376 301.482 287.73 301.686C288.022 301.854 288.287 301.948 288.523 301.969C288.765 301.994 288.976 301.943 289.156 301.817L289.65 302.768C289.427 302.94 289.147 303.009 288.812 302.974C288.482 302.942 288.113 302.808 287.702 302.573Z" fill="#BA68C8"/>
<path d="M227.399 287.953V280.428L230.325 282.11C231.077 282.542 231.655 283.05 232.059 283.633C232.463 284.209 232.665 284.798 232.665 285.4C232.665 285.809 232.584 286.106 232.422 286.293C232.267 286.483 232.056 286.577 231.788 286.574C231.521 286.571 231.232 286.48 230.922 286.301L231.089 286.075C231.462 286.29 231.792 286.554 232.077 286.869C232.363 287.184 232.59 287.536 232.758 287.926C232.926 288.309 233.009 288.716 233.009 289.146C233.009 289.791 232.798 290.171 232.376 290.287C231.959 290.399 231.338 290.217 230.512 289.742L227.399 287.953ZM228.331 287.618L230.474 288.85C230.99 289.146 231.385 289.273 231.658 289.229C231.931 289.186 232.068 288.949 232.068 288.519C232.068 288.082 231.931 287.684 231.658 287.327C231.385 286.969 230.99 286.642 230.474 286.345L228.247 285.065V284.194L230.241 285.341C230.714 285.612 231.08 285.722 231.341 285.672C231.602 285.621 231.733 285.395 231.733 284.994C231.733 284.592 231.602 284.216 231.341 283.866C231.08 283.515 230.714 283.204 230.241 282.933L228.331 281.834V287.618ZM234.322 291.932V286.235L235.217 286.749V292.446L234.322 291.932ZM234.769 285.395C234.595 285.295 234.449 285.147 234.331 284.95C234.22 284.757 234.164 284.567 234.164 284.381C234.164 284.187 234.22 284.058 234.331 283.993C234.449 283.932 234.595 283.951 234.769 284.051C234.943 284.151 235.086 284.298 235.198 284.491C235.316 284.681 235.375 284.869 235.375 285.055C235.375 285.249 235.319 285.382 235.208 285.453C235.096 285.518 234.95 285.499 234.769 285.395ZM239.041 294.709C238.544 294.423 238.103 294.044 237.717 293.572C237.332 293.099 237.028 292.581 236.804 292.015C236.58 291.442 236.469 290.876 236.469 290.317C236.469 289.751 236.58 289.313 236.804 289.005C237.028 288.696 237.332 288.531 237.717 288.508C238.103 288.479 238.544 288.607 239.041 288.893C239.532 289.175 239.97 289.552 240.355 290.024C240.747 290.493 241.051 291.008 241.269 291.571C241.492 292.129 241.604 292.695 241.604 293.268C241.604 293.835 241.492 294.272 241.269 294.581C241.051 294.893 240.747 295.062 240.355 295.088C239.97 295.117 239.532 294.991 239.041 294.709ZM239.041 293.806C239.358 293.988 239.641 294.068 239.889 294.046C240.144 294.027 240.343 293.909 240.486 293.69C240.629 293.464 240.7 293.15 240.7 292.749C240.7 292.34 240.629 291.948 240.486 291.572C240.343 291.189 240.144 290.842 239.889 290.531C239.641 290.223 239.358 289.978 239.041 289.796C238.724 289.614 238.441 289.534 238.193 289.556C237.944 289.578 237.745 289.696 237.596 289.912C237.447 290.12 237.373 290.428 237.373 290.837C237.373 291.238 237.447 291.635 237.596 292.029C237.745 292.416 237.944 292.763 238.193 293.071C238.441 293.379 238.724 293.623 239.041 293.806ZM247.386 299.504C246.907 299.229 246.479 298.861 246.099 298.4C245.727 297.942 245.432 297.432 245.214 296.87C244.997 296.307 244.888 295.736 244.888 295.156C244.888 294.575 244.997 294.132 245.214 293.827C245.432 293.515 245.727 293.344 246.099 293.315C246.479 293.289 246.907 293.414 247.386 293.689C247.802 293.928 248.178 294.251 248.513 294.659C248.849 295.067 249.116 295.543 249.315 296.087C249.52 296.635 249.623 297.232 249.623 297.877C249.623 298.522 249.523 299.002 249.324 299.318C249.132 299.637 248.868 299.811 248.532 299.841C248.197 299.863 247.814 299.751 247.386 299.504ZM247.46 298.644C247.771 298.823 248.051 298.901 248.299 298.879C248.554 298.861 248.753 298.742 248.896 298.523C249.045 298.301 249.119 297.989 249.119 297.587C249.119 297.179 249.045 296.785 248.896 296.405C248.753 296.022 248.554 295.675 248.299 295.364C248.051 295.056 247.771 294.813 247.46 294.635C247.143 294.452 246.861 294.372 246.612 294.394C246.364 294.416 246.165 294.535 246.016 294.75C245.866 294.958 245.792 295.267 245.792 295.675C245.792 296.077 245.866 296.474 246.016 296.868C246.165 297.255 246.364 297.602 246.612 297.91C246.861 298.217 247.143 298.462 247.46 298.644ZM249.147 300.452V298.915L249.203 297.625L249.11 296.249V292.454L250.005 292.969V300.945L249.147 300.452ZM253.897 303.247C253.369 302.943 252.903 302.55 252.499 302.067C252.102 301.588 251.791 301.065 251.567 300.499C251.35 299.937 251.241 299.373 251.241 298.807C251.241 298.241 251.347 297.8 251.558 297.484C251.775 297.172 252.07 297.001 252.443 296.972C252.822 296.939 253.248 297.058 253.72 297.329C254.199 297.604 254.621 297.969 254.988 298.423C255.354 298.878 255.64 299.386 255.845 299.948C256.057 300.507 256.162 301.08 256.162 301.667C256.162 301.71 256.159 301.759 256.153 301.813C256.153 301.87 256.15 301.922 256.144 301.968L251.94 299.553V298.811L255.677 300.959L255.314 301.008C255.32 300.646 255.255 300.282 255.118 299.917C254.982 299.552 254.792 299.221 254.55 298.924C254.314 298.623 254.037 298.382 253.72 298.2C253.41 298.021 253.133 297.945 252.891 297.97C252.648 297.989 252.459 298.106 252.322 298.321C252.185 298.529 252.117 298.819 252.117 299.192V299.364C252.117 299.744 252.192 300.127 252.341 300.514C252.496 300.897 252.71 301.25 252.984 301.572C253.257 301.893 253.571 302.156 253.925 302.36C254.217 302.528 254.481 302.622 254.717 302.643C254.96 302.668 255.171 302.617 255.351 302.491L255.845 303.442C255.622 303.614 255.342 303.683 255.006 303.648C254.677 303.616 254.307 303.482 253.897 303.247ZM258.821 306.077C258.411 305.841 258.02 305.551 257.647 305.208C257.28 304.868 256.991 304.545 256.78 304.237L257.153 303.634C257.364 303.921 257.625 304.21 257.936 304.503C258.247 304.797 258.563 305.036 258.887 305.222C259.303 305.461 259.601 305.564 259.781 305.532C259.968 305.503 260.061 305.366 260.061 305.123C260.061 304.944 260.005 304.772 259.893 304.607C259.781 304.442 259.632 304.282 259.446 304.124C259.266 303.971 259.064 303.811 258.84 303.647C258.616 303.476 258.393 303.297 258.169 303.111C257.945 302.918 257.74 302.714 257.554 302.499C257.367 302.278 257.218 302.038 257.106 301.78C256.994 301.515 256.939 301.218 256.939 300.888C256.939 300.544 257.022 300.291 257.19 300.13C257.358 299.968 257.594 299.907 257.899 299.946C258.209 299.981 258.576 300.12 258.998 300.363C259.321 300.548 259.648 300.782 259.977 301.065C260.313 301.344 260.586 301.626 260.797 301.912L260.415 302.51C260.191 302.209 259.958 301.957 259.716 301.753C259.474 301.55 259.231 301.378 258.989 301.239C258.598 301.014 258.306 300.921 258.113 300.961C257.92 300.994 257.824 301.125 257.824 301.354C257.824 301.547 257.88 301.73 257.992 301.902C258.11 302.07 258.259 302.235 258.439 302.395C258.626 302.56 258.831 302.728 259.054 302.9C259.278 303.064 259.502 303.243 259.725 303.436C259.949 303.622 260.151 303.82 260.331 304.031C260.518 304.246 260.667 304.482 260.779 304.74C260.897 305.001 260.956 305.293 260.956 305.616C260.956 305.96 260.869 306.207 260.695 306.358C260.521 306.509 260.275 306.565 259.958 306.526C259.641 306.48 259.262 306.33 258.821 306.077ZM264.227 309.183C263.724 308.894 263.273 308.51 262.875 308.03C262.484 307.555 262.176 307.034 261.953 306.468C261.729 305.902 261.617 305.336 261.617 304.77C261.617 304.204 261.729 303.767 261.953 303.458C262.176 303.149 262.484 302.986 262.875 302.967C263.273 302.945 263.724 303.078 264.227 303.368C264.674 303.625 265.072 303.957 265.42 304.365C265.774 304.769 266.047 305.227 266.24 305.739L265.56 305.854C265.398 305.481 265.199 305.163 264.963 304.898C264.733 304.63 264.485 304.419 264.218 304.265C263.894 304.079 263.606 303.996 263.351 304.014C263.096 304.033 262.894 304.15 262.745 304.365C262.596 304.573 262.521 304.881 262.521 305.29C262.521 305.698 262.596 306.096 262.745 306.483C262.894 306.869 263.096 307.218 263.351 307.53C263.606 307.841 263.894 308.089 264.218 308.275C264.485 308.428 264.733 308.507 264.963 308.51C265.199 308.509 265.398 308.416 265.56 308.229L266.24 309.115C266.047 309.398 265.774 309.546 265.42 309.557C265.072 309.565 264.674 309.44 264.227 309.183ZM267.399 310.942V305.244L268.256 305.737V307.285L268.172 306.85C268.309 306.534 268.539 306.365 268.862 306.343C269.185 306.321 269.583 306.446 270.055 306.717V307.717C270.018 307.688 269.98 307.663 269.943 307.642C269.912 307.624 269.881 307.606 269.85 307.588C269.371 307.313 268.992 307.26 268.713 307.429C268.433 307.598 268.293 307.994 268.293 308.618V311.456L267.399 310.942ZM271.158 313.102V307.404L272.052 307.919V313.616L271.158 313.102ZM271.605 306.565C271.431 306.465 271.285 306.317 271.167 306.12C271.055 305.927 270.999 305.737 270.999 305.55C270.999 305.357 271.055 305.228 271.167 305.163C271.285 305.102 271.431 305.121 271.605 305.221C271.779 305.321 271.922 305.468 272.034 305.661C272.152 305.851 272.211 306.039 272.211 306.225C272.211 306.419 272.155 306.551 272.043 306.623C271.931 306.688 271.785 306.669 271.605 306.565ZM276.38 316.168C275.97 315.932 275.594 315.608 275.252 315.197C274.917 314.782 274.646 314.301 274.441 313.753C274.242 313.209 274.143 312.614 274.143 311.969C274.143 311.324 274.239 310.842 274.432 310.522C274.631 310.207 274.898 310.038 275.233 310.016C275.575 309.997 275.957 310.109 276.38 310.352C276.864 310.631 277.293 310.999 277.666 311.457C278.039 311.915 278.334 312.425 278.551 312.987C278.769 313.542 278.878 314.11 278.878 314.69C278.878 315.271 278.769 315.717 278.551 316.029C278.334 316.341 278.039 316.512 277.666 316.541C277.293 316.571 276.864 316.446 276.38 316.168ZM273.761 316.684V308.901L274.618 309.393V310.931L274.562 312.221L274.656 313.596V317.198L273.761 316.684ZM276.305 315.222C276.622 315.404 276.905 315.484 277.153 315.462C277.408 315.444 277.607 315.325 277.75 315.106C277.899 314.884 277.974 314.572 277.974 314.17C277.974 313.762 277.899 313.368 277.75 312.988C277.607 312.605 277.408 312.258 277.153 311.947C276.905 311.639 276.622 311.394 276.305 311.212C275.995 311.034 275.712 310.953 275.457 310.972C275.209 310.994 275.01 311.113 274.861 311.328C274.718 311.54 274.646 311.85 274.646 312.258C274.646 312.659 274.718 313.055 274.861 313.446C275.01 313.832 275.209 314.179 275.457 314.487C275.712 314.798 275.995 315.043 276.305 315.222ZM281.81 319.289C281.313 319.003 280.928 318.627 280.655 318.162C280.381 317.697 280.244 317.178 280.244 316.604V311.38L281.139 311.894V317.075C281.139 317.384 281.204 317.658 281.335 317.897C281.472 318.141 281.664 318.334 281.913 318.477C282.192 318.638 282.425 318.682 282.612 318.61L282.891 319.512C282.755 319.57 282.59 319.576 282.397 319.529C282.211 319.487 282.015 319.406 281.81 319.289ZM279.406 312.994V312.145L282.556 313.955V314.804L279.406 312.994ZM283.973 320.467V314.77L284.868 315.284V320.981L283.973 320.467ZM284.421 313.93C284.247 313.83 284.101 313.682 283.982 313.485C283.871 313.292 283.815 313.102 283.815 312.916C283.815 312.722 283.871 312.593 283.982 312.528C284.101 312.467 284.247 312.487 284.421 312.587C284.595 312.687 284.737 312.833 284.849 313.026C284.967 313.216 285.026 313.404 285.026 313.59C285.026 313.784 284.97 313.917 284.859 313.989C284.747 314.053 284.601 314.034 284.421 313.93ZM288.692 323.244C288.195 322.958 287.754 322.579 287.369 322.107C286.983 321.635 286.679 321.116 286.455 320.55C286.231 319.977 286.12 319.411 286.12 318.852C286.12 318.286 286.231 317.848 286.455 317.54C286.679 317.231 286.983 317.066 287.369 317.044C287.754 317.014 288.195 317.142 288.692 317.428C289.183 317.71 289.621 318.087 290.006 318.559C290.398 319.028 290.702 319.544 290.92 320.106C291.143 320.664 291.255 321.23 291.255 321.804C291.255 322.37 291.143 322.807 290.92 323.116C290.702 323.428 290.398 323.597 290.006 323.623C289.621 323.652 289.183 323.526 288.692 323.244ZM288.692 322.341C289.009 322.523 289.292 322.603 289.54 322.581C289.795 322.562 289.994 322.444 290.137 322.225C290.28 321.999 290.351 321.685 290.351 321.284C290.351 320.875 290.28 320.483 290.137 320.107C289.994 319.724 289.795 319.377 289.54 319.066C289.292 318.758 289.009 318.513 288.692 318.331C288.375 318.149 288.092 318.069 287.844 318.091C287.595 318.113 287.397 318.231 287.247 318.447C287.098 318.655 287.024 318.963 287.024 319.372C287.024 319.773 287.098 320.171 287.247 320.564C287.397 320.951 287.595 321.298 287.844 321.606C288.092 321.914 288.375 322.159 288.692 322.341ZM295.13 321.128C295.534 321.36 295.888 321.653 296.193 322.007C296.503 322.365 296.746 322.777 296.92 323.242C297.094 323.708 297.181 324.22 297.181 324.779V328.058L296.286 327.544V324.383C296.286 323.831 296.168 323.348 295.932 322.932C295.702 322.521 295.376 322.194 294.953 321.951C294.636 321.769 294.36 321.681 294.124 321.689C293.888 321.697 293.704 321.803 293.574 322.007C293.449 322.215 293.387 322.527 293.387 322.943V325.878L292.493 325.363V319.666L293.35 320.159V321.696L293.21 321.207C293.372 320.927 293.62 320.78 293.956 320.765C294.291 320.75 294.683 320.871 295.13 321.128Z" fill="#455A64"/>
<path d="M140.4 361.818C140.4 361.818 143.64 361.108 143.49 364.908C143.33 368.908 146.28 374.298 139.03 376.238C135.101 377.339 131.468 379.307 128.4 381.998C125.76 384.068 118.63 386.098 113.26 383.698C103.39 379.278 116.82 373.938 116.82 373.938L140.4 361.818Z" fill="#263238"/>
<path d="M178.62 361.87C178.62 361.87 180.62 360.29 181.7 368.48C182.78 376.67 191.6 397.36 177.63 397.36C170.46 397.36 169.83 386.2 169.86 378.59C169.89 370.98 169.59 363.7 170.58 362.43C171.57 361.16 178.62 361.87 178.62 361.87Z" fill="#263238"/>
<path d="M147.75 293.639C147.159 296.645 146.824 299.696 146.75 302.759C146.75 306.619 147.42 317.059 146.75 323.829C146.08 330.599 142.25 356.589 141.98 358.339C141.877 359.705 141.944 361.079 142.18 362.429C142.231 362.753 142.191 363.085 142.066 363.389C141.941 363.692 141.735 363.955 141.47 364.149C139.34 365.739 133.97 369.769 132.18 371.229C129.92 373.079 123.32 381.689 116.83 373.959C116.83 373.959 131.13 364.299 131.83 360.089C132.53 355.879 129.66 319.399 128.83 315.089C128 310.779 127.83 284.789 127.83 284.789L147.75 293.639Z" fill="#FFA8A7"/>
<path d="M176.75 290V298C176.75 298.844 176.82 299.687 176.96 300.52C177.67 304.78 179.96 319.39 180.21 331.07C180.49 344.91 180.3 357.23 179.71 362.4C179.12 367.57 182.2 377.53 182.47 379.05C183.08 382.48 182.56 384.67 177.47 384.72C174.27 384.72 172.13 384.12 171.86 379.17C171.59 374.22 171.03 364.71 171.03 364.71C171.03 364.71 164.12 332.22 162.91 326.81C161.7 321.4 155.51 295.43 155.11 292.81L176.75 290Z" fill="#FFA8A7"/>
<path d="M132 149.737C132 149.737 129 151.277 131.43 158.427C133.86 165.577 128.31 169.147 126.86 166.337C126.86 166.337 126.96 170.877 132.46 170.877C137.96 170.877 138.95 166.317 138.95 166.317C138.95 166.317 140.95 168.487 140.95 174.587C140.95 180.687 135.13 203.587 155.51 203.587C175.89 203.587 175.51 186.227 175.51 186.227C175.51 186.227 180.74 186.317 180.74 178.507C180.74 178.507 172.8 183.437 172.8 172.417C172.8 161.397 174.61 147.417 166.2 147.417C166.2 147.417 169.09 141.417 163.34 137.597C157.59 133.777 140.34 138.977 140.34 138.977C140.34 138.977 135.15 135.867 131.43 139.547C126.9 144.087 132 149.737 132 149.737Z" fill="#263238"/>
<path d="M141.94 181.83C137.576 181.938 133.353 183.395 129.85 186C123.91 190.4 113.48 198 113.48 198C113.48 198 101.75 182.77 99.4001 178L91.8301 183.56C91.8301 183.56 103.24 213.5 111.55 213.5C117.74 213.5 135.86 199.83 135.86 199.83L141.94 181.83Z" fill="#FFA8A7"/>
<path d="M100.66 180.18C101.477 178.041 101.53 175.685 100.81 173.51C100.47 172.4 101.41 169.2 100.81 168.73C100.21 168.26 97.9701 168.3 97.3601 172.66C96.23 171.064 95.4279 169.259 95.0001 167.35C94.3901 164.35 93.8701 160.42 90.6201 162.74C87.3701 165.06 83.3801 170.11 86.4601 175.09C89.4601 179.9 91.7901 183.54 91.7901 183.54L100.66 180.18Z" fill="#FFA8A7"/>
<path d="M172.26 234.805C172.26 234.805 174.65 240.065 176.05 251.205C177.45 262.345 176.75 290.025 176.75 290.025C168.535 293.556 159.692 295.393 150.75 295.425C142.124 295.49 133.727 292.644 126.92 287.345C126.92 287.345 127.18 288.515 127.18 268.435C127.18 248.355 131.49 236.435 131.49 236.435L172.26 234.805Z" fill="#263238"/>
<path d="M160.13 182.369L165.91 183.959C166.259 184.054 166.57 184.255 166.799 184.534C167.029 184.814 167.165 185.158 167.19 185.519L168.63 206.389L165.36 217.999C165.072 219.023 165.019 220.1 165.206 221.148C165.393 222.195 165.815 223.187 166.44 224.049C168.847 227.373 170.804 231.001 172.26 234.839C172.26 234.839 165.52 243.369 149.99 243.369C139.23 243.369 131.51 236.459 131.51 236.459C133.047 231.885 134.136 227.173 134.76 222.389C134.905 219.689 134.591 216.984 133.83 214.389C133.83 214.389 127.47 211.389 128.64 202.869C129.81 194.349 141.94 181.869 141.94 181.869L147.54 181.719L160.13 182.369Z" fill="black"/>
<path d="M160.13 182.37L144.13 192.77C143.993 192.854 143.833 192.893 143.672 192.881C143.512 192.868 143.36 192.805 143.237 192.701C143.115 192.596 143.029 192.456 142.992 192.299C142.955 192.143 142.968 191.978 143.03 191.83L147.59 181.68V165H160.18L160.13 182.37Z" fill="#FFA8A7"/>
<path d="M147.54 180.23C150.112 179.277 152.464 177.81 154.451 175.919C156.438 174.028 158.02 171.752 159.1 169.23V165H147.54V180.23Z" fill="#F28F8F"/>
<path d="M144.6 144.357C144.6 144.357 133.09 145.027 134.51 164.717C135.17 173.817 137.3 178.537 144.31 178.187C152.25 177.797 163.53 172.337 162.79 156.767C162.05 141.197 144.6 144.357 144.6 144.357Z" fill="#FFA8A7"/>
<path d="M160.13 164.996C160.13 164.996 156.97 165.826 156.97 161.306C156.97 161.306 142.97 160.356 139.85 146.436C139.85 146.436 141.23 142.266 149.99 142.266C158.75 142.266 166.11 150.006 163.82 160.656L160.13 164.996Z" fill="#263238"/>
<path d="M142.95 160.766V167.536L138.99 166.316L142.95 160.766Z" fill="#F28F8F"/>
<path d="M147.54 162.869C148.302 162.869 148.92 162.252 148.92 161.489C148.92 160.727 148.302 160.109 147.54 160.109C146.778 160.109 146.16 160.727 146.16 161.489C146.16 162.252 146.778 162.869 147.54 162.869Z" fill="#263238"/>
<path d="M139.85 160.528C139.85 160.801 139.769 161.068 139.617 161.295C139.466 161.522 139.25 161.699 138.998 161.803C138.746 161.908 138.468 161.935 138.201 161.882C137.933 161.829 137.687 161.697 137.494 161.504C137.301 161.311 137.17 161.065 137.116 160.798C137.063 160.53 137.09 160.252 137.195 160C137.299 159.748 137.476 159.533 137.703 159.381C137.93 159.229 138.197 159.148 138.47 159.148C138.836 159.148 139.187 159.294 139.446 159.553C139.704 159.811 139.85 160.162 139.85 160.528Z" fill="#263238"/>
<path d="M136.79 157.658L139.48 156.048C139.48 156.048 138.48 154.978 137.42 155.618C137.123 155.856 136.904 156.178 136.792 156.541C136.679 156.905 136.679 157.294 136.79 157.658Z" fill="#263238"/>
<path d="M143.29 169.776C144.862 169.89 146.426 169.471 147.73 168.586C147.73 168.586 148.04 170.926 146.08 171.376C145.502 171.47 144.909 171.363 144.401 171.071C143.893 170.78 143.501 170.322 143.29 169.776Z" fill="#F28F8F"/>
<path d="M159 165.508C158.953 164.362 159.165 163.22 159.62 162.168C159.841 161.511 160.25 160.934 160.795 160.507C161.341 160.081 162 159.824 162.69 159.768C166.22 159.668 166.69 163.078 166.69 164.288C166.57 167.468 163.99 170.908 159.19 171.038L159 165.508Z" fill="#FFA8A7"/>
<path d="M166 184C166 184 160.22 190.82 168.66 206.41C177.1 222 177.79 223.3 177.79 223.3C177.79 223.3 172.02 240.18 169.79 248.87L178.42 253.58C178.42 253.58 187.56 234.46 189.73 230.29C191.9 226.12 191.97 222.9 189.73 217.2C187.49 211.5 180.84 197.31 179.1 193.2C177.36 189.09 171.81 185.58 166 184Z" fill="#FFA8A7"/>
<path d="M169.79 248.844C169.79 248.844 167.55 248.784 165.05 251.974C164.34 252.884 161.18 253.974 161.05 254.674C160.92 255.374 162.34 257.244 166.26 255.234C165.603 257.084 164.583 258.783 163.26 260.234C161.17 262.444 158.26 265.134 162.01 266.464C165.76 267.794 172.2 268.164 174.51 262.784C176.75 257.594 178.37 253.564 178.37 253.564L169.79 248.844Z" fill="#FFA8A7"/>
<path opacity="0.2" d="M159.33 211.125C159.33 211.125 153.99 218.125 145.33 214.975C145.34 214.995 154.13 221.335 159.33 211.125Z" fill="black"/>
<path d="M126 353L126.905 264L176.214 280.5C177.402 291.227 179.438 317.04 179.438 318.266C179.438 319.492 181.812 341.933 183 353L163.095 349.5H145.452L126 353Z" fill="#273339"/>
</svg>
