<svg width="546" height="286" viewBox="0 0 546 286" fill="none" xmlns="http://www.w3.org/2000/svg">
<rect width="546" height="286" rx="20" fill="url(#paint0_linear_1_597)"/>
<path fill-rule="evenodd" clip-rule="evenodd" d="M476.895 269.019C495.178 269.019 509.999 254.489 509.999 236.564C509.999 218.64 495.178 204.11 476.895 204.11C468.701 204.11 461.202 207.028 455.422 211.863C449.641 207.028 442.143 204.11 433.949 204.11C415.666 204.11 400.845 218.64 400.845 236.565C400.845 254.489 415.666 269.019 433.949 269.019C442.143 269.019 449.641 266.101 455.422 261.266C461.203 266.101 468.701 269.019 476.895 269.019Z" fill="#ED0006"/>
<path fill-rule="evenodd" clip-rule="evenodd" d="M455.422 261.266C462.539 255.313 467.052 246.455 467.052 236.564C467.052 226.673 462.539 217.816 455.422 211.863C461.202 207.028 468.701 204.11 476.895 204.11C495.178 204.11 509.999 218.64 509.999 236.564C509.999 254.489 495.178 269.019 476.895 269.019C468.701 269.019 461.202 266.1 455.422 261.266Z" fill="#F9A000"/>
<path fill-rule="evenodd" clip-rule="evenodd" d="M455.422 261.264C462.54 255.312 467.053 246.454 467.053 236.563C467.053 226.672 462.54 217.815 455.422 211.862C448.305 217.815 443.792 226.672 443.792 236.563C443.792 246.454 448.305 255.312 455.422 261.264Z" fill="#FF5E00"/>
<path d="M447.727 137.32L446.895 140.485L445.769 145.168L444.66 140.485L443.829 137.32H441.472L440.623 140.485L439.515 145.204L438.406 140.485L437.557 137.32H435.616L438.337 147.381H440.623L441.542 143.997L442.495 139.406H442.806L443.759 143.997L444.678 147.381H446.965L449.685 137.32H447.727Z" fill="white"/>
<path d="M455.419 137.101C452.699 137.101 450.481 139.314 450.481 142.351C450.481 145.351 452.664 147.601 455.419 147.601C458.191 147.601 460.357 145.369 460.357 142.351C460.357 139.314 458.157 137.101 455.419 137.101ZM455.419 139.077C457.065 139.077 458.382 140.412 458.382 142.351C458.382 144.29 457.082 145.625 455.419 145.625C453.756 145.625 452.456 144.29 452.456 142.351C452.456 140.412 453.773 139.077 455.419 139.077Z" fill="white"/>
<path d="M467.444 137.101C465.936 137.101 464.845 137.906 464.273 139.314V137.32H462.315V147.381H464.273V142.772C464.273 140.284 465.642 139.223 467.426 139.223C467.686 139.223 467.842 139.241 468.015 139.259V137.156C467.877 137.119 467.686 137.101 467.444 137.101Z" fill="white"/>
<path d="M469.591 147.381H471.566V133.296H469.591V147.381Z" fill="white"/>
<path d="M481.34 133.296V139.04C480.63 137.888 479.486 137.101 477.979 137.101C475.484 137.101 473.596 139.278 473.596 142.351C473.596 145.424 475.449 147.601 477.996 147.601C479.486 147.601 480.63 146.832 481.34 145.698V147.381H483.298V133.296H481.34ZM478.412 145.625C476.766 145.625 475.571 144.29 475.571 142.351C475.571 140.43 476.749 139.077 478.412 139.077C480.075 139.077 481.34 140.43 481.34 142.351C481.34 144.29 480.075 145.625 478.412 145.625Z" fill="white"/>
<g clip-path="url(#clip0_1_597)">
<path fill-rule="evenodd" clip-rule="evenodd" d="M500.115 16.467C501.185 15.8692 502.537 16.2506 503.135 17.3188C506.729 23.7357 508.619 31.0097 508.619 38.4103C508.619 45.8109 506.729 53.0849 503.135 59.5018C502.537 60.57 501.185 60.9514 500.115 60.3536C499.046 59.7559 498.664 58.4053 499.263 57.3371C502.484 51.5869 504.182 45.059 504.182 38.4103C504.182 31.7615 502.484 25.2336 499.263 19.4835C498.664 18.4152 499.046 17.0647 500.115 16.467ZM491.574 20.869C492.643 20.2712 493.995 20.6526 494.593 21.7208C497.438 26.7993 498.933 32.5551 498.933 38.4103C498.933 44.2655 497.438 50.0212 494.593 55.0998C493.995 56.168 492.643 56.5493 491.574 55.9516C490.504 55.3538 490.123 54.0033 490.721 52.9351C493.192 48.5233 494.496 43.5136 494.496 38.4103C494.496 33.307 493.192 28.2973 490.721 23.8855C490.123 22.8173 490.504 21.4667 491.574 20.869ZM483.429 24.906C484.501 24.313 485.851 24.7005 486.445 25.7714C488.551 29.5711 489.656 33.8746 489.656 38.2502C489.656 42.6259 488.551 46.9293 486.445 50.7291C485.851 51.7999 484.501 52.1874 483.429 51.5944C482.357 51.0015 481.969 49.6527 482.563 48.5818C484.3 45.4463 485.219 41.8827 485.219 38.2502C485.219 34.6177 484.3 31.0542 482.563 27.9186C481.969 26.8477 482.357 25.4989 483.429 24.906ZM475.154 29.3405C476.185 28.6804 477.558 28.9809 478.218 30.0117C479.83 32.5263 480.688 35.4364 480.688 38.4103C480.688 41.3842 479.83 44.2942 478.218 46.8089C477.558 47.8397 476.185 48.1402 475.154 47.48C474.122 46.8199 473.821 45.4491 474.482 44.4183C475.64 42.6116 476.251 40.5301 476.251 38.4103C476.251 36.2904 475.64 34.209 474.482 32.4023C473.821 31.3715 474.122 30.0007 475.154 29.3405Z" fill="white"/>
</g>
<g filter="url(#filter0_di_1_597)">
<path d="M40.0267 257.197H38.6999C38.4314 257.197 38.2379 257.138 38.1195 257.022C38.0089 256.906 37.9536 256.701 37.9536 256.406C37.9536 256.112 38.0089 255.907 38.1195 255.791C38.2379 255.674 38.4314 255.616 38.6999 255.616H44.2795C45.2114 255.616 46.0604 255.775 46.8264 256.093C47.5925 256.41 48.248 256.867 48.7929 257.464C49.3378 258.053 49.7603 258.773 50.0604 259.625C50.3605 260.477 50.5106 261.442 50.5106 262.519C50.5106 263.595 50.3605 264.56 50.0604 265.412C49.7603 266.264 49.3378 266.989 48.7929 267.585C48.248 268.174 47.5925 268.627 46.8264 268.945C46.0604 269.254 45.2114 269.409 44.2795 269.409H38.6999C38.4314 269.409 38.2379 269.351 38.1195 269.235C38.0089 269.119 37.9536 268.914 37.9536 268.619C37.9536 268.325 38.0089 268.12 38.1195 268.003C38.2379 267.887 38.4314 267.829 38.6999 267.829H40.0267V257.197ZM44.007 267.829C44.7099 267.829 45.3456 267.717 45.9143 267.492C46.4829 267.26 46.9686 266.923 47.3714 266.481C47.7741 266.032 48.0861 265.478 48.3072 264.819C48.5283 264.153 48.6389 263.386 48.6389 262.519C48.6389 261.651 48.5283 260.888 48.3072 260.229C48.0861 259.563 47.7741 259.005 47.3714 258.556C46.9686 258.107 46.4829 257.77 45.9143 257.545C45.3456 257.313 44.7099 257.197 44.007 257.197H41.8036V267.829H44.007Z" fill="url(#paint1_linear_1_597)" shape-rendering="crispEdges"/>
<path d="M54.0512 262.519C54.0512 261.442 54.2012 260.466 54.5014 259.59C54.8015 258.707 55.224 257.952 55.7689 257.324C56.3138 256.697 56.9693 256.213 57.7354 255.872C58.5014 255.531 59.3504 255.361 60.2823 255.361C61.2142 255.361 62.0632 255.531 62.8292 255.872C63.5953 256.213 64.2508 256.697 64.7957 257.324C65.3406 257.952 65.7631 258.707 66.0633 259.59C66.3634 260.466 66.5134 261.442 66.5134 262.519C66.5134 263.595 66.3634 264.575 66.0633 265.459C65.7631 266.334 65.3406 267.085 64.7957 267.713C64.2508 268.333 63.5953 268.813 62.8292 269.154C62.0632 269.495 61.2142 269.665 60.2823 269.665C59.3504 269.665 58.5014 269.495 57.7354 269.154C56.9693 268.813 56.3138 268.333 55.7689 267.713C55.224 267.085 54.8015 266.334 54.5014 265.459C54.2012 264.575 54.0512 263.595 54.0512 262.519ZM55.9229 262.519C55.9229 263.355 56.0256 264.111 56.2309 264.785C56.4441 265.451 56.7403 266.02 57.1194 266.493C57.4984 266.958 57.9565 267.318 58.4935 267.573C59.0306 267.821 59.6268 267.945 60.2823 267.945C60.9378 267.945 61.5341 267.821 62.0711 267.573C62.6081 267.318 63.0662 266.958 63.4452 266.493C63.8243 266.02 64.1165 265.451 64.3219 264.785C64.5351 264.111 64.6417 263.355 64.6417 262.519C64.6417 261.682 64.5351 260.931 64.3219 260.264C64.1165 259.59 63.8243 259.017 63.4452 258.545C63.0662 258.072 62.6081 257.712 62.0711 257.464C61.5341 257.208 60.9378 257.08 60.2823 257.08C59.6268 257.08 59.0306 257.208 58.4935 257.464C57.9565 257.712 57.4984 258.072 57.1194 258.545C56.7403 259.017 56.4441 259.59 56.2309 260.264C56.0256 260.931 55.9229 261.682 55.9229 262.519Z" fill="url(#paint2_linear_1_597)" shape-rendering="crispEdges"/>
<path d="M71.4992 257.197H70.5871C70.3186 257.197 70.1251 257.138 70.0066 257.022C69.8961 256.906 69.8408 256.701 69.8408 256.406C69.8408 256.112 69.8961 255.907 70.0066 255.791C70.1251 255.674 70.3186 255.616 70.5871 255.616H73.2406C73.5644 255.616 73.7895 255.725 73.9159 255.942L79.531 265.796V257.197H78.145C77.8764 257.197 77.683 257.138 77.5645 257.022C77.4539 256.906 77.3987 256.701 77.3987 256.406C77.3987 256.112 77.4539 255.907 77.5645 255.791C77.683 255.674 77.8764 255.616 78.145 255.616H81.9831C82.2517 255.616 82.4412 255.674 82.5518 255.791C82.6702 255.907 82.7295 256.112 82.7295 256.406C82.7295 256.701 82.6702 256.906 82.5518 257.022C82.4412 257.138 82.2517 257.197 81.9831 257.197H81.3079V268.979C81.3079 269.181 81.2368 269.344 81.0947 269.467C80.9525 269.599 80.7274 269.665 80.4194 269.665C80.1904 269.665 79.9969 269.607 79.839 269.491C79.681 269.382 79.5428 269.227 79.4244 269.026L73.2762 258.254V267.829H74.8991C75.1676 267.829 75.3572 267.887 75.4677 268.003C75.5862 268.12 75.6454 268.325 75.6454 268.619C75.6454 268.914 75.5862 269.119 75.4677 269.235C75.3572 269.351 75.1676 269.409 74.8991 269.409H70.7055C70.437 269.409 70.2435 269.351 70.1251 269.235C70.0145 269.119 69.9592 268.914 69.9592 268.619C69.9592 268.325 70.0145 268.12 70.1251 268.003C70.2435 267.887 70.437 267.829 70.7055 267.829H71.4992V257.197Z" fill="url(#paint3_linear_1_597)" shape-rendering="crispEdges"/>
<path d="M89.8358 267.829C90.1043 267.829 90.2938 267.887 90.4044 268.003C90.5228 268.12 90.5821 268.325 90.5821 268.619C90.5821 268.914 90.5228 269.119 90.4044 269.235C90.2938 269.351 90.1043 269.409 89.8358 269.409H85.8791C85.6106 269.409 85.4171 269.351 85.2987 269.235C85.1881 269.119 85.1328 268.914 85.1328 268.619C85.1328 268.325 85.1881 268.12 85.2987 268.003C85.4171 267.887 85.6106 267.829 85.8791 267.829H86.5425L90.4636 257.197H88.2484C87.9799 257.197 87.7864 257.138 87.6679 257.022C87.5573 256.906 87.5021 256.701 87.5021 256.406C87.5021 256.112 87.5573 255.907 87.6679 255.791C87.7864 255.674 87.9799 255.616 88.2484 255.616H92.5959C92.9118 255.616 93.1645 255.674 93.3541 255.791C93.5515 255.907 93.6976 256.1 93.7924 256.372L97.9741 267.829H98.6967C98.9652 267.829 99.1548 267.887 99.2653 268.003C99.3838 268.12 99.443 268.325 99.443 268.619C99.443 268.914 99.3838 269.119 99.2653 269.235C99.1548 269.351 98.9652 269.409 98.6967 269.409H94.5032C94.2346 269.409 94.0412 269.351 93.9227 269.235C93.8121 269.119 93.7569 268.914 93.7569 268.619C93.7569 268.325 93.8121 268.12 93.9227 268.003C94.0412 267.887 94.2346 267.829 94.5032 267.829H96.1024L95.131 265.063H89.3856L88.4024 267.829H89.8358ZM89.9424 263.483H94.5861L92.3827 257.197H92.1576L89.9424 263.483Z" fill="url(#paint4_linear_1_597)" shape-rendering="crispEdges"/>
<path d="M104.63 257.197H102.711C102.443 257.197 102.249 257.138 102.131 257.022C102.02 256.906 101.965 256.701 101.965 256.406C101.965 256.112 102.02 255.907 102.131 255.791C102.249 255.674 102.443 255.616 102.711 255.616H109.274C109.542 255.616 109.732 255.674 109.843 255.791C109.961 255.907 110.02 256.112 110.02 256.406C110.02 256.701 109.961 256.906 109.843 257.022C109.732 257.138 109.542 257.197 109.274 257.197H106.407V267.829H112.271V264.006C112.271 263.735 112.334 263.541 112.461 263.425C112.595 263.309 112.828 263.251 113.16 263.251C113.491 263.251 113.72 263.309 113.847 263.425C113.981 263.541 114.048 263.735 114.048 264.006V268.619C114.048 268.914 113.989 269.119 113.87 269.235C113.76 269.351 113.57 269.409 113.302 269.409H102.711C102.443 269.409 102.249 269.351 102.131 269.235C102.02 269.119 101.965 268.914 101.965 268.619C101.965 268.325 102.02 268.12 102.131 268.003C102.249 267.887 102.443 267.829 102.711 267.829H104.63V257.197Z" fill="url(#paint5_linear_1_597)" shape-rendering="crispEdges"/>
<path d="M120.041 257.197H118.714C118.445 257.197 118.252 257.138 118.134 257.022C118.023 256.906 117.968 256.701 117.968 256.406C117.968 256.112 118.023 255.907 118.134 255.791C118.252 255.674 118.445 255.616 118.714 255.616H124.294C125.225 255.616 126.074 255.775 126.84 256.093C127.607 256.41 128.262 256.867 128.807 257.464C129.352 258.053 129.774 258.773 130.074 259.625C130.375 260.477 130.525 261.442 130.525 262.519C130.525 263.595 130.375 264.56 130.074 265.412C129.774 266.264 129.352 266.989 128.807 267.585C128.262 268.174 127.607 268.627 126.84 268.945C126.074 269.254 125.225 269.409 124.294 269.409H118.714C118.445 269.409 118.252 269.351 118.134 269.235C118.023 269.119 117.968 268.914 117.968 268.619C117.968 268.325 118.023 268.12 118.134 268.003C118.252 267.887 118.445 267.829 118.714 267.829H120.041V257.197ZM124.021 267.829C124.724 267.829 125.36 267.717 125.928 267.492C126.497 267.26 126.983 266.923 127.385 266.481C127.788 266.032 128.1 265.478 128.321 264.819C128.542 264.153 128.653 263.386 128.653 262.519C128.653 261.651 128.542 260.888 128.321 260.229C128.1 259.563 127.788 259.005 127.385 258.556C126.983 258.107 126.497 257.77 125.928 257.545C125.36 257.313 124.724 257.197 124.021 257.197H121.818V267.829H124.021Z" fill="url(#paint6_linear_1_597)" shape-rendering="crispEdges"/>
<path d="M152.283 257.197H150.72C150.451 257.197 150.258 257.138 150.139 257.022C150.029 256.906 149.973 256.701 149.973 256.406C149.973 256.112 150.029 255.907 150.139 255.791C150.258 255.674 150.451 255.616 150.72 255.616H161.429C161.697 255.616 161.887 255.674 161.997 255.791C162.116 255.907 162.175 256.112 162.175 256.406V259.474C162.175 259.745 162.108 259.939 161.973 260.055C161.847 260.171 161.618 260.229 161.286 260.229C160.955 260.229 160.722 260.171 160.587 260.055C160.461 259.939 160.398 259.745 160.398 259.474V257.197H154.06V261.74H157.022V260.683C157.022 260.411 157.085 260.218 157.211 260.102C157.346 259.985 157.579 259.927 157.91 259.927C158.242 259.927 158.471 259.985 158.597 260.102C158.732 260.218 158.799 260.411 158.799 260.683V264.378C158.799 264.649 158.732 264.843 158.597 264.959C158.471 265.075 158.242 265.133 157.91 265.133C157.579 265.133 157.346 265.075 157.211 264.959C157.085 264.843 157.022 264.649 157.022 264.378V263.32H154.06V267.829H156.809C157.077 267.829 157.267 267.887 157.377 268.003C157.496 268.12 157.555 268.325 157.555 268.619C157.555 268.914 157.496 269.119 157.377 269.235C157.267 269.351 157.077 269.409 156.809 269.409H150.72C150.451 269.409 150.258 269.351 150.139 269.235C150.029 269.119 149.973 268.914 149.973 268.619C149.973 268.325 150.029 268.12 150.139 268.003C150.258 267.887 150.451 267.829 150.72 267.829H152.283V257.197Z" fill="url(#paint7_linear_1_597)" shape-rendering="crispEdges"/>
<path d="M168.641 257.197H166.722C166.454 257.197 166.26 257.138 166.142 257.022C166.031 256.906 165.976 256.701 165.976 256.406C165.976 256.112 166.031 255.907 166.142 255.791C166.26 255.674 166.454 255.616 166.722 255.616H173.285C173.554 255.616 173.743 255.674 173.854 255.791C173.972 255.907 174.032 256.112 174.032 256.406C174.032 256.701 173.972 256.906 173.854 257.022C173.743 257.138 173.554 257.197 173.285 257.197H170.418V267.829H176.282V264.006C176.282 263.735 176.345 263.541 176.472 263.425C176.606 263.309 176.839 263.251 177.171 263.251C177.502 263.251 177.731 263.309 177.858 263.425C177.992 263.541 178.059 263.735 178.059 264.006V268.619C178.059 268.914 178 269.119 177.882 269.235C177.771 269.351 177.581 269.409 177.313 269.409H166.722C166.454 269.409 166.26 269.351 166.142 269.235C166.031 269.119 165.976 268.914 165.976 268.619C165.976 268.325 166.031 268.12 166.142 268.003C166.26 267.887 166.454 267.829 166.722 267.829H168.641V257.197Z" fill="url(#paint8_linear_1_597)" shape-rendering="crispEdges"/>
<path d="M187.416 257.197H184.384C184.115 257.197 183.922 257.138 183.803 257.022C183.693 256.906 183.637 256.701 183.637 256.406C183.637 256.112 183.693 255.907 183.803 255.791C183.922 255.674 184.115 255.616 184.384 255.616H192.226C192.494 255.616 192.684 255.674 192.794 255.791C192.913 255.907 192.972 256.112 192.972 256.406C192.972 256.701 192.913 256.906 192.794 257.022C192.684 257.138 192.494 257.197 192.226 257.197H189.193V267.829H192.463C192.731 267.829 192.921 267.887 193.031 268.003C193.15 268.12 193.209 268.325 193.209 268.619C193.209 268.914 193.15 269.119 193.031 269.235C192.921 269.351 192.731 269.409 192.463 269.409H184.147C183.878 269.409 183.685 269.351 183.566 269.235C183.456 269.119 183.4 268.914 183.4 268.619C183.4 268.325 183.456 268.12 183.566 268.003C183.685 267.887 183.878 267.829 184.147 267.829H187.416V257.197Z" fill="url(#paint9_linear_1_597)" shape-rendering="crispEdges"/>
<path d="M199.522 257.197H198.61C198.341 257.197 198.148 257.138 198.029 257.022C197.919 256.906 197.863 256.701 197.863 256.406C197.863 256.112 197.919 255.907 198.029 255.791C198.148 255.674 198.341 255.616 198.61 255.616H201.263C201.587 255.616 201.812 255.725 201.938 255.942L207.553 265.796V257.197H206.167C205.899 257.197 205.705 257.138 205.587 257.022C205.476 256.906 205.421 256.701 205.421 256.406C205.421 256.112 205.476 255.907 205.587 255.791C205.705 255.674 205.899 255.616 206.167 255.616H210.006C210.274 255.616 210.464 255.674 210.574 255.791C210.693 255.907 210.752 256.112 210.752 256.406C210.752 256.701 210.693 256.906 210.574 257.022C210.464 257.138 210.274 257.197 210.006 257.197H209.33V268.979C209.33 269.181 209.259 269.344 209.117 269.467C208.975 269.599 208.75 269.665 208.442 269.665C208.213 269.665 208.019 269.607 207.861 269.491C207.704 269.382 207.565 269.227 207.447 269.026L201.299 258.254V267.829H202.922C203.19 267.829 203.38 267.887 203.49 268.003C203.609 268.12 203.668 268.325 203.668 268.619C203.668 268.914 203.609 269.119 203.49 269.235C203.38 269.351 203.19 269.409 202.922 269.409H198.728C198.46 269.409 198.266 269.351 198.148 269.235C198.037 269.119 197.982 268.914 197.982 268.619C197.982 268.325 198.037 268.12 198.148 268.003C198.266 267.887 198.46 267.829 198.728 267.829H199.522V257.197Z" fill="url(#paint10_linear_1_597)" shape-rendering="crispEdges"/>
<path d="M225.617 268.143C224.867 268.654 224.062 269.038 223.201 269.293C222.34 269.541 221.456 269.665 220.547 269.665C219.615 269.665 218.77 269.495 218.012 269.154C217.262 268.813 216.622 268.333 216.093 267.713C215.564 267.085 215.153 266.334 214.861 265.459C214.577 264.575 214.435 263.595 214.435 262.519C214.435 261.442 214.581 260.466 214.873 259.59C215.173 258.707 215.592 257.952 216.129 257.324C216.674 256.697 217.321 256.213 218.071 255.872C218.822 255.531 219.647 255.361 220.547 255.361C221.313 255.361 221.981 255.488 222.549 255.744C223.118 255.992 223.596 256.341 223.983 256.79V256.116C223.983 255.845 224.046 255.651 224.172 255.535C224.307 255.419 224.54 255.361 224.871 255.361C225.203 255.361 225.432 255.419 225.558 255.535C225.693 255.651 225.76 255.845 225.76 256.116V259.951C225.76 260.222 225.693 260.415 225.558 260.532C225.432 260.648 225.203 260.706 224.871 260.706C224.54 260.706 224.307 260.648 224.172 260.532C224.046 260.415 223.983 260.222 223.983 259.951C223.983 259.571 223.916 259.207 223.781 258.858C223.655 258.51 223.454 258.204 223.177 257.94C222.909 257.677 222.565 257.468 222.147 257.313C221.728 257.158 221.234 257.08 220.666 257.08C220.026 257.08 219.438 257.208 218.901 257.464C218.364 257.712 217.902 258.072 217.515 258.545C217.136 259.017 216.839 259.59 216.626 260.264C216.413 260.931 216.306 261.682 216.306 262.519C216.306 263.355 216.405 264.111 216.603 264.785C216.808 265.451 217.092 266.02 217.455 266.493C217.827 266.958 218.273 267.318 218.794 267.573C219.323 267.821 219.908 267.945 220.547 267.945C221.337 267.945 222.083 267.837 222.786 267.62C223.497 267.395 224.137 267.066 224.705 266.632C224.863 266.508 225.037 266.454 225.227 266.469C225.416 266.485 225.598 266.636 225.771 266.923C225.937 267.194 226.004 267.43 225.973 267.631C225.941 267.825 225.823 267.996 225.617 268.143Z" fill="url(#paint11_linear_1_597)" shape-rendering="crispEdges"/>
<path d="M231.587 257.197H230.734C230.465 257.197 230.272 257.138 230.153 257.022C230.043 256.906 229.987 256.701 229.987 256.406C229.987 256.112 230.043 255.907 230.153 255.791C230.272 255.674 230.465 255.616 230.734 255.616H234.453C234.722 255.616 234.911 255.674 235.022 255.791C235.14 255.907 235.2 256.112 235.2 256.406C235.2 256.701 235.14 256.906 235.022 257.022C234.911 257.138 234.722 257.197 234.453 257.197H233.364V261.508H239.263V257.197H238.173C237.905 257.197 237.711 257.138 237.593 257.022C237.482 256.906 237.427 256.701 237.427 256.406C237.427 256.112 237.482 255.907 237.593 255.791C237.711 255.674 237.905 255.616 238.173 255.616H241.893C242.161 255.616 242.351 255.674 242.461 255.791C242.58 255.907 242.639 256.112 242.639 256.406C242.639 256.701 242.58 256.906 242.461 257.022C242.351 257.138 242.161 257.197 241.893 257.197H241.04V267.829H241.893C242.161 267.829 242.351 267.887 242.461 268.003C242.58 268.12 242.639 268.325 242.639 268.619C242.639 268.914 242.58 269.119 242.461 269.235C242.351 269.351 242.161 269.409 241.893 269.409H238.173C237.905 269.409 237.711 269.351 237.593 269.235C237.482 269.119 237.427 268.914 237.427 268.619C237.427 268.325 237.482 268.12 237.593 268.003C237.711 267.887 237.905 267.829 238.173 267.829H239.263V263.088H233.364V267.829H234.453C234.722 267.829 234.911 267.887 235.022 268.003C235.14 268.12 235.2 268.325 235.2 268.619C235.2 268.914 235.14 269.119 235.022 269.235C234.911 269.351 234.722 269.409 234.453 269.409H230.734C230.465 269.409 230.272 269.351 230.153 269.235C230.043 269.119 229.987 268.914 229.987 268.619C229.987 268.325 230.043 268.12 230.153 268.003C230.272 267.887 230.465 267.829 230.734 267.829H231.587V257.197Z" fill="url(#paint12_linear_1_597)" shape-rendering="crispEdges"/>
<path d="M273.626 268.143C272.876 268.654 272.07 269.038 271.209 269.293C270.348 269.541 269.464 269.665 268.556 269.665C267.624 269.665 266.779 269.495 266.021 269.154C265.27 268.813 264.631 268.333 264.102 267.713C263.572 267.085 263.162 266.334 262.87 265.459C262.585 264.575 262.443 263.595 262.443 262.519C262.443 261.442 262.589 260.466 262.881 259.59C263.182 258.707 263.6 257.952 264.137 257.324C264.682 256.697 265.33 256.213 266.08 255.872C266.83 255.531 267.655 255.361 268.556 255.361C269.322 255.361 269.989 255.488 270.558 255.744C271.126 255.992 271.604 256.341 271.991 256.79V256.116C271.991 255.845 272.054 255.651 272.181 255.535C272.315 255.419 272.548 255.361 272.88 255.361C273.211 255.361 273.44 255.419 273.567 255.535C273.701 255.651 273.768 255.845 273.768 256.116V259.951C273.768 260.222 273.701 260.415 273.567 260.532C273.44 260.648 273.211 260.706 272.88 260.706C272.548 260.706 272.315 260.648 272.181 260.532C272.054 260.415 271.991 260.222 271.991 259.951C271.991 259.571 271.924 259.207 271.79 258.858C271.663 258.51 271.462 258.204 271.186 257.94C270.917 257.677 270.574 257.468 270.155 257.313C269.736 257.158 269.243 257.08 268.674 257.08C268.035 257.08 267.446 257.208 266.909 257.464C266.372 257.712 265.91 258.072 265.523 258.545C265.144 259.017 264.848 259.59 264.635 260.264C264.421 260.931 264.315 261.682 264.315 262.519C264.315 263.355 264.414 264.111 264.611 264.785C264.816 265.451 265.101 266.02 265.464 266.493C265.835 266.958 266.281 267.318 266.803 267.573C267.332 267.821 267.916 267.945 268.556 267.945C269.346 267.945 270.092 267.837 270.795 267.62C271.505 267.395 272.145 267.066 272.714 266.632C272.872 266.508 273.045 266.454 273.235 266.469C273.425 266.485 273.606 266.636 273.78 266.923C273.946 267.194 274.013 267.43 273.981 267.631C273.95 267.825 273.831 267.996 273.626 268.143Z" fill="url(#paint13_linear_1_597)" shape-rendering="crispEdges"/>
<path d="M278.091 262.519C278.091 261.442 278.241 260.466 278.541 259.59C278.841 258.707 279.263 257.952 279.808 257.324C280.353 256.697 281.009 256.213 281.775 255.872C282.541 255.531 283.39 255.361 284.322 255.361C285.254 255.361 286.103 255.531 286.869 255.872C287.635 256.213 288.29 256.697 288.835 257.324C289.38 257.952 289.803 258.707 290.103 259.59C290.403 260.466 290.553 261.442 290.553 262.519C290.553 263.595 290.403 264.575 290.103 265.459C289.803 266.334 289.38 267.085 288.835 267.713C288.29 268.333 287.635 268.813 286.869 269.154C286.103 269.495 285.254 269.665 284.322 269.665C283.39 269.665 282.541 269.495 281.775 269.154C281.009 268.813 280.353 268.333 279.808 267.713C279.263 267.085 278.841 266.334 278.541 265.459C278.241 264.575 278.091 263.595 278.091 262.519ZM279.962 262.519C279.962 263.355 280.065 264.111 280.27 264.785C280.483 265.451 280.78 266.02 281.159 266.493C281.538 266.958 281.996 267.318 282.533 267.573C283.07 267.821 283.666 267.945 284.322 267.945C284.977 267.945 285.573 267.821 286.11 267.573C286.647 267.318 287.106 266.958 287.485 266.493C287.864 266.02 288.156 265.451 288.361 264.785C288.574 264.111 288.681 263.355 288.681 262.519C288.681 261.682 288.574 260.931 288.361 260.264C288.156 259.59 287.864 259.017 287.485 258.545C287.106 258.072 286.647 257.712 286.11 257.464C285.573 257.208 284.977 257.08 284.322 257.08C283.666 257.08 283.07 257.208 282.533 257.464C281.996 257.712 281.538 258.072 281.159 258.545C280.78 259.017 280.483 259.59 280.27 260.264C280.065 260.931 279.962 261.682 279.962 262.519Z" fill="url(#paint14_linear_1_597)" shape-rendering="crispEdges"/>
<path d="M296.19 257.197H294.745C294.476 257.197 294.283 257.138 294.164 257.022C294.054 256.906 293.999 256.701 293.999 256.406C293.999 256.112 294.054 255.907 294.164 255.791C294.283 255.674 294.476 255.616 294.745 255.616H300.739C301.497 255.616 302.169 255.713 302.753 255.907C303.337 256.093 303.827 256.356 304.222 256.697C304.625 257.038 304.929 257.452 305.134 257.94C305.339 258.421 305.442 258.951 305.442 259.532C305.442 259.982 305.363 260.396 305.205 260.776C305.055 261.155 304.838 261.492 304.554 261.787C304.269 262.081 303.922 262.337 303.511 262.553C303.108 262.763 302.658 262.921 302.161 263.03C302.366 263.123 302.556 263.239 302.729 263.379C302.903 263.518 303.069 263.673 303.227 263.843C303.424 264.06 303.61 264.296 303.784 264.552C303.965 264.808 304.131 265.067 304.281 265.331C304.439 265.586 304.589 265.842 304.731 266.098C304.873 266.353 305.012 266.59 305.146 266.806C305.335 267.116 305.529 267.364 305.726 267.55C305.924 267.736 306.145 267.829 306.39 267.829H306.615C306.883 267.829 307.073 267.887 307.183 268.003C307.302 268.12 307.361 268.325 307.361 268.619C307.361 268.914 307.302 269.119 307.183 269.235C307.073 269.351 306.883 269.409 306.615 269.409H305.786C305.446 269.409 305.106 269.293 304.767 269.061C304.435 268.821 304.08 268.398 303.701 267.794C303.543 267.539 303.389 267.275 303.239 267.004C303.089 266.733 302.939 266.466 302.788 266.202C302.638 265.931 302.484 265.675 302.326 265.435C302.169 265.187 302.007 264.959 301.841 264.75C301.635 264.494 301.422 264.281 301.201 264.111C300.988 263.94 300.755 263.805 300.502 263.704C300.249 263.603 299.977 263.533 299.685 263.495C299.393 263.448 299.065 263.425 298.702 263.425H297.967V267.829H299.507C299.776 267.829 299.965 267.887 300.076 268.003C300.194 268.12 300.253 268.325 300.253 268.619C300.253 268.914 300.194 269.119 300.076 269.235C299.965 269.351 299.776 269.409 299.507 269.409H294.745C294.476 269.409 294.283 269.351 294.164 269.235C294.054 269.119 293.999 268.914 293.999 268.619C293.999 268.325 294.054 268.12 294.164 268.003C294.283 267.887 294.476 267.829 294.745 267.829H296.19V257.197ZM297.967 257.197V261.845H300.372C300.861 261.845 301.304 261.802 301.699 261.717C302.094 261.632 302.429 261.496 302.706 261.31C302.982 261.124 303.195 260.884 303.345 260.59C303.495 260.295 303.57 259.943 303.57 259.532C303.57 258.781 303.302 258.204 302.765 257.801C302.236 257.398 301.478 257.197 300.49 257.197H297.967Z" fill="url(#paint15_linear_1_597)" shape-rendering="crispEdges"/>
<path d="M315.439 257.197H312.276V260.787C312.276 261.058 312.209 261.252 312.074 261.368C311.948 261.484 311.719 261.543 311.387 261.543C311.056 261.543 310.823 261.484 310.688 261.368C310.562 261.252 310.499 261.058 310.499 260.787V256.406C310.499 256.112 310.554 255.907 310.665 255.791C310.783 255.674 310.977 255.616 311.245 255.616H321.409C321.678 255.616 321.867 255.674 321.978 255.791C322.096 255.907 322.156 256.112 322.156 256.406V260.787C322.156 261.058 322.088 261.252 321.954 261.368C321.828 261.484 321.599 261.543 321.267 261.543C320.935 261.543 320.702 261.484 320.568 261.368C320.442 261.252 320.379 261.058 320.379 260.787V257.197H317.216V267.829H320.011C320.28 267.829 320.469 267.887 320.58 268.003C320.699 268.12 320.758 268.325 320.758 268.619C320.758 268.914 320.699 269.119 320.58 269.235C320.469 269.351 320.28 269.409 320.011 269.409H312.643C312.375 269.409 312.181 269.351 312.063 269.235C311.952 269.119 311.897 268.914 311.897 268.619C311.897 268.325 311.952 268.12 312.063 268.003C312.181 267.887 312.375 267.829 312.643 267.829H315.439V257.197Z" fill="url(#paint16_linear_1_597)" shape-rendering="crispEdges"/>
<path d="M327.959 257.197H326.75C326.482 257.197 326.288 257.138 326.17 257.022C326.059 256.906 326.004 256.701 326.004 256.406C326.004 256.112 326.059 255.907 326.17 255.791C326.288 255.674 326.482 255.616 326.75 255.616H337.104C337.373 255.616 337.562 255.674 337.673 255.791C337.791 255.907 337.85 256.112 337.85 256.406V259.358C337.85 259.629 337.783 259.823 337.649 259.939C337.523 260.055 337.294 260.113 336.962 260.113C336.63 260.113 336.397 260.055 336.263 259.939C336.137 259.823 336.073 259.629 336.073 259.358V257.197H329.736V261.508H332.697V260.45C332.697 260.179 332.76 259.985 332.887 259.869C333.021 259.753 333.254 259.695 333.586 259.695C333.917 259.695 334.146 259.753 334.273 259.869C334.407 259.985 334.474 260.179 334.474 260.45V264.145C334.474 264.417 334.407 264.61 334.273 264.726C334.146 264.843 333.917 264.901 333.586 264.901C333.254 264.901 333.021 264.843 332.887 264.726C332.76 264.61 332.697 264.417 332.697 264.145V263.088H329.736V267.829H336.31V265.168C336.31 264.897 336.374 264.703 336.5 264.587C336.634 264.471 336.867 264.413 337.199 264.413C337.531 264.413 337.76 264.471 337.886 264.587C338.02 264.703 338.087 264.897 338.087 265.168V268.619C338.087 268.914 338.028 269.119 337.91 269.235C337.799 269.351 337.61 269.409 337.341 269.409H326.75C326.482 269.409 326.288 269.351 326.17 269.235C326.059 269.119 326.004 268.914 326.004 268.619C326.004 268.325 326.059 268.12 326.17 268.003C326.288 267.887 326.482 267.829 326.75 267.829H327.959V257.197Z" fill="url(#paint17_linear_1_597)" shape-rendering="crispEdges"/>
<path d="M351.828 267.829V264.703C351.828 264.432 351.891 264.238 352.017 264.122C352.151 264.006 352.384 263.948 352.716 263.948C353.048 263.948 353.277 264.006 353.403 264.122C353.537 264.238 353.604 264.432 353.604 264.703V268.619C353.604 268.914 353.545 269.119 353.427 269.235C353.316 269.351 353.127 269.409 352.858 269.409H343.784C343.515 269.409 343.322 269.351 343.203 269.235C343.093 269.119 343.038 268.914 343.038 268.619C343.038 268.511 343.053 268.418 343.085 268.34C343.117 268.263 343.156 268.189 343.203 268.12L351.01 257.197H345.063V260.09C345.063 260.361 344.996 260.555 344.862 260.671C344.736 260.787 344.507 260.845 344.175 260.845C343.843 260.845 343.61 260.787 343.476 260.671C343.35 260.555 343.286 260.361 343.286 260.09V256.406C343.286 256.112 343.342 255.907 343.452 255.791C343.571 255.674 343.764 255.616 344.033 255.616H352.752C353.02 255.616 353.21 255.674 353.32 255.791C353.439 255.907 353.498 256.112 353.498 256.406C353.498 256.6 353.458 256.751 353.379 256.86L345.525 267.829H351.828Z" fill="url(#paint18_linear_1_597)" shape-rendering="crispEdges"/>
</g>
<g filter="url(#filter1_di_1_597)">
<path d="M313.207 227.075C313.207 227.984 313.096 228.818 312.872 229.579C312.649 230.339 312.327 230.995 311.908 231.547C311.488 232.092 310.974 232.519 310.365 232.829C309.762 233.132 309.082 233.283 308.324 233.283C307.559 233.283 306.876 233.132 306.274 232.829C305.671 232.519 305.16 232.092 304.741 231.547C304.321 230.995 303.999 230.339 303.776 229.579C303.553 228.818 303.441 227.984 303.441 227.075C303.441 226.167 303.553 225.333 303.776 224.572C303.999 223.812 304.321 223.156 304.741 222.604C305.16 222.052 305.671 221.625 306.274 221.322C306.876 221.012 307.559 220.858 308.324 220.858C309.082 220.858 309.762 221.012 310.365 221.322C310.974 221.625 311.488 222.052 311.908 222.604C312.327 223.156 312.649 223.812 312.872 224.572C313.096 225.333 313.207 226.167 313.207 227.075ZM310.487 227.075C310.487 225.763 310.3 224.781 309.928 224.128C309.556 223.475 309.021 223.149 308.324 223.149C307.627 223.149 307.092 223.475 306.72 224.128C306.348 224.781 306.162 225.763 306.162 227.075C306.162 228.388 306.348 229.37 306.72 230.023C307.092 230.669 307.627 230.992 308.324 230.992C309.021 230.992 309.556 230.669 309.928 230.023C310.3 229.37 310.487 228.388 310.487 227.075Z" fill="url(#paint19_linear_1_597)" shape-rendering="crispEdges"/>
<path d="M320.963 233.283C320.09 233.283 319.329 233.108 318.679 232.758C318.03 232.408 317.488 231.917 317.055 231.285C316.771 230.874 316.554 230.38 316.405 229.801C316.256 229.215 316.182 228.579 316.182 227.893C316.182 226.83 316.358 225.874 316.71 225.026C317.068 224.178 317.596 223.455 318.293 222.856C318.997 222.257 319.864 221.79 320.892 221.453C321.928 221.11 323.122 220.911 324.476 220.858C324.652 220.851 324.787 220.935 324.882 221.11C324.984 221.278 325.051 221.554 325.085 221.938C325.133 222.402 325.116 222.742 325.034 222.957C324.96 223.172 324.845 223.287 324.689 223.3C323.762 223.347 322.953 223.448 322.263 223.603C321.579 223.751 320.997 223.963 320.517 224.239C320.043 224.515 319.667 224.861 319.39 225.279C319.112 225.696 318.923 226.191 318.821 226.762C319.194 226.352 319.603 226.053 320.05 225.864C320.503 225.676 321.024 225.581 321.613 225.581C322.182 225.581 322.703 225.676 323.177 225.864C323.657 226.046 324.067 226.305 324.405 226.641C324.75 226.971 325.017 227.368 325.207 227.832C325.403 228.297 325.501 228.808 325.501 229.367C325.501 229.939 325.386 230.467 325.156 230.952C324.933 231.429 324.622 231.843 324.222 232.193C323.823 232.536 323.342 232.805 322.781 233.001C322.226 233.189 321.62 233.283 320.963 233.283ZM319.024 229.316C319.024 229.545 319.065 229.764 319.146 229.972C319.234 230.181 319.359 230.363 319.522 230.517C319.691 230.672 319.894 230.797 320.131 230.891C320.375 230.985 320.649 231.032 320.953 231.032C321.244 231.032 321.508 230.995 321.745 230.921C321.982 230.84 322.185 230.729 322.354 230.588C322.523 230.447 322.652 230.275 322.74 230.073C322.835 229.865 322.882 229.633 322.882 229.377C322.882 228.852 322.716 228.445 322.385 228.155C322.06 227.866 321.61 227.721 321.034 227.721C320.737 227.721 320.463 227.762 320.212 227.843C319.969 227.917 319.759 228.024 319.583 228.166C319.407 228.307 319.268 228.475 319.167 228.67C319.072 228.865 319.024 229.081 319.024 229.316Z" fill="url(#paint20_linear_1_597)" shape-rendering="crispEdges"/>
<path d="M331.034 235.756C330.98 235.871 330.882 235.955 330.74 236.009C330.598 236.062 330.439 236.089 330.263 236.089C330.066 236.089 329.863 236.059 329.654 235.998C329.444 235.945 329.258 235.864 329.095 235.756C328.939 235.655 328.824 235.531 328.75 235.383C328.676 235.241 328.679 235.083 328.76 234.908L335.481 219.888C335.535 219.774 335.633 219.69 335.775 219.636C335.924 219.576 336.09 219.545 336.273 219.545C336.469 219.545 336.669 219.576 336.872 219.636C337.081 219.69 337.264 219.771 337.42 219.878C337.582 219.979 337.697 220.104 337.765 220.252C337.839 220.393 337.836 220.555 337.755 220.736L331.034 235.756Z" fill="url(#paint21_linear_1_597)" shape-rendering="crispEdges"/>
<path d="M347.917 230.891V229.962C347.917 229.848 347.934 229.75 347.968 229.67C348.002 229.589 348.059 229.525 348.14 229.478C348.221 229.424 348.333 229.387 348.475 229.367C348.617 229.34 348.797 229.326 349.013 229.326C349.446 229.326 349.761 229.377 349.957 229.478C350.154 229.572 350.252 229.733 350.252 229.962V232.405C350.252 232.641 350.201 232.809 350.1 232.91C349.998 233.011 349.829 233.061 349.592 233.061H341.734C341.619 233.061 341.521 233.048 341.44 233.021C341.359 232.994 341.291 232.943 341.237 232.869C341.19 232.789 341.152 232.681 341.125 232.546C341.105 232.412 341.095 232.237 341.095 232.021C341.095 231.746 341.112 231.544 341.146 231.416C341.179 231.281 341.244 231.17 341.338 231.083L345.694 226.914C345.964 226.651 346.194 226.416 346.384 226.207C346.573 225.999 346.726 225.807 346.841 225.632C346.963 225.45 347.047 225.279 347.095 225.117C347.149 224.949 347.176 224.774 347.176 224.592C347.176 224.141 347.044 223.771 346.78 223.482C346.516 223.193 346.12 223.048 345.592 223.048C345.274 223.048 344.966 223.088 344.668 223.169C344.37 223.243 344.093 223.344 343.836 223.472V224.885C343.836 224.999 343.819 225.097 343.785 225.178C343.751 225.258 343.694 225.326 343.612 225.38C343.531 225.427 343.42 225.464 343.277 225.491C343.135 225.511 342.956 225.521 342.739 225.521C342.306 225.521 341.992 225.474 341.795 225.38C341.599 225.279 341.501 225.114 341.501 224.885V222.493C341.501 222.217 341.646 222.001 341.937 221.847C342.553 221.51 343.169 221.261 343.785 221.1C344.408 220.938 345.007 220.858 345.582 220.858C346.259 220.858 346.858 220.948 347.379 221.13C347.9 221.305 348.337 221.554 348.688 221.877C349.04 222.2 349.304 222.587 349.48 223.038C349.663 223.489 349.754 223.99 349.754 224.542C349.754 224.892 349.714 225.225 349.633 225.541C349.558 225.851 349.44 226.153 349.277 226.45C349.115 226.746 348.912 227.042 348.668 227.338C348.431 227.627 348.15 227.927 347.826 228.236L345.054 230.891H347.917Z" fill="url(#paint22_linear_1_597)" shape-rendering="crispEdges"/>
<path d="M358.181 229.326H353.815C353.7 229.326 353.602 229.313 353.521 229.286C353.44 229.259 353.372 229.209 353.318 229.135C353.27 229.061 353.233 228.956 353.206 228.822C353.186 228.687 353.176 228.512 353.176 228.297C353.176 228.055 353.193 227.863 353.226 227.721C353.26 227.58 353.308 227.472 353.369 227.398L358.14 221.554C358.316 221.332 358.522 221.16 358.759 221.039C358.996 220.918 359.294 220.858 359.653 220.858C359.862 220.858 360.035 220.881 360.17 220.928C360.306 220.969 360.414 221.029 360.495 221.11C360.576 221.191 360.634 221.288 360.668 221.403C360.702 221.51 360.719 221.631 360.719 221.766V227.257H362.465C362.58 227.257 362.678 227.271 362.759 227.297C362.84 227.324 362.905 227.378 362.952 227.459C363.006 227.533 363.043 227.637 363.064 227.772C363.091 227.906 363.104 228.081 363.104 228.297C363.104 228.512 363.091 228.687 363.064 228.822C363.043 228.956 363.006 229.061 362.952 229.135C362.905 229.209 362.84 229.259 362.759 229.286C362.678 229.313 362.58 229.326 362.465 229.326H360.719V230.992H362.16C362.275 230.992 362.373 231.005 362.455 231.032C362.536 231.059 362.6 231.113 362.647 231.194C362.702 231.268 362.739 231.372 362.759 231.507C362.786 231.641 362.8 231.816 362.8 232.032C362.8 232.247 362.786 232.422 362.759 232.556C362.739 232.691 362.702 232.795 362.647 232.869C362.6 232.943 362.536 232.994 362.455 233.021C362.373 233.048 362.275 233.061 362.16 233.061H356.455C356.34 233.061 356.242 233.048 356.16 233.021C356.079 232.994 356.011 232.943 355.957 232.869C355.91 232.795 355.873 232.691 355.846 232.556C355.825 232.422 355.815 232.247 355.815 232.032C355.815 231.816 355.825 231.641 355.846 231.507C355.873 231.372 355.91 231.268 355.957 231.194C356.011 231.113 356.079 231.059 356.16 231.032C356.242 231.005 356.34 230.992 356.455 230.992H358.181V229.326ZM358.272 227.257L358.434 224.31L356.049 227.257H358.272Z" fill="url(#paint23_linear_1_597)" shape-rendering="crispEdges"/>
</g>
<path d="M273.894 218.418L272.422 222.992L270.966 218.418H269.658L271.642 224.448H273.201L275.202 218.418H273.894Z" fill="white"/>
<path d="M279.719 224.448H281.036L278.766 218.418H277.198L274.929 224.448H276.237L276.757 223.026H279.208L279.719 224.448ZM277.181 221.855L277.978 219.667L278.775 221.855H277.181Z" fill="white"/>
<path d="M283.174 223.276V218.418H281.935V224.448H285.773V223.276H283.174Z" fill="white"/>
<path d="M286.672 224.448H287.911V218.418H286.672V224.448Z" fill="white"/>
<path d="M291.411 218.418H289.219V224.448H291.411C293.178 224.448 294.512 223.156 294.512 221.433C294.512 219.702 293.178 218.418 291.411 218.418ZM291.411 223.276H290.458V219.59H291.411C292.502 219.59 293.273 220.348 293.273 221.433C293.273 222.518 292.502 223.276 291.411 223.276Z" fill="white"/>
<path d="M275.319 228.754H270.589V229.926H272.33V234.784H273.569V229.926H275.319V228.754Z" fill="white"/>
<path d="M280.149 228.754V231.115H277.455V228.754H276.216V234.784H277.455V232.286H280.149V234.784H281.388V228.754H280.149Z" fill="white"/>
<path d="M286.196 234.784H287.721L286.023 232.519C286.872 232.303 287.383 231.7 287.383 230.718C287.383 229.521 286.612 228.754 285.312 228.754H282.705V234.784H283.943V232.613H284.628L286.196 234.784ZM283.943 229.926H285.174C285.815 229.926 286.127 230.236 286.127 230.736C286.127 231.227 285.823 231.537 285.174 231.537H283.943V229.926Z" fill="white"/>
<path d="M292.115 228.754V232.277C292.115 233.328 291.596 233.716 290.868 233.716C290.14 233.716 289.621 233.328 289.621 232.277V228.754H288.364V232.346C288.364 234.043 289.439 234.887 290.868 234.887C292.297 234.887 293.372 234.043 293.372 232.346V228.754H292.115Z" fill="white"/>
<g filter="url(#filter2_di_1_597)">
<path d="M63.2788 182.86C63.0077 182.676 62.8383 182.459 62.7705 182.211C62.7028 181.951 62.7875 181.632 63.0247 181.253C63.2619 180.875 63.516 180.653 63.7871 180.588C64.0582 180.523 64.3236 180.583 64.5834 180.767C65.2949 181.253 66.0743 181.648 66.9214 181.951C67.7798 182.243 68.6495 182.389 69.5305 182.389C70.2308 182.389 70.8577 182.292 71.4111 182.097C71.9645 181.891 72.4333 181.605 72.8173 181.237C73.2013 180.858 73.495 180.415 73.6983 179.907C73.9016 179.387 74.0033 178.809 74.0033 178.171C74.0033 177.576 73.9073 177.029 73.7152 176.532C73.5232 176.023 73.2465 175.591 72.8851 175.234C72.5349 174.866 72.1057 174.585 71.5975 174.39C71.0892 174.185 70.5132 174.082 69.8694 174.082C69.0561 174.082 68.3502 174.185 67.7516 174.39C67.1529 174.585 66.5769 174.866 66.0235 175.234C65.8427 175.342 65.5604 175.396 65.1763 175.396C64.702 175.396 64.3631 175.315 64.1598 175.153C63.9678 174.99 63.8831 174.72 63.9057 174.341L64.2445 166.229C64.2671 165.85 64.3631 165.58 64.5325 165.418C64.7133 165.256 65.0408 165.174 65.5152 165.174H74.5624C74.9464 165.174 75.2175 165.256 75.3756 165.418C75.545 165.58 75.6297 165.867 75.6297 166.278C75.6297 166.689 75.545 166.975 75.3756 167.138C75.2175 167.3 74.9464 167.381 74.5624 167.381H66.6673L66.447 172.589C66.9892 172.297 67.5596 172.075 68.1582 171.924C68.7681 171.762 69.4119 171.681 70.0896 171.681C71.1174 171.681 72.038 171.843 72.8512 172.167C73.6757 172.481 74.3703 172.93 74.9351 173.514C75.4998 174.087 75.929 174.774 76.2227 175.575C76.5277 176.364 76.6801 177.229 76.6801 178.171C76.6801 179.122 76.5107 180.004 76.1719 180.815C75.8443 181.616 75.3699 182.313 74.7487 182.908C74.1275 183.492 73.3764 183.952 72.4954 184.287C71.6144 184.623 70.6261 184.79 69.5305 184.79C68.4236 184.79 67.3224 184.617 66.2268 184.271C65.1425 183.914 64.1598 183.444 63.2788 182.86Z" fill="url(#paint24_linear_1_597)" shape-rendering="crispEdges"/>
<path d="M85.8527 182.746C85.5816 182.562 85.4178 182.346 85.3614 182.097C85.3049 181.837 85.3952 181.518 85.6324 181.14C85.8809 180.761 86.1407 180.545 86.4118 180.491C86.6829 180.426 86.9426 180.485 87.1911 180.669C87.914 181.188 88.7103 181.605 89.58 181.918C90.4497 182.232 91.3363 182.389 92.2399 182.389C93.6744 182.389 94.7474 182.064 95.459 181.415C96.1818 180.767 96.5433 179.907 96.5433 178.836C96.5433 177.7 96.1705 176.851 95.4251 176.288C94.6796 175.715 93.6461 175.429 92.3246 175.429H91.0878C90.7038 175.429 90.4271 175.347 90.2577 175.185C90.0995 175.023 90.0205 174.736 90.0205 174.325C90.0205 173.914 90.0995 173.628 90.2577 173.465C90.4271 173.303 90.7038 173.222 91.0878 173.222H92.0197C93.3186 173.222 94.2956 172.962 94.9507 172.443C95.6171 171.924 95.9503 171.167 95.9503 170.172C95.9503 169.252 95.6171 168.533 94.9507 168.014C94.2956 167.484 93.3525 167.219 92.1213 167.219C90.8111 167.219 89.6986 167.43 88.7837 167.852V168.939C88.7837 169.317 88.6877 169.588 88.4957 169.75C88.315 169.912 87.9874 169.993 87.513 169.993C87.0386 169.993 86.7054 169.912 86.5134 169.75C86.3327 169.588 86.2424 169.317 86.2424 168.939V167.17C86.2424 166.932 86.2762 166.743 86.344 166.602C86.4231 166.462 86.5417 166.343 86.6998 166.245C87.4791 165.791 88.3093 165.439 89.1903 165.191C90.0826 164.942 91.054 164.817 92.1044 164.817C93.087 164.817 93.9737 164.947 94.7643 165.207C95.555 165.456 96.2327 165.813 96.7974 166.278C97.3621 166.743 97.797 167.305 98.1019 167.965C98.4069 168.625 98.5594 169.36 98.5594 170.172C98.5594 171.145 98.3222 171.962 97.8478 172.622C97.3847 173.281 96.7579 173.806 95.9672 174.195C96.9725 174.596 97.7631 175.185 98.3391 175.964C98.9265 176.743 99.2201 177.7 99.2201 178.836C99.2201 179.712 99.062 180.518 98.7458 181.253C98.4408 181.978 97.989 182.605 97.3904 183.135C96.803 183.655 96.0745 184.06 95.2048 184.352C94.3351 184.644 93.3468 184.79 92.2399 184.79C91.6752 184.79 91.1048 184.742 90.5288 184.644C89.964 184.547 89.4049 184.412 88.8515 184.239C88.3093 184.055 87.7841 183.838 87.2758 183.59C86.7676 183.341 86.2932 183.06 85.8527 182.746Z" fill="url(#paint25_linear_1_597)" shape-rendering="crispEdges"/>
<path d="M114.763 184.044C114.639 184.347 114.43 184.558 114.136 184.677C113.842 184.796 113.498 184.823 113.103 184.758C112.719 184.693 112.436 184.558 112.256 184.352C112.075 184.136 112.058 183.86 112.205 183.525L119.1 167.381H111.07V169.75C111.07 170.128 110.974 170.399 110.782 170.561C110.601 170.723 110.273 170.804 109.799 170.804C109.325 170.804 108.991 170.723 108.799 170.561C108.619 170.399 108.528 170.128 108.528 169.75V166.278C108.528 165.867 108.607 165.58 108.765 165.418C108.935 165.256 109.212 165.174 109.596 165.174H121.015C121.399 165.174 121.67 165.256 121.828 165.418C121.997 165.58 122.082 165.867 122.082 166.278C122.082 166.418 122.071 166.548 122.048 166.667C122.026 166.775 122.003 166.862 121.98 166.927L114.763 184.044Z" fill="url(#paint26_linear_1_597)" shape-rendering="crispEdges"/>
<path d="M130.899 182.86C130.628 182.676 130.458 182.459 130.391 182.211C130.323 181.951 130.407 181.632 130.645 181.253C130.882 180.875 131.136 180.653 131.407 180.588C131.678 180.523 131.944 180.583 132.203 180.767C132.915 181.253 133.694 181.648 134.541 181.951C135.4 182.243 136.269 182.389 137.15 182.389C137.851 182.389 138.478 182.292 139.031 182.097C139.585 181.891 140.053 181.605 140.437 181.237C140.821 180.858 141.115 180.415 141.318 179.907C141.522 179.387 141.623 178.809 141.623 178.171C141.623 177.576 141.527 177.029 141.335 176.532C141.143 176.023 140.866 175.591 140.505 175.234C140.155 174.866 139.726 174.585 139.217 174.39C138.709 174.185 138.133 174.082 137.489 174.082C136.676 174.082 135.97 174.185 135.372 174.39C134.773 174.585 134.197 174.866 133.643 175.234C133.463 175.342 133.18 175.396 132.796 175.396C132.322 175.396 131.983 175.315 131.78 175.153C131.588 174.99 131.503 174.72 131.526 174.341L131.864 166.229C131.887 165.85 131.983 165.58 132.153 165.418C132.333 165.256 132.661 165.174 133.135 165.174H142.182C142.566 165.174 142.837 165.256 142.996 165.418C143.165 165.58 143.25 165.867 143.25 166.278C143.25 166.689 143.165 166.975 142.996 167.138C142.837 167.3 142.566 167.381 142.182 167.381H134.287L134.067 172.589C134.609 172.297 135.18 172.075 135.778 171.924C136.388 171.762 137.032 171.681 137.71 171.681C138.737 171.681 139.658 171.843 140.471 172.167C141.296 172.481 141.99 172.93 142.555 173.514C143.12 174.087 143.549 174.774 143.843 175.575C144.148 176.364 144.3 177.229 144.3 178.171C144.3 179.122 144.131 180.004 143.792 180.815C143.464 181.616 142.99 182.313 142.369 182.908C141.747 183.492 140.996 183.952 140.115 184.287C139.234 184.623 138.246 184.79 137.15 184.79C136.044 184.79 134.942 184.617 133.847 184.271C132.762 183.914 131.78 183.444 130.899 182.86Z" fill="url(#paint27_linear_1_597)" shape-rendering="crispEdges"/>
<path d="M183.925 182.227V178.592H175.826C175.442 178.592 175.166 178.511 174.996 178.349C174.838 178.187 174.759 177.9 174.759 177.489C174.759 177.132 174.815 176.878 174.928 176.727L183.128 165.807C183.366 165.483 183.625 165.239 183.908 165.077C184.19 164.904 184.552 164.817 184.992 164.817C185.523 164.817 185.901 164.936 186.127 165.174C186.353 165.402 186.466 165.704 186.466 166.083V176.386H189.211C189.595 176.386 189.866 176.467 190.024 176.629C190.193 176.791 190.278 177.078 190.278 177.489C190.278 177.9 190.193 178.187 190.024 178.349C189.866 178.511 189.595 178.592 189.211 178.592H186.466V182.227H188.702C189.086 182.227 189.358 182.308 189.516 182.47C189.685 182.632 189.77 182.919 189.77 183.33C189.77 183.741 189.685 184.028 189.516 184.19C189.358 184.352 189.086 184.433 188.702 184.433H181.417C181.033 184.433 180.756 184.352 180.587 184.19C180.429 184.028 180.35 183.741 180.35 183.33C180.35 182.919 180.429 182.632 180.587 182.47C180.756 182.308 181.033 182.227 181.417 182.227H183.925ZM184.06 168.338L178.13 176.386H183.925L184.06 168.338Z" fill="url(#paint28_linear_1_597)" shape-rendering="crispEdges"/>
<path d="M206.465 182.227V178.592H198.366C197.982 178.592 197.706 178.511 197.536 178.349C197.378 178.187 197.299 177.9 197.299 177.489C197.299 177.132 197.355 176.878 197.468 176.727L205.668 165.807C205.906 165.483 206.165 165.239 206.448 165.077C206.73 164.904 207.092 164.817 207.532 164.817C208.063 164.817 208.441 164.936 208.667 165.174C208.893 165.402 209.006 165.704 209.006 166.083V176.386H211.751C212.135 176.386 212.406 176.467 212.564 176.629C212.733 176.791 212.818 177.078 212.818 177.489C212.818 177.9 212.733 178.187 212.564 178.349C212.406 178.511 212.135 178.592 211.751 178.592H209.006V182.227H211.242C211.626 182.227 211.897 182.308 212.056 182.47C212.225 182.632 212.31 182.919 212.31 183.33C212.31 183.741 212.225 184.028 212.056 184.19C211.897 184.352 211.626 184.433 211.242 184.433H203.957C203.573 184.433 203.296 184.352 203.127 184.19C202.969 184.028 202.89 183.741 202.89 183.33C202.89 182.919 202.969 182.632 203.127 182.47C203.296 182.308 203.573 182.227 203.957 182.227H206.465ZM206.6 168.338L200.67 176.386H206.465L206.6 168.338Z" fill="url(#paint29_linear_1_597)" shape-rendering="crispEdges"/>
<path d="M226.989 182.227V167.689L222.787 169.15C222.538 169.236 222.301 169.231 222.075 169.133C221.861 169.025 221.686 168.771 221.55 168.371C221.415 167.97 221.398 167.657 221.499 167.43C221.601 167.203 221.787 167.046 222.058 166.959L228.242 164.834C228.604 164.715 228.909 164.753 229.157 164.947C229.406 165.131 229.53 165.429 229.53 165.84V182.227H233.85C234.234 182.227 234.505 182.308 234.663 182.47C234.833 182.632 234.918 182.919 234.918 183.33C234.918 183.741 234.833 184.028 234.663 184.19C234.505 184.352 234.234 184.433 233.85 184.433H222.431C222.047 184.433 221.77 184.352 221.601 184.19C221.443 184.028 221.364 183.741 221.364 183.33C221.364 182.919 221.443 182.632 221.601 182.47C221.77 182.308 222.047 182.227 222.431 182.227H226.989Z" fill="url(#paint30_linear_1_597)" shape-rendering="crispEdges"/>
<path d="M249.529 182.227V167.689L245.327 169.15C245.078 169.236 244.841 169.231 244.615 169.133C244.401 169.025 244.226 168.771 244.09 168.371C243.955 167.97 243.938 167.657 244.039 167.43C244.141 167.203 244.327 167.046 244.598 166.959L250.782 164.834C251.144 164.715 251.449 164.753 251.697 164.947C251.946 165.131 252.07 165.429 252.07 165.84V182.227H256.39C256.774 182.227 257.045 182.308 257.203 182.47C257.373 182.632 257.458 182.919 257.458 183.33C257.458 183.741 257.373 184.028 257.203 184.19C257.045 184.352 256.774 184.433 256.39 184.433H244.971C244.587 184.433 244.31 184.352 244.141 184.19C243.983 184.028 243.904 183.741 243.904 183.33C243.904 182.919 243.983 182.632 244.141 182.47C244.31 182.308 244.587 182.227 244.971 182.227H249.529Z" fill="url(#paint31_linear_1_597)" shape-rendering="crispEdges"/>
<path d="M296.625 182.227V178.592H288.526C288.142 178.592 287.865 178.511 287.696 178.349C287.538 178.187 287.459 177.9 287.459 177.489C287.459 177.132 287.515 176.878 287.628 176.727L295.828 165.807C296.066 165.483 296.325 165.239 296.608 165.077C296.89 164.904 297.251 164.817 297.692 164.817C298.223 164.817 298.601 164.936 298.827 165.174C299.053 165.402 299.166 165.704 299.166 166.083V176.386H301.911C302.295 176.386 302.566 176.467 302.724 176.629C302.893 176.791 302.978 177.078 302.978 177.489C302.978 177.9 302.893 178.187 302.724 178.349C302.566 178.511 302.295 178.592 301.911 178.592H299.166V182.227H301.402C301.786 182.227 302.057 182.308 302.216 182.47C302.385 182.632 302.47 182.919 302.47 183.33C302.47 183.741 302.385 184.028 302.216 184.19C302.057 184.352 301.786 184.433 301.402 184.433H294.117C293.733 184.433 293.456 184.352 293.287 184.19C293.129 184.028 293.05 183.741 293.05 183.33C293.05 182.919 293.129 182.632 293.287 182.47C293.456 182.308 293.733 182.227 294.117 182.227H296.625ZM296.76 168.338L290.83 176.386H296.625L296.76 168.338Z" fill="url(#paint32_linear_1_597)" shape-rendering="crispEdges"/>
<path d="M311.219 182.86C310.948 182.676 310.778 182.459 310.71 182.211C310.643 181.951 310.727 181.632 310.965 181.253C311.202 180.875 311.456 180.653 311.727 180.588C311.998 180.523 312.263 180.583 312.523 180.767C313.235 181.253 314.014 181.648 314.861 181.951C315.72 182.243 316.589 182.389 317.47 182.389C318.171 182.389 318.798 182.292 319.351 182.097C319.904 181.891 320.373 181.605 320.757 181.237C321.141 180.858 321.435 180.415 321.638 179.907C321.841 179.387 321.943 178.809 321.943 178.171C321.943 177.576 321.847 177.029 321.655 176.532C321.463 176.023 321.186 175.591 320.825 175.234C320.475 174.866 320.046 174.585 319.537 174.39C319.029 174.185 318.453 174.082 317.809 174.082C316.996 174.082 316.29 174.185 315.691 174.39C315.093 174.585 314.517 174.866 313.963 175.234C313.783 175.342 313.5 175.396 313.116 175.396C312.642 175.396 312.303 175.315 312.1 175.153C311.908 174.99 311.823 174.72 311.846 174.341L312.184 166.229C312.207 165.85 312.303 165.58 312.472 165.418C312.653 165.256 312.981 165.174 313.455 165.174H322.502C322.886 165.174 323.157 165.256 323.315 165.418C323.485 165.58 323.57 165.867 323.57 166.278C323.57 166.689 323.485 166.975 323.315 167.138C323.157 167.3 322.886 167.381 322.502 167.381H314.607L314.387 172.589C314.929 172.297 315.499 172.075 316.098 171.924C316.708 171.762 317.352 171.681 318.029 171.681C319.057 171.681 319.978 171.843 320.791 172.167C321.616 172.481 322.31 172.93 322.875 173.514C323.44 174.087 323.869 174.774 324.163 175.575C324.468 176.364 324.62 177.229 324.62 178.171C324.62 179.122 324.451 180.004 324.112 180.815C323.784 181.616 323.31 182.313 322.689 182.908C322.067 183.492 321.316 183.952 320.435 184.287C319.554 184.623 318.566 184.79 317.47 184.79C316.363 184.79 315.262 184.617 314.167 184.271C313.082 183.914 312.1 183.444 311.219 182.86Z" fill="url(#paint33_linear_1_597)" shape-rendering="crispEdges"/>
<path d="M341.705 182.227V178.592H333.606C333.222 178.592 332.945 178.511 332.776 178.349C332.618 178.187 332.539 177.9 332.539 177.489C332.539 177.132 332.595 176.878 332.708 176.727L340.908 165.807C341.146 165.483 341.405 165.239 341.688 165.077C341.97 164.904 342.331 164.817 342.772 164.817C343.303 164.817 343.681 164.936 343.907 165.174C344.133 165.402 344.246 165.704 344.246 166.083V176.386H346.991C347.375 176.386 347.646 176.467 347.804 176.629C347.973 176.791 348.058 177.078 348.058 177.489C348.058 177.9 347.973 178.187 347.804 178.349C347.646 178.511 347.375 178.592 346.991 178.592H344.246V182.227H346.482C346.866 182.227 347.137 182.308 347.296 182.47C347.465 182.632 347.55 182.919 347.55 183.33C347.55 183.741 347.465 184.028 347.296 184.19C347.137 184.352 346.866 184.433 346.482 184.433H339.197C338.813 184.433 338.536 184.352 338.367 184.19C338.209 184.028 338.13 183.741 338.13 183.33C338.13 182.919 338.209 182.632 338.367 182.47C338.536 182.308 338.813 182.227 339.197 182.227H341.705ZM341.84 168.338L335.91 176.386H341.705L341.84 168.338Z" fill="url(#paint34_linear_1_597)" shape-rendering="crispEdges"/>
<path d="M355.773 174.812C355.773 173.308 355.943 171.946 356.282 170.723C356.621 169.49 357.101 168.436 357.722 167.559C358.354 166.683 359.111 166.007 359.992 165.531C360.884 165.055 361.884 164.817 362.991 164.817C364.086 164.817 365.08 165.055 365.973 165.531C366.865 166.007 367.622 166.683 368.243 167.559C368.875 168.436 369.361 169.49 369.7 170.723C370.039 171.946 370.208 173.308 370.208 174.812C370.208 176.315 370.039 177.684 369.7 178.917C369.361 180.139 368.875 181.188 368.243 182.064C367.622 182.93 366.865 183.6 365.973 184.076C365.08 184.552 364.086 184.79 362.991 184.79C361.884 184.79 360.884 184.552 359.992 184.076C359.111 183.6 358.354 182.93 357.722 182.064C357.101 181.188 356.621 180.139 356.282 178.917C355.943 177.684 355.773 176.315 355.773 174.812ZM358.45 174.812C358.45 176.023 358.563 177.1 358.789 178.041C359.015 178.982 359.326 179.777 359.721 180.426C360.128 181.064 360.608 181.551 361.161 181.886C361.715 182.221 362.324 182.389 362.991 182.389C363.657 182.389 364.267 182.221 364.821 181.886C365.374 181.551 365.848 181.064 366.244 180.426C366.65 179.777 366.967 178.982 367.193 178.041C367.418 177.1 367.531 176.023 367.531 174.812C367.531 173.601 367.418 172.524 367.193 171.583C366.967 170.642 366.65 169.847 366.244 169.198C365.848 168.549 365.374 168.057 364.821 167.722C364.267 167.386 363.657 167.219 362.991 167.219C362.324 167.219 361.715 167.386 361.161 167.722C360.608 168.057 360.128 168.549 359.721 169.198C359.326 169.847 359.015 170.642 358.789 171.583C358.563 172.524 358.45 173.601 358.45 174.812Z" fill="url(#paint35_linear_1_597)" shape-rendering="crispEdges"/>
<path d="M400.853 174.812C400.853 173.308 401.023 171.946 401.362 170.723C401.701 169.49 402.181 168.436 402.802 167.559C403.434 166.683 404.191 166.007 405.072 165.531C405.964 165.055 406.964 164.817 408.071 164.817C409.166 164.817 410.16 165.055 411.053 165.531C411.945 166.007 412.702 166.683 413.323 167.559C413.955 168.436 414.441 169.49 414.78 170.723C415.119 171.946 415.288 173.308 415.288 174.812C415.288 176.315 415.119 177.684 414.78 178.917C414.441 180.139 413.955 181.188 413.323 182.064C412.702 182.93 411.945 183.6 411.053 184.076C410.16 184.552 409.166 184.79 408.071 184.79C406.964 184.79 405.964 184.552 405.072 184.076C404.191 183.6 403.434 182.93 402.802 182.064C402.181 181.188 401.701 180.139 401.362 178.917C401.023 177.684 400.853 176.315 400.853 174.812ZM403.53 174.812C403.53 176.023 403.643 177.1 403.869 178.041C404.095 178.982 404.406 179.777 404.801 180.426C405.208 181.064 405.688 181.551 406.241 181.886C406.795 182.221 407.404 182.389 408.071 182.389C408.737 182.389 409.347 182.221 409.901 181.886C410.454 181.551 410.928 181.064 411.324 180.426C411.73 179.777 412.047 178.982 412.273 178.041C412.498 177.1 412.611 176.023 412.611 174.812C412.611 173.601 412.498 172.524 412.273 171.583C412.047 170.642 411.73 169.847 411.324 169.198C410.928 168.549 410.454 168.057 409.901 167.722C409.347 167.386 408.737 167.219 408.071 167.219C407.404 167.219 406.795 167.386 406.241 167.722C405.688 168.057 405.208 168.549 404.801 169.198C404.406 169.847 404.095 170.642 403.869 171.583C403.643 172.524 403.53 173.601 403.53 174.812Z" fill="url(#paint36_linear_1_597)" shape-rendering="crispEdges"/>
<path d="M434.711 171.145C434.711 170.572 434.609 170.047 434.406 169.571C434.203 169.085 433.915 168.668 433.542 168.322C433.169 167.976 432.717 167.705 432.186 167.511C431.656 167.316 431.063 167.219 430.408 167.219C429.764 167.219 429.176 167.305 428.646 167.478C428.126 167.651 427.68 167.9 427.307 168.225C426.934 168.549 426.646 168.939 426.443 169.393C426.24 169.847 426.138 170.35 426.138 170.902C426.138 171.464 426.234 171.978 426.426 172.443C426.629 172.897 426.912 173.287 427.273 173.611C427.646 173.936 428.092 174.19 428.612 174.374C429.143 174.547 429.741 174.634 430.408 174.634C431.029 174.634 431.605 174.552 432.136 174.39C432.667 174.217 433.118 173.979 433.491 173.676C433.875 173.363 434.174 172.995 434.389 172.573C434.604 172.14 434.711 171.664 434.711 171.145ZM425.122 182.405C426.68 182.329 428.036 182.097 429.188 181.708C430.351 181.307 431.334 180.777 432.136 180.118C432.938 179.447 433.564 178.657 434.016 177.749C434.479 176.84 434.79 175.834 434.948 174.731C434.349 175.477 433.621 176.05 432.763 176.451C431.915 176.84 431.006 177.035 430.035 177.035C429.097 177.035 428.228 176.889 427.426 176.597C426.624 176.305 425.929 175.894 425.342 175.364C424.754 174.823 424.291 174.179 423.953 173.433C423.625 172.676 423.461 171.832 423.461 170.902C423.461 170.026 423.625 169.214 423.953 168.468C424.291 167.722 424.76 167.078 425.359 166.537C425.969 165.996 426.697 165.575 427.544 165.272C428.403 164.969 429.357 164.817 430.408 164.817C431.006 164.817 431.588 164.882 432.153 165.012C432.729 165.142 433.271 165.342 433.779 165.612C434.287 165.872 434.75 166.202 435.168 166.602C435.598 166.992 435.976 167.451 436.303 167.981C436.733 168.684 437.055 169.485 437.269 170.383C437.495 171.27 437.608 172.303 437.608 173.482C437.608 174.347 437.512 175.223 437.32 176.11C437.139 176.986 436.846 177.835 436.439 178.657C436.032 179.469 435.507 180.236 434.863 180.961C434.231 181.675 433.463 182.308 432.559 182.86C431.667 183.4 430.633 183.844 429.459 184.19C428.284 184.525 426.957 184.725 425.477 184.79C425.229 184.801 425.014 184.731 424.834 184.579C424.664 184.439 424.557 184.147 424.512 183.703C424.466 183.216 424.5 182.881 424.613 182.697C424.726 182.513 424.896 182.416 425.122 182.405Z" fill="url(#paint37_linear_1_597)" shape-rendering="crispEdges"/>
<path d="M446.459 182.86C446.188 182.676 446.018 182.459 445.95 182.211C445.883 181.951 445.967 181.632 446.204 181.253C446.442 180.875 446.696 180.653 446.967 180.588C447.238 180.523 447.503 180.583 447.763 180.767C448.475 181.253 449.254 181.648 450.101 181.951C450.96 182.243 451.829 182.389 452.71 182.389C453.411 182.389 454.037 182.292 454.591 182.097C455.144 181.891 455.613 181.605 455.997 181.237C456.381 180.858 456.675 180.415 456.878 179.907C457.081 179.387 457.183 178.809 457.183 178.171C457.183 177.576 457.087 177.029 456.895 176.532C456.703 176.023 456.426 175.591 456.065 175.234C455.715 174.866 455.286 174.585 454.777 174.39C454.269 174.185 453.693 174.082 453.049 174.082C452.236 174.082 451.53 174.185 450.931 174.39C450.333 174.585 449.757 174.866 449.203 175.234C449.023 175.342 448.74 175.396 448.356 175.396C447.882 175.396 447.543 175.315 447.34 175.153C447.148 174.99 447.063 174.72 447.085 174.341L447.424 166.229C447.447 165.85 447.543 165.58 447.712 165.418C447.893 165.256 448.221 165.174 448.695 165.174H457.742C458.126 165.174 458.397 165.256 458.555 165.418C458.725 165.58 458.81 165.867 458.81 166.278C458.81 166.689 458.725 166.975 458.555 167.138C458.397 167.3 458.126 167.381 457.742 167.381H449.847L449.627 172.589C450.169 172.297 450.739 172.075 451.338 171.924C451.948 171.762 452.592 171.681 453.269 171.681C454.297 171.681 455.218 171.843 456.031 172.167C456.856 172.481 457.55 172.93 458.115 173.514C458.68 174.087 459.109 174.774 459.403 175.575C459.707 176.364 459.86 177.229 459.86 178.171C459.86 179.122 459.691 180.004 459.352 180.815C459.024 181.616 458.55 182.313 457.929 182.908C457.307 183.492 456.556 183.952 455.675 184.287C454.794 184.623 453.806 184.79 452.71 184.79C451.603 184.79 450.502 184.617 449.407 184.271C448.322 183.914 447.34 183.444 446.459 182.86Z" fill="url(#paint38_linear_1_597)" shape-rendering="crispEdges"/>
<path d="M476.945 182.227V178.592H468.846C468.462 178.592 468.185 178.511 468.016 178.349C467.858 178.187 467.779 177.9 467.779 177.489C467.779 177.132 467.835 176.878 467.948 176.727L476.148 165.807C476.385 165.483 476.645 165.239 476.928 165.077C477.21 164.904 477.571 164.817 478.012 164.817C478.543 164.817 478.921 164.936 479.147 165.174C479.373 165.402 479.486 165.704 479.486 166.083V176.386H482.231C482.615 176.386 482.886 176.467 483.044 176.629C483.213 176.791 483.298 177.078 483.298 177.489C483.298 177.9 483.213 178.187 483.044 178.349C482.886 178.511 482.615 178.592 482.231 178.592H479.486V182.227H481.722C482.106 182.227 482.377 182.308 482.535 182.47C482.705 182.632 482.79 182.919 482.79 183.33C482.79 183.741 482.705 184.028 482.535 184.19C482.377 184.352 482.106 184.433 481.722 184.433H474.437C474.053 184.433 473.776 184.352 473.607 184.19C473.449 184.028 473.37 183.741 473.37 183.33C473.37 182.919 473.449 182.632 473.607 182.47C473.776 182.308 474.053 182.227 474.437 182.227H476.945ZM477.08 168.338L471.15 176.386H476.945L477.08 168.338Z" fill="url(#paint39_linear_1_597)" shape-rendering="crispEdges"/>
</g>
<path d="M59.2974 31.3043C56.7712 31.3043 54.8064 32.5136 53.559 34.5292C52.6234 32.4516 50.8145 31.3043 48.3508 31.3043C46.1053 31.3043 44.4836 32.2345 43.2673 33.94V31.6764H38.7764V48.7312H43.2673L43.2361 39.7697C43.2361 37.0719 44.4836 35.5215 46.8226 35.5215C48.9745 35.5215 49.7854 36.7308 49.7854 38.9014V48.7312H54.2451V39.7697C54.2451 37.0719 55.4614 35.5215 57.8004 35.5215C59.9523 35.5215 60.7631 36.7308 60.7631 38.9014V48.7312H65.2229V37.9402C65.2229 33.816 62.9462 31.3043 59.2974 31.3043Z" fill="white"/>
<path d="M77.1372 31.3043C72.2097 31.3043 68.2178 35.0563 68.2178 40.2038C68.2178 45.3202 72.1473 49.1033 77.1372 49.1033C82.1583 49.1033 86.0879 45.3512 86.0879 40.2038C86.0879 35.0563 82.0959 31.3043 77.1372 31.3043ZM77.1372 35.5215C79.6322 35.5215 81.5658 37.413 81.5658 40.2038C81.5658 43.0256 79.6322 44.8861 77.1372 44.8861C74.6423 44.8861 72.7087 43.0256 72.7087 40.2038C72.7087 37.413 74.6423 35.5215 77.1372 35.5215Z" fill="white"/>
<path d="M99.0041 31.3043C96.6339 31.3043 94.9186 32.2656 93.6711 34.002V31.6764H89.2114V48.7312H93.6711V39.7697C93.6711 36.9789 95.0122 35.5215 97.5383 35.5215C99.9085 35.5215 100.751 36.7618 100.751 38.9945V48.7312H105.21V38.0332C105.21 33.847 102.871 31.3043 99.0041 31.3043Z" fill="white"/>
<path d="M117.126 31.3043C112.198 31.3043 108.206 35.0563 108.206 40.2038C108.206 45.3202 112.136 49.1033 117.126 49.1033C122.147 49.1033 126.076 45.3512 126.076 40.2038C126.076 35.0563 122.085 31.3043 117.126 31.3043ZM117.126 35.5215C119.621 35.5215 121.554 37.413 121.554 40.2038C121.554 43.0256 119.621 44.8861 117.126 44.8861C114.631 44.8861 112.697 43.0256 112.697 40.2038C112.697 37.413 114.631 35.5215 117.126 35.5215Z" fill="white"/>
<path d="M139.086 31.3043C136.685 31.3043 134.845 32.4206 133.66 34.0641V24.8545H129.2V48.7312H133.66V46.4366C134.876 48.049 136.654 49.1033 139.086 49.1033C143.546 49.1033 146.914 45.4443 146.914 40.2038C146.914 34.9323 143.484 31.3043 139.086 31.3043ZM138.057 44.8861C135.562 44.8861 133.66 43.0256 133.66 40.2038C133.66 37.413 135.562 35.5215 138.057 35.5215C140.552 35.5215 142.392 37.413 142.392 40.2038C142.392 43.0256 140.521 44.8861 138.057 44.8861Z" fill="white"/>
<path d="M162.85 31.6764V34.0641C161.665 32.4206 159.856 31.3043 157.423 31.3043C153.026 31.3043 149.626 34.9323 149.626 40.2038C149.626 45.4443 152.963 49.1033 157.454 49.1033C159.856 49.1033 161.633 48.049 162.818 46.4366V48.7312H167.278L167.309 31.6764H162.85ZM158.452 44.8861C155.989 44.8861 154.117 43.0256 154.117 40.2038C154.117 37.413 155.957 35.5215 158.452 35.5215C160.947 35.5215 162.85 37.413 162.85 40.2038C162.85 43.0256 160.947 44.8861 158.452 44.8861Z" fill="white"/>
<path d="M180.656 31.3043C178.286 31.3043 176.571 32.2656 175.323 34.002V31.6764H170.864V48.7312H175.323V39.7697C175.323 36.9789 176.664 35.5215 179.191 35.5215C181.561 35.5215 182.403 36.7618 182.403 38.9945V48.7312H186.863V38.0332C186.863 33.847 184.524 31.3043 180.656 31.3043Z" fill="white"/>
<path d="M207.604 48.7312L199.246 39.8007L207.074 31.6764H201.398L194.88 38.7774V24.8545H190.42V48.7312H194.88V41.2891L201.897 48.7312H207.604Z" fill="white"/>
<path d="M254.26 30.815V39.3734C254.26 42.1849 252.784 43.3012 250.767 43.3012C248.75 43.3012 247.274 42.1849 247.274 39.3734V30.815H244.883V39.5181C244.883 43.5493 247.419 45.5338 250.767 45.5338C254.114 45.5338 256.651 43.5493 256.651 39.5181V30.815H254.26Z" fill="white"/>
<path d="M265.791 33.6678C264.003 33.6678 262.776 34.474 261.965 35.7971V33.9159H259.616V45.2857H261.965V39.3941C261.965 37.2028 263.046 35.9004 265.063 35.9004C266.789 35.9004 267.558 36.8307 267.558 38.5879V45.2857H269.907V38.1124C269.907 35.3423 268.369 33.6678 265.791 33.6678Z" fill="white"/>
<path d="M273.714 28.7891C272.861 28.7891 272.196 29.3886 272.196 30.2155C272.196 31.0631 272.861 31.6832 273.714 31.6832C274.608 31.6832 275.252 31.0631 275.252 30.2155C275.252 29.3886 274.608 28.7891 273.714 28.7891ZM272.549 45.2857H274.899V33.9159H272.549V45.2857Z" fill="white"/>
<path d="M285.339 33.9159L282.283 42.8464L279.247 33.9159H276.752L280.869 45.2857H283.717L287.834 33.9159H285.339Z" fill="white"/>
<path d="M294.546 33.6678C291.095 33.6678 288.642 36.1898 288.642 39.6215C288.642 43.0531 291.116 45.5338 294.588 45.5338C297.021 45.5338 299.204 44.3348 300.098 41.7921H297.665C297.125 42.9084 295.981 43.4872 294.609 43.4872C292.696 43.4872 291.22 42.3296 291.033 40.2417H300.326C300.555 36.4999 298.226 33.6678 294.546 33.6678ZM294.546 35.6937C296.272 35.6937 297.457 36.7893 297.811 38.3398H291.157C291.552 36.81 292.758 35.6937 294.546 35.6937Z" fill="white"/>
<path d="M308.774 33.6678C306.965 33.6678 305.655 34.5774 304.969 36.1692V33.9159H302.62V45.2857H304.969V40.0763C304.969 37.2648 306.612 36.0658 308.753 36.0658C309.065 36.0658 309.252 36.0865 309.46 36.1072V33.7298C309.294 33.6885 309.065 33.6678 308.774 33.6678Z" fill="white"/>
<path d="M316.382 45.5338C319.085 45.5338 321.289 44.3348 321.289 41.8955C321.289 39.6835 319.501 39.146 316.403 38.4225C314.407 37.947 313.7 37.761 313.7 37.0374C313.7 36.2519 314.594 35.7351 316.112 35.7351C317.567 35.7351 318.441 36.1898 318.773 37.1201H321.143C320.728 35.0529 319.085 33.6678 316.154 33.6678C313.284 33.6678 311.33 34.9908 311.33 37.2855C311.33 39.1874 312.681 39.8282 315.883 40.6138C317.796 41.0686 318.877 41.2133 318.877 42.1642C318.877 43.0118 317.942 43.4666 316.424 43.4666C314.449 43.4666 313.513 42.8877 313.16 41.6267H310.769C311.205 44.0867 313.368 45.5338 316.382 45.5338Z" fill="white"/>
<path d="M332.37 33.9159V35.8591C331.539 34.5567 330.167 33.6678 328.358 33.6678C325.364 33.6678 323.098 36.1278 323.098 39.6008C323.098 43.0738 325.322 45.5338 328.378 45.5338C330.167 45.5338 331.539 44.6862 332.37 43.3839V45.2857H334.72V33.9159H332.37ZM328.877 43.3012C326.902 43.3012 325.468 41.7921 325.468 39.6008C325.468 37.4302 326.882 35.9004 328.877 35.9004C330.873 35.9004 332.391 37.4302 332.391 39.6008C332.391 41.7921 330.873 43.3012 328.877 43.3012Z" fill="white"/>
<path d="M337.482 45.2857H339.852V29.3679H337.482V45.2857Z" fill="white"/>
<path d="M357.794 37.5542C359.104 36.9547 359.727 36.0038 359.727 34.536C359.727 32.1587 358.127 30.815 355.299 30.815H349.103V45.2857H355.382C358.438 45.2857 360.206 43.7353 360.206 41.1926C360.206 39.4354 359.436 38.0504 357.794 37.5542ZM357.357 34.9082C357.357 36.0865 356.734 36.7687 355.029 36.7687H351.453V33.0476H355.008C356.692 33.0476 357.357 33.6471 357.357 34.9082ZM355.32 43.0531H351.453V38.9186H355.299C357.212 38.9186 357.835 39.6835 357.835 41.0065C357.835 42.2469 357.232 43.0531 355.32 43.0531Z" fill="white"/>
<path d="M371.334 33.9159V35.8591C370.502 34.5567 369.13 33.6678 367.321 33.6678C364.327 33.6678 362.061 36.1278 362.061 39.6008C362.061 43.0738 364.285 45.5338 367.342 45.5338C369.13 45.5338 370.502 44.6862 371.334 43.3839V45.2857H373.683V33.9159H371.334ZM367.841 43.3012C365.866 43.3012 364.431 41.7921 364.431 39.6008C364.431 37.4302 365.845 35.9004 367.841 35.9004C369.837 35.9004 371.354 37.4302 371.354 39.6008C371.354 41.7921 369.837 43.3012 367.841 43.3012Z" fill="white"/>
<path d="M382.599 33.6678C380.811 33.6678 379.585 34.474 378.774 35.7971V33.9159H376.424V45.2857H378.774V39.3941C378.774 37.2028 379.855 35.9004 381.872 35.9004C383.597 35.9004 384.367 36.8307 384.367 38.5879V45.2857H386.716V38.1124C386.716 35.3423 385.178 33.6678 382.599 33.6678Z" fill="white"/>
<path d="M400.232 45.2857L394.182 39.3114L399.774 33.9159H396.76L391.811 38.8359V29.3679H389.462V45.2857H391.811V40.0349L397.196 45.2857H400.232Z" fill="white"/>
<path fill-rule="evenodd" clip-rule="evenodd" d="M224.987 56.4834V22.8906H226.72V56.4834H224.987Z" fill="white"/>
<g filter="url(#filter3_ii_1_597)">
<path d="M37 95.2446C37 91.4389 40.1029 88.3537 43.9304 88.3537H102.839C106.666 88.3537 109.769 91.4389 109.769 95.2446V133.369C109.769 137.175 106.666 140.26 102.839 140.26H43.9304C40.1029 140.26 37 137.175 37 133.369V95.2446Z" fill="#CDC9C1"/>
<path d="M37 95.2446C37 91.4389 40.1029 88.3537 43.9304 88.3537H102.839C106.666 88.3537 109.769 91.4389 109.769 95.2446V133.369C109.769 137.175 106.666 140.26 102.839 140.26H43.9304C40.1029 140.26 37 137.175 37 133.369V95.2446Z" fill="url(#paint40_radial_1_597)" fill-opacity="0.1"/>
<path d="M37 95.2446C37 91.4389 40.1029 88.3537 43.9304 88.3537H102.839C106.666 88.3537 109.769 91.4389 109.769 95.2446V133.369C109.769 137.175 106.666 140.26 102.839 140.26H43.9304C40.1029 140.26 37 137.175 37 133.369V95.2446Z" fill="url(#paint41_radial_1_597)" fill-opacity="0.1"/>
<path d="M37 95.2446C37 91.4389 40.1029 88.3537 43.9304 88.3537H102.839C106.666 88.3537 109.769 91.4389 109.769 95.2446V133.369C109.769 137.175 106.666 140.26 102.839 140.26H43.9304C40.1029 140.26 37 137.175 37 133.369V95.2446Z" fill="url(#paint42_radial_1_597)" fill-opacity="0.1"/>
</g>
<mask id="mask0_1_597" style="mask-type:alpha" maskUnits="userSpaceOnUse" x="37" y="88" width="73" height="53">
<path d="M37 95.2446C37 91.4389 40.1029 88.3537 43.9304 88.3537H102.839C106.666 88.3537 109.769 91.4389 109.769 95.2446V133.369C109.769 137.175 106.666 140.26 102.839 140.26H43.9304C40.1029 140.26 37 137.175 37 133.369V95.2446Z" fill="#D9D9D9"/>
</mask>
<g mask="url(#mask0_1_597)">
<path fill-rule="evenodd" clip-rule="evenodd" d="M36.5694 94.7953C36.5694 93.606 37.539 92.6419 38.7351 92.6419H55.8352C57.0313 92.6419 58.0009 93.606 58.0009 94.7953V105.506C58.0009 106.695 57.0313 107.659 55.8352 107.659H38.7351C37.539 107.659 36.5694 106.695 36.5694 105.506V94.7953ZM38.7351 93.5033C38.0175 93.5033 37.4357 94.0818 37.4357 94.7953V105.506C37.4357 106.22 38.0175 106.798 38.7351 106.798H55.8352C56.5528 106.798 57.1346 106.22 57.1346 105.506V94.7953C57.1346 94.0818 56.5528 93.5033 55.8352 93.5033H38.7351Z" fill="#10141E"/>
<path fill-rule="evenodd" clip-rule="evenodd" d="M36.5694 108.951C36.5694 107.762 37.539 106.798 38.7351 106.798H55.8352C57.0313 106.798 58.0009 107.762 58.0009 108.951V119.662C58.0009 120.851 57.0313 121.815 55.8352 121.815H38.7351C37.539 121.815 36.5694 120.851 36.5694 119.662V108.951ZM38.7351 107.659C38.0175 107.659 37.4357 108.238 37.4357 108.951V119.662C37.4357 120.375 38.0175 120.954 38.7351 120.954H55.8352C56.5528 120.954 57.1346 120.375 57.1346 119.662V108.951C57.1346 108.238 56.5528 107.659 55.8352 107.659H38.7351Z" fill="#10141E"/>
<path fill-rule="evenodd" clip-rule="evenodd" d="M61.8815 107.378C61.8815 106.189 62.8511 105.225 64.0473 105.225H87.4751C88.6712 105.225 89.6408 106.189 89.6408 107.378V107.865C89.6408 109.055 88.6712 110.019 87.4751 110.019H86.1945C85.4768 110.019 84.895 110.597 84.895 111.311V122.808C84.895 123.997 83.9254 124.961 82.7292 124.961H59.3014C58.1053 124.961 57.1357 123.997 57.1357 122.808V121.535C57.1357 120.345 58.1053 119.381 59.3014 119.381H60.5821C61.2997 119.381 61.8815 118.803 61.8815 118.089V107.378ZM64.0473 106.086C63.3296 106.086 62.7478 106.665 62.7478 107.378V118.089C62.7478 119.279 61.7782 120.243 60.5821 120.243H59.3014C58.5838 120.243 58.002 120.821 58.002 121.535V122.808C58.002 123.522 58.5838 124.1 59.3014 124.1H82.7292C83.4469 124.1 84.0287 123.522 84.0287 122.808V111.311C84.0287 110.121 84.9983 109.157 86.1945 109.157H87.4751C88.1927 109.157 88.7745 108.579 88.7745 107.865V107.378C88.7745 106.665 88.1927 106.086 87.4751 106.086H64.0473Z" fill="#10141E"/>
<path fill-rule="evenodd" clip-rule="evenodd" d="M36.5694 123.108C36.5694 121.918 37.539 120.954 38.7351 120.954H55.8352C57.0313 120.954 58.0009 121.918 58.0009 123.108V133.818C58.0009 135.008 57.0313 135.972 55.8352 135.972H38.7351C37.539 135.972 36.5694 135.008 36.5694 133.818V123.108ZM38.7351 121.816C38.0175 121.816 37.4357 122.394 37.4357 123.108V133.818C37.4357 134.532 38.0175 135.11 38.7351 135.11H55.8352C56.5528 135.11 57.1346 134.532 57.1346 133.818V123.108C57.1346 122.394 56.5528 121.816 55.8352 121.816H38.7351Z" fill="#10141E"/>
<path fill-rule="evenodd" clip-rule="evenodd" d="M88.773 94.7951C88.773 93.6058 89.7427 92.6417 90.9388 92.6417H108.039C109.235 92.6417 110.205 93.6058 110.205 94.7951V105.506C110.205 106.695 109.235 107.659 108.039 107.659H90.9388C89.7427 107.659 88.773 106.695 88.773 105.506V94.7951ZM90.9388 93.503C90.2211 93.503 89.6393 94.0815 89.6393 94.7951V105.506C89.6393 106.219 90.2211 106.798 90.9388 106.798H108.039C108.757 106.798 109.338 106.219 109.338 105.506V94.7951C109.338 94.0815 108.757 93.503 108.039 93.503H90.9388Z" fill="#10141E"/>
<path fill-rule="evenodd" clip-rule="evenodd" d="M88.773 108.951C88.773 107.762 89.7427 106.798 90.9388 106.798H108.039C109.235 106.798 110.205 107.762 110.205 108.951V119.662C110.205 120.851 109.235 121.815 108.039 121.815H90.9388C89.7427 121.815 88.773 120.851 88.773 119.662V108.951ZM90.9388 107.659C90.2211 107.659 89.6393 108.238 89.6393 108.951V119.662C89.6393 120.375 90.2211 120.954 90.9388 120.954H108.039C108.757 120.954 109.338 120.375 109.338 119.662V108.951C109.338 108.238 108.757 107.659 108.039 107.659H90.9388Z" fill="#10141E"/>
<path fill-rule="evenodd" clip-rule="evenodd" d="M88.773 123.108C88.773 121.918 89.7427 120.954 90.9388 120.954H108.039C109.235 120.954 110.205 121.918 110.205 123.108V133.818C110.205 135.008 109.235 135.972 108.039 135.972H90.9388C89.7427 135.972 88.773 135.008 88.773 133.818V123.108ZM90.9388 121.816C90.2211 121.816 89.6393 122.394 89.6393 123.108V133.818C89.6393 134.532 90.2211 135.11 90.9388 135.11H108.039C108.757 135.11 109.338 134.532 109.338 133.818V123.108C109.338 122.394 108.757 121.816 108.039 121.816H90.9388Z" fill="#10141E"/>
</g>
<defs>
<filter id="filter0_di_1_597" x="37.9536" y="255.361" width="315.651" height="14.8044" filterUnits="userSpaceOnUse" color-interpolation-filters="sRGB">
<feFlood flood-opacity="0" result="BackgroundImageFix"/>
<feColorMatrix in="SourceAlpha" type="matrix" values="0 0 0 0 0 0 0 0 0 0 0 0 0 0 0 0 0 0 127 0" result="hardAlpha"/>
<feOffset dy="0.5"/>
<feComposite in2="hardAlpha" operator="out"/>
<feColorMatrix type="matrix" values="0 0 0 0 0.0588235 0 0 0 0 0.0901961 0 0 0 0 0.164706 0 0 0 1 0"/>
<feBlend mode="normal" in2="BackgroundImageFix" result="effect1_dropShadow_1_597"/>
<feBlend mode="normal" in="SourceGraphic" in2="effect1_dropShadow_1_597" result="shape"/>
<feColorMatrix in="SourceAlpha" type="matrix" values="0 0 0 0 0 0 0 0 0 0 0 0 0 0 0 0 0 0 127 0" result="hardAlpha"/>
<feOffset dy="0.5"/>
<feGaussianBlur stdDeviation="0.125"/>
<feComposite in2="hardAlpha" operator="arithmetic" k2="-1" k3="1"/>
<feColorMatrix type="matrix" values="0 0 0 0 0.580392 0 0 0 0 0.639216 0 0 0 0 0.721569 0 0 0 1 0"/>
<feBlend mode="normal" in2="shape" result="effect2_innerShadow_1_597"/>
</filter>
<filter id="filter1_di_1_597" x="303.441" y="219.545" width="59.6632" height="17.0441" filterUnits="userSpaceOnUse" color-interpolation-filters="sRGB">
<feFlood flood-opacity="0" result="BackgroundImageFix"/>
<feColorMatrix in="SourceAlpha" type="matrix" values="0 0 0 0 0 0 0 0 0 0 0 0 0 0 0 0 0 0 127 0" result="hardAlpha"/>
<feOffset dy="0.5"/>
<feComposite in2="hardAlpha" operator="out"/>
<feColorMatrix type="matrix" values="0 0 0 0 0.0588235 0 0 0 0 0.0901961 0 0 0 0 0.164706 0 0 0 1 0"/>
<feBlend mode="normal" in2="BackgroundImageFix" result="effect1_dropShadow_1_597"/>
<feBlend mode="normal" in="SourceGraphic" in2="effect1_dropShadow_1_597" result="shape"/>
<feColorMatrix in="SourceAlpha" type="matrix" values="0 0 0 0 0 0 0 0 0 0 0 0 0 0 0 0 0 0 127 0" result="hardAlpha"/>
<feOffset dy="0.5"/>
<feGaussianBlur stdDeviation="0.125"/>
<feComposite in2="hardAlpha" operator="arithmetic" k2="-1" k3="1"/>
<feColorMatrix type="matrix" values="0 0 0 0 0.580392 0 0 0 0 0.639216 0 0 0 0 0.721569 0 0 0 1 0"/>
<feBlend mode="normal" in2="shape" result="effect2_innerShadow_1_597"/>
</filter>
<filter id="filter2_di_1_597" x="62.748" y="164.766" width="420.55" height="20.5262" filterUnits="userSpaceOnUse" color-interpolation-filters="sRGB">
<feFlood flood-opacity="0" result="BackgroundImageFix"/>
<feColorMatrix in="SourceAlpha" type="matrix" values="0 0 0 0 0 0 0 0 0 0 0 0 0 0 0 0 0 0 127 0" result="hardAlpha"/>
<feOffset dy="0.5"/>
<feComposite in2="hardAlpha" operator="out"/>
<feColorMatrix type="matrix" values="0 0 0 0 0.0588235 0 0 0 0 0.0901961 0 0 0 0 0.164706 0 0 0 1 0"/>
<feBlend mode="normal" in2="BackgroundImageFix" result="effect1_dropShadow_1_597"/>
<feBlend mode="normal" in="SourceGraphic" in2="effect1_dropShadow_1_597" result="shape"/>
<feColorMatrix in="SourceAlpha" type="matrix" values="0 0 0 0 0 0 0 0 0 0 0 0 0 0 0 0 0 0 127 0" result="hardAlpha"/>
<feOffset dy="0.5"/>
<feGaussianBlur stdDeviation="0.125"/>
<feComposite in2="hardAlpha" operator="arithmetic" k2="-1" k3="1"/>
<feColorMatrix type="matrix" values="0 0 0 0 0.580392 0 0 0 0 0.639216 0 0 0 0 0.721569 0 0 0 1 0"/>
<feBlend mode="normal" in2="shape" result="effect2_innerShadow_1_597"/>
</filter>
<filter id="filter3_ii_1_597" x="37" y="88.3537" width="72.7693" height="51.9059" filterUnits="userSpaceOnUse" color-interpolation-filters="sRGB">
<feFlood flood-opacity="0" result="BackgroundImageFix"/>
<feBlend mode="normal" in="SourceGraphic" in2="BackgroundImageFix" result="shape"/>
<feColorMatrix in="SourceAlpha" type="matrix" values="0 0 0 0 0 0 0 0 0 0 0 0 0 0 0 0 0 0 127 0" result="hardAlpha"/>
<feOffset dx="-1" dy="-1"/>
<feComposite in2="hardAlpha" operator="arithmetic" k2="-1" k3="1"/>
<feColorMatrix type="matrix" values="0 0 0 0 0.184314 0 0 0 0 0.152941 0 0 0 0 0.0941176 0 0 0 0.2 0"/>
<feBlend mode="normal" in2="shape" result="effect1_innerShadow_1_597"/>
<feColorMatrix in="SourceAlpha" type="matrix" values="0 0 0 0 0 0 0 0 0 0 0 0 0 0 0 0 0 0 127 0" result="hardAlpha"/>
<feOffset dx="1" dy="1"/>
<feComposite in2="hardAlpha" operator="arithmetic" k2="-1" k3="1"/>
<feColorMatrix type="matrix" values="0 0 0 0 0.184314 0 0 0 0 0.152941 0 0 0 0 0.0941176 0 0 0 0.2 0"/>
<feBlend mode="normal" in2="effect1_innerShadow_1_597" result="effect2_innerShadow_1_597"/>
</filter>
<linearGradient id="paint0_linear_1_597" x1="489.478" y1="79.8503" x2="-13.6975" y2="205.466" gradientUnits="userSpaceOnUse">
<stop stop-color="#147E82"/>
<stop offset="1" stop-color="#5FAEB1"/>
</linearGradient>
<linearGradient id="paint1_linear_1_597" x1="196.256" y1="264.897" x2="196.256" y2="278.248" gradientUnits="userSpaceOnUse">
<stop stop-color="#F2F2F2"/>
<stop offset="1" stop-color="#EEEEEE" stop-opacity="0"/>
</linearGradient>
<linearGradient id="paint2_linear_1_597" x1="196.256" y1="264.897" x2="196.256" y2="278.248" gradientUnits="userSpaceOnUse">
<stop stop-color="#F2F2F2"/>
<stop offset="1" stop-color="#EEEEEE" stop-opacity="0"/>
</linearGradient>
<linearGradient id="paint3_linear_1_597" x1="196.256" y1="264.897" x2="196.256" y2="278.248" gradientUnits="userSpaceOnUse">
<stop stop-color="#F2F2F2"/>
<stop offset="1" stop-color="#EEEEEE" stop-opacity="0"/>
</linearGradient>
<linearGradient id="paint4_linear_1_597" x1="196.256" y1="264.897" x2="196.256" y2="278.248" gradientUnits="userSpaceOnUse">
<stop stop-color="#F2F2F2"/>
<stop offset="1" stop-color="#EEEEEE" stop-opacity="0"/>
</linearGradient>
<linearGradient id="paint5_linear_1_597" x1="196.256" y1="264.897" x2="196.256" y2="278.248" gradientUnits="userSpaceOnUse">
<stop stop-color="#F2F2F2"/>
<stop offset="1" stop-color="#EEEEEE" stop-opacity="0"/>
</linearGradient>
<linearGradient id="paint6_linear_1_597" x1="196.256" y1="264.897" x2="196.256" y2="278.248" gradientUnits="userSpaceOnUse">
<stop stop-color="#F2F2F2"/>
<stop offset="1" stop-color="#EEEEEE" stop-opacity="0"/>
</linearGradient>
<linearGradient id="paint7_linear_1_597" x1="196.256" y1="264.897" x2="196.256" y2="278.248" gradientUnits="userSpaceOnUse">
<stop stop-color="#F2F2F2"/>
<stop offset="1" stop-color="#EEEEEE" stop-opacity="0"/>
</linearGradient>
<linearGradient id="paint8_linear_1_597" x1="196.256" y1="264.897" x2="196.256" y2="278.248" gradientUnits="userSpaceOnUse">
<stop stop-color="#F2F2F2"/>
<stop offset="1" stop-color="#EEEEEE" stop-opacity="0"/>
</linearGradient>
<linearGradient id="paint9_linear_1_597" x1="196.256" y1="264.897" x2="196.256" y2="278.248" gradientUnits="userSpaceOnUse">
<stop stop-color="#F2F2F2"/>
<stop offset="1" stop-color="#EEEEEE" stop-opacity="0"/>
</linearGradient>
<linearGradient id="paint10_linear_1_597" x1="196.256" y1="264.897" x2="196.256" y2="278.248" gradientUnits="userSpaceOnUse">
<stop stop-color="#F2F2F2"/>
<stop offset="1" stop-color="#EEEEEE" stop-opacity="0"/>
</linearGradient>
<linearGradient id="paint11_linear_1_597" x1="196.256" y1="264.897" x2="196.256" y2="278.248" gradientUnits="userSpaceOnUse">
<stop stop-color="#F2F2F2"/>
<stop offset="1" stop-color="#EEEEEE" stop-opacity="0"/>
</linearGradient>
<linearGradient id="paint12_linear_1_597" x1="196.256" y1="264.897" x2="196.256" y2="278.248" gradientUnits="userSpaceOnUse">
<stop stop-color="#F2F2F2"/>
<stop offset="1" stop-color="#EEEEEE" stop-opacity="0"/>
</linearGradient>
<linearGradient id="paint13_linear_1_597" x1="196.256" y1="264.897" x2="196.256" y2="278.248" gradientUnits="userSpaceOnUse">
<stop stop-color="#F2F2F2"/>
<stop offset="1" stop-color="#EEEEEE" stop-opacity="0"/>
</linearGradient>
<linearGradient id="paint14_linear_1_597" x1="196.256" y1="264.897" x2="196.256" y2="278.248" gradientUnits="userSpaceOnUse">
<stop stop-color="#F2F2F2"/>
<stop offset="1" stop-color="#EEEEEE" stop-opacity="0"/>
</linearGradient>
<linearGradient id="paint15_linear_1_597" x1="196.256" y1="264.897" x2="196.256" y2="278.248" gradientUnits="userSpaceOnUse">
<stop stop-color="#F2F2F2"/>
<stop offset="1" stop-color="#EEEEEE" stop-opacity="0"/>
</linearGradient>
<linearGradient id="paint16_linear_1_597" x1="196.256" y1="264.897" x2="196.256" y2="278.248" gradientUnits="userSpaceOnUse">
<stop stop-color="#F2F2F2"/>
<stop offset="1" stop-color="#EEEEEE" stop-opacity="0"/>
</linearGradient>
<linearGradient id="paint17_linear_1_597" x1="196.256" y1="264.897" x2="196.256" y2="278.248" gradientUnits="userSpaceOnUse">
<stop stop-color="#F2F2F2"/>
<stop offset="1" stop-color="#EEEEEE" stop-opacity="0"/>
</linearGradient>
<linearGradient id="paint18_linear_1_597" x1="196.256" y1="264.897" x2="196.256" y2="278.248" gradientUnits="userSpaceOnUse">
<stop stop-color="#F2F2F2"/>
<stop offset="1" stop-color="#EEEEEE" stop-opacity="0"/>
</linearGradient>
<linearGradient id="paint19_linear_1_597" x1="333.577" y1="224.844" x2="333.577" y2="240.579" gradientUnits="userSpaceOnUse">
<stop stop-color="#F2F2F2"/>
<stop offset="1" stop-color="#EEEEEE" stop-opacity="0"/>
</linearGradient>
<linearGradient id="paint20_linear_1_597" x1="333.577" y1="224.844" x2="333.577" y2="240.579" gradientUnits="userSpaceOnUse">
<stop stop-color="#F2F2F2"/>
<stop offset="1" stop-color="#EEEEEE" stop-opacity="0"/>
</linearGradient>
<linearGradient id="paint21_linear_1_597" x1="333.577" y1="224.844" x2="333.577" y2="240.579" gradientUnits="userSpaceOnUse">
<stop stop-color="#F2F2F2"/>
<stop offset="1" stop-color="#EEEEEE" stop-opacity="0"/>
</linearGradient>
<linearGradient id="paint22_linear_1_597" x1="333.577" y1="224.844" x2="333.577" y2="240.579" gradientUnits="userSpaceOnUse">
<stop stop-color="#F2F2F2"/>
<stop offset="1" stop-color="#EEEEEE" stop-opacity="0"/>
</linearGradient>
<linearGradient id="paint23_linear_1_597" x1="333.577" y1="224.844" x2="333.577" y2="240.579" gradientUnits="userSpaceOnUse">
<stop stop-color="#F2F2F2"/>
<stop offset="1" stop-color="#EEEEEE" stop-opacity="0"/>
</linearGradient>
<linearGradient id="paint24_linear_1_597" x1="273.5" y1="174.302" x2="273.5" y2="203.388" gradientUnits="userSpaceOnUse">
<stop stop-color="#F2F2F2"/>
<stop offset="1" stop-color="#EEEEEE" stop-opacity="0"/>
</linearGradient>
<linearGradient id="paint25_linear_1_597" x1="273.5" y1="174.302" x2="273.5" y2="203.388" gradientUnits="userSpaceOnUse">
<stop stop-color="#F2F2F2"/>
<stop offset="1" stop-color="#EEEEEE" stop-opacity="0"/>
</linearGradient>
<linearGradient id="paint26_linear_1_597" x1="273.5" y1="174.302" x2="273.5" y2="203.388" gradientUnits="userSpaceOnUse">
<stop stop-color="#F2F2F2"/>
<stop offset="1" stop-color="#EEEEEE" stop-opacity="0"/>
</linearGradient>
<linearGradient id="paint27_linear_1_597" x1="273.5" y1="174.302" x2="273.5" y2="203.388" gradientUnits="userSpaceOnUse">
<stop stop-color="#F2F2F2"/>
<stop offset="1" stop-color="#EEEEEE" stop-opacity="0"/>
</linearGradient>
<linearGradient id="paint28_linear_1_597" x1="273.5" y1="174.302" x2="273.5" y2="203.388" gradientUnits="userSpaceOnUse">
<stop stop-color="#F2F2F2"/>
<stop offset="1" stop-color="#EEEEEE" stop-opacity="0"/>
</linearGradient>
<linearGradient id="paint29_linear_1_597" x1="273.5" y1="174.302" x2="273.5" y2="203.388" gradientUnits="userSpaceOnUse">
<stop stop-color="#F2F2F2"/>
<stop offset="1" stop-color="#EEEEEE" stop-opacity="0"/>
</linearGradient>
<linearGradient id="paint30_linear_1_597" x1="273.5" y1="174.302" x2="273.5" y2="203.388" gradientUnits="userSpaceOnUse">
<stop stop-color="#F2F2F2"/>
<stop offset="1" stop-color="#EEEEEE" stop-opacity="0"/>
</linearGradient>
<linearGradient id="paint31_linear_1_597" x1="273.5" y1="174.302" x2="273.5" y2="203.388" gradientUnits="userSpaceOnUse">
<stop stop-color="#F2F2F2"/>
<stop offset="1" stop-color="#EEEEEE" stop-opacity="0"/>
</linearGradient>
<linearGradient id="paint32_linear_1_597" x1="273.5" y1="174.302" x2="273.5" y2="203.388" gradientUnits="userSpaceOnUse">
<stop stop-color="#F2F2F2"/>
<stop offset="1" stop-color="#EEEEEE" stop-opacity="0"/>
</linearGradient>
<linearGradient id="paint33_linear_1_597" x1="273.5" y1="174.302" x2="273.5" y2="203.388" gradientUnits="userSpaceOnUse">
<stop stop-color="#F2F2F2"/>
<stop offset="1" stop-color="#EEEEEE" stop-opacity="0"/>
</linearGradient>
<linearGradient id="paint34_linear_1_597" x1="273.5" y1="174.302" x2="273.5" y2="203.388" gradientUnits="userSpaceOnUse">
<stop stop-color="#F2F2F2"/>
<stop offset="1" stop-color="#EEEEEE" stop-opacity="0"/>
</linearGradient>
<linearGradient id="paint35_linear_1_597" x1="273.5" y1="174.302" x2="273.5" y2="203.388" gradientUnits="userSpaceOnUse">
<stop stop-color="#F2F2F2"/>
<stop offset="1" stop-color="#EEEEEE" stop-opacity="0"/>
</linearGradient>
<linearGradient id="paint36_linear_1_597" x1="273.5" y1="174.302" x2="273.5" y2="203.388" gradientUnits="userSpaceOnUse">
<stop stop-color="#F2F2F2"/>
<stop offset="1" stop-color="#EEEEEE" stop-opacity="0"/>
</linearGradient>
<linearGradient id="paint37_linear_1_597" x1="273.5" y1="174.302" x2="273.5" y2="203.388" gradientUnits="userSpaceOnUse">
<stop stop-color="#F2F2F2"/>
<stop offset="1" stop-color="#EEEEEE" stop-opacity="0"/>
</linearGradient>
<linearGradient id="paint38_linear_1_597" x1="273.5" y1="174.302" x2="273.5" y2="203.388" gradientUnits="userSpaceOnUse">
<stop stop-color="#F2F2F2"/>
<stop offset="1" stop-color="#EEEEEE" stop-opacity="0"/>
</linearGradient>
<linearGradient id="paint39_linear_1_597" x1="273.5" y1="174.302" x2="273.5" y2="203.388" gradientUnits="userSpaceOnUse">
<stop stop-color="#F2F2F2"/>
<stop offset="1" stop-color="#EEEEEE" stop-opacity="0"/>
</linearGradient>
<radialGradient id="paint40_radial_1_597" cx="0" cy="0" r="1" gradientUnits="userSpaceOnUse" gradientTransform="translate(55.1923 88.3537) rotate(70.6851) scale(55.0017 77.0134)">
<stop stop-color="#C29632"/>
<stop offset="1" stop-color="#C29632" stop-opacity="0"/>
</radialGradient>
<radialGradient id="paint41_radial_1_597" cx="0" cy="0" r="1" gradientUnits="userSpaceOnUse" gradientTransform="translate(109.769 115.093) rotate(145.329) scale(44.2402 61.5446)">
<stop stop-color="#664700"/>
<stop offset="1" stop-color="#664700"/>
</radialGradient>
<radialGradient id="paint42_radial_1_597" cx="0" cy="0" r="1" gradientUnits="userSpaceOnUse" gradientTransform="translate(46.4917 140.26) rotate(-21.6885) scale(68.0986 94.5317)">
<stop stop-color="#402200"/>
<stop offset="1" stop-color="#402200" stop-opacity="0"/>
</radialGradient>
<clipPath id="clip0_1_597">
<rect width="36.2379" height="44.8205" fill="white" transform="translate(473.762 16)"/>
</clipPath>
</defs>
</svg>
